# Blender 5.1.0
# www.blender.org
mtllib walls.mtl
o Cube
v 1.000000 5.712960 -9.573931
v 1.000000 -1.000000 -9.573931
v 1.000000 5.712960 1.000000
v 1.000000 -1.000000 1.000000
v -13.007716 5.712960 -9.573931
v -13.007716 -1.000000 -9.573931
v -13.007716 5.712960 1.000000
v -13.007716 -1.000000 1.000000
v 0.420172 5.712960 -8.994103
v 0.420172 -1.000000 -8.994103
v 0.420172 5.712960 0.420172
v 0.420172 -1.000000 0.420172
v -12.427889 5.712960 -8.994103
v -12.427889 -1.000000 -8.994103
v -12.427889 5.712960 0.420172
v -12.427889 -1.000000 0.420172
vn -0.0000 -0.0000 1.0000
vn -1.0000 -0.0000 -0.0000
vn 1.0000 -0.0000 -0.0000
vn -0.0000 -0.0000 -1.0000
vn -0.0000 -1.0000 -0.0000
vn -0.0000 1.0000 -0.0000
vt 0.375000 0.750000
vt 0.625000 0.750000
vt 0.625000 1.000000
vt 0.375000 1.000000
vt 0.375000 0.000000
vt 0.625000 0.000000
vt 0.625000 0.250000
vt 0.375000 0.250000
vt 0.375000 0.500000
vt 0.625000 0.500000
s 0
usemtl Material
f 4/1/1 3/2/1 7/3/1 8/4/1
f 8/5/2 7/6/2 5/7/2 6/8/2
f 2/9/3 1/10/3 3/2/3 4/1/3
f 6/8/4 5/7/4 1/10/4 2/9/4
f 12/1/4 16/4/4 15/3/4 11/2/4
f 16/5/3 14/8/3 13/7/3 15/6/3
f 10/9/2 12/1/2 11/2/2 9/10/2
f 14/8/1 10/9/1 9/10/1 13/7/1
f 8/5/5 6/8/5 14/8/5 16/5/5
f 6/8/5 2/9/5 10/9/5 14/8/5
f 7/3/6 3/2/6 11/2/6 15/3/6
f 3/2/6 1/10/6 9/10/6 11/2/6
f 4/1/5 8/4/5 16/4/5 12/1/5
f 5/7/6 7/6/6 15/6/6 13/7/6
f 1/10/6 5/7/6 13/7/6 9/10/6
f 2/9/5 4/1/5 12/1/5 10/9/5
