# File produced by Open Asset Import Library (http://www.assimp.sf.net)
# (assimp v3.1.172307092)

mtllib counterfixed.mtl

# vertex positions
v 1.000000 1.000000 12.037353
v 1.000000 1.000000 -12.037353
v -1.000000 1.000000 -12.037353
v -1.000000 1.000000 12.037353
v 1.000000 -1.000000 -12.037353
v -1.000000 -1.000000 -12.037353
v -1.000000 -1.000000 12.037353
v 1.000000 -1.000000 12.037353
v -2.138219 1.386958 -12.359732
v -2.138219 0.947584 -12.359732
v -2.138219 0.947584 12.359732
v -2.138219 1.386958 12.359732
v 2.138219 0.947584 12.359732
v 2.138219 1.386958 12.359732
v 2.138219 0.947584 -12.359732
v 2.138219 1.386958 -12.359732

# UV coordinates
vt 0.004183 0.261962
vt 0.672405 0.261962
vt 0.668222 0.349283
vt 0.000000 0.349282
vt 0.000000 0.929674
vt 0.069623 0.929674
vt 0.069623 0.999297
vt 0.000000 0.999297
vt 0.680771 0.087321
vt 0.012549 0.087321
vt 0.016731 0.000000
vt 0.684953 0.000000
vt 0.676588 0.174641
vt 0.008366 0.174641
vt 0.869128 0.848939
vt 0.869128 0.779315
vt 0.938751 0.779315
vt 0.938751 0.848939
vt 0.545969 0.565674
vt 0.581404 0.626223
vt 0.000000 0.626223
vt 0.030726 0.548555
vt 0.000519 0.352775
vt 0.035953 0.413324
vt 0.581922 0.352775
vt 0.551197 0.430443
vt 0.000000 0.777827
vt 0.000000 0.628957
vt 0.860522 0.628957
vt 0.860522 0.777827
vt 0.000000 0.928185
vt 0.000000 0.779315
vt 0.860522 0.779315
vt 0.860523 0.928185

# vertex normals
vn 0.000000 1.000000 0.000000
vn -0.000000 -0.000000 -1.000000
vn -1.000000 -0.000000 -0.000000
vn -0.000000 -1.000000 -0.000000
vn 1.000000 0.000000 0.000000
vn 0.000000 0.000000 1.000000

# Mesh
g RoadKillOut
usemtl DefaultMaterial
f 4/4/1 1/1/1 2/2/1
f 2/2/1 3/3/1 4/4/1
f 2/8/2 5/5/2 6/6/2
f 6/6/2 3/7/2 2/8/2
f 3/12/3 6/9/3 7/10/3
f 7/10/3 4/11/3 3/12/3
f 8/14/4 7/10/4 6/9/4
f 6/9/4 5/13/4 8/14/4
f 1/1/5 8/14/5 5/13/5
f 5/13/5 2/2/5 1/1/5
f 4/18/6 7/15/6 8/16/6
f 8/16/6 1/17/6 4/18/6
f 12/22/3 9/19/3 10/20/3
f 10/20/3 11/21/3 12/22/3
f 14/24/6 12/22/6 11/21/6
f 11/21/6 13/23/6 14/24/6
f 16/26/5 14/24/5 13/23/5
f 13/23/5 15/25/5 16/26/5
f 9/19/2 16/26/2 15/25/2
f 15/25/2 10/20/2 9/19/2
f 9/30/1 12/27/1 14/28/1
f 14/28/1 16/29/1 9/30/1
f 15/34/4 13/31/4 11/32/4
f 11/32/4 10/33/4 15/34/4
