# File produced by Open Asset Import Library (http://www.assimp.sf.net)
# (assimp v3.1.172307092)

mtllib cup.mtl

# vertex positions
v 0.195090 -1.000000 -0.980785
v 0.000000 -1.000000 -1.000000
v 0.000000 1.000000 -1.000000
v 0.195090 1.000000 -0.980785
v 0.382683 -1.000000 -0.923880
v 0.382683 1.000000 -0.923880
v 0.555570 -1.000000 -0.831470
v 0.555570 1.000000 -0.831470
v 0.707107 -1.000000 -0.707107
v 0.707107 1.000000 -0.707107
v 0.831470 -1.000000 -0.555570
v 0.831470 1.000000 -0.555570
v 0.923880 -1.000000 -0.382683
v 0.923880 1.000000 -0.382683
v 0.980785 -1.000000 -0.195090
v 0.980785 1.000000 -0.195090
v 1.000000 -1.000000 0.000000
v 1.000000 1.000000 0.000000
v 0.980785 -1.000000 0.195090
v 0.980785 1.000000 0.195090
v 0.923880 -1.000000 0.382683
v 0.923880 1.000000 0.382683
v 0.831470 -1.000000 0.555570
v 0.831470 1.000000 0.555570
v 0.707107 -1.000000 0.707107
v 0.707107 1.000000 0.707107
v 0.555570 -1.000000 0.831470
v 0.555570 1.000000 0.831470
v 0.382683 -1.000000 0.923880
v 0.382683 1.000000 0.923880
v 0.195090 -1.000000 0.980785
v 0.195090 1.000000 0.980785
v 0.000000 -1.000000 1.000000
v 0.000000 1.000000 1.000000
v -0.195090 -1.000000 0.980785
v -0.195090 1.000000 0.980785
v -0.382683 -1.000000 0.923880
v -0.382683 1.000000 0.923880
v -0.555570 -1.000000 0.831470
v -0.555570 1.000000 0.831470
v -0.707107 -1.000000 0.707107
v -0.707107 1.000000 0.707107
v -0.831470 -1.000000 0.555570
v -0.831470 1.000000 0.555570
v -0.923880 -1.000000 0.382683
v -0.923880 1.000000 0.382683
v -0.980785 -1.000000 0.195090
v -0.980785 1.000000 0.195090
v -1.000000 -1.000000 0.000000
v -1.000000 1.000000 0.000000
v -0.980785 -1.000000 -0.195090
v -0.980785 1.000000 -0.195090
v -0.923880 -1.000000 -0.382683
v -0.923880 1.000000 -0.382683
v -0.831470 -1.000000 -0.555570
v -0.831470 1.000000 -0.555570
v -0.707107 -1.000000 -0.707107
v -0.707107 1.000000 -0.707107
v -0.555570 -1.000000 -0.831470
v -0.555570 1.000000 -0.831470
v -0.382683 -1.000000 -0.923880
v -0.382683 1.000000 -0.923880
v -0.195090 -1.000000 -0.980785
v -0.195090 1.000000 -0.980785
v 0.000000 1.000000 -0.899090
v 0.175404 1.000000 -0.881814
v 0.344067 1.000000 -0.830651
v 0.499508 1.000000 -0.747566
v 0.635752 1.000000 -0.635752
v 0.747566 1.000000 -0.499508
v 0.830651 1.000000 -0.344067
v 0.881814 1.000000 -0.175404
v 0.899090 1.000000 0.000000
v 0.881814 1.000000 0.175404
v 0.830651 1.000000 0.344067
v 0.747566 1.000000 0.499508
v 0.635752 1.000000 0.635752
v 0.499508 1.000000 0.747566
v 0.344067 1.000000 0.830651
v 0.175404 1.000000 0.881814
v 0.000000 1.000000 0.899090
v -0.175404 1.000000 0.881814
v -0.344067 1.000000 0.830651
v -0.499508 1.000000 0.747566
v -0.635752 1.000000 0.635752
v -0.747566 1.000000 0.499508
v -0.830651 1.000000 0.344067
v -0.881814 1.000000 0.175404
v -0.899090 1.000000 0.000000
v -0.881814 1.000000 -0.175404
v -0.830651 1.000000 -0.344067
v -0.747566 1.000000 -0.499508
v -0.635752 1.000000 -0.635752
v -0.499508 1.000000 -0.747566
v -0.344067 1.000000 -0.830651
v -0.175404 1.000000 -0.881814
v -0.344067 -0.896732 0.830651
v -0.175404 -0.896732 0.881814
v 0.344067 -0.896732 -0.830651
v 0.175404 -0.896732 -0.881814
v 0.000000 -0.896732 -0.899090
v -0.175404 -0.896732 -0.881814
v -0.344067 -0.896732 -0.830651
v -0.499508 -0.896732 -0.747566
v -0.635753 -0.896732 -0.635752
v -0.747566 -0.896732 -0.499508
v -0.830651 -0.896732 -0.344067
v -0.881814 -0.896732 -0.175404
v -0.899090 -0.896732 0.000000
v -0.881814 -0.896732 0.175404
v -0.830651 -0.896732 0.344067
v -0.747566 -0.896732 0.499508
v -0.635753 -0.896732 0.635752
v -0.499508 -0.896732 0.747566
v 0.000000 -0.896732 0.899090
v 0.175404 -0.896732 0.881814
v 0.344067 -0.896732 0.830651
v 0.499507 -0.896732 0.747566
v 0.635752 -0.896732 0.635752
v 0.747566 -0.896732 0.499508
v 0.830651 -0.896732 0.344067
v 0.881814 -0.896732 0.175404
v 0.899090 -0.896732 0.000000
v 0.881814 -0.896732 -0.175404
v 0.830651 -0.896732 -0.344067
v 0.747566 -0.896732 -0.499508
v 0.635752 -0.896732 -0.635752
v 0.499507 -0.896732 -0.747566
v 1.818519 -0.033803 -0.038278
v 1.828775 -0.033803 0.000000
v 1.715953 -0.454862 0.000000
v 1.707070 -0.449733 -0.038278
v 1.790497 -0.033803 -0.066300
v 1.682803 -0.435723 -0.066299
v 1.752219 -0.033803 -0.076556
v 1.649654 -0.416584 -0.076556
v 1.713941 -0.033803 -0.066300
v 1.616504 -0.397445 -0.066299
v 1.685919 -0.033803 -0.038278
v 1.592236 -0.383434 -0.038278
v 1.675663 -0.033803 0.000000
v 1.583354 -0.378306 0.000000
v 1.685919 -0.033803 0.038278
v 1.592236 -0.383434 0.038278
v 1.713941 -0.033803 0.066300
v 1.616504 -0.397445 0.066300
v 1.752219 -0.033803 0.076556
v 1.649654 -0.416584 0.076556
v 1.790497 -0.033803 0.066300
v 1.682803 -0.435723 0.066300
v 1.818519 -0.033803 0.038278
v 1.707070 -0.449733 0.038278
v 1.407717 -0.763098 0.000000
v 1.402588 -0.754216 -0.038278
v 1.388578 -0.729948 -0.066299
v 1.369439 -0.696798 -0.076556
v 1.350300 -0.663649 -0.066299
v 1.336289 -0.639381 -0.038278
v 1.331161 -0.630499 0.000000
v 1.336289 -0.639381 0.038278
v 1.350300 -0.663649 0.066300
v 1.369439 -0.696798 0.076556
v 1.388578 -0.729948 0.066300
v 1.402588 -0.754216 0.038278
v 0.986658 -0.875920 0.000000
v 0.986658 -0.865664 -0.038278
v 0.986658 -0.837642 -0.066299
v 0.986658 -0.799364 -0.076556
v 0.986658 -0.761086 -0.066299
v 0.986658 -0.733065 -0.038278
v 0.986658 -0.722808 0.000000
v 0.986658 -0.733065 0.038278
v 0.986658 -0.761086 0.066300
v 0.986658 -0.799364 0.076556
v 0.986658 -0.837642 0.066300
v 0.986658 -0.865664 0.038278
v 0.986658 0.798057 -0.038278
v 0.986658 0.808314 0.000000
v 1.407717 0.695492 0.000000
v 1.402588 0.686609 -0.038278
v 0.986658 0.770036 -0.066300
v 1.388578 0.662342 -0.066300
v 0.986658 0.731758 -0.076556
v 1.369439 0.629192 -0.076556
v 0.986658 0.693480 -0.066299
v 1.350300 0.596042 -0.066300
v 0.986658 0.665458 -0.038278
v 1.336289 0.571775 -0.038278
v 0.986658 0.655202 0.000000
v 1.331161 0.562893 0.000000
v 0.986658 0.665458 0.038278
v 1.336289 0.571775 0.038278
v 0.986658 0.693480 0.066299
v 1.350300 0.596042 0.066299
v 0.986658 0.731758 0.076556
v 1.369439 0.629192 0.076556
v 0.986658 0.770036 0.066299
v 1.388578 0.662342 0.066299
v 0.986658 0.798057 0.038278
v 1.402588 0.686609 0.038278
v 1.715953 0.387255 0.000000
v 1.707070 0.382127 -0.038278
v 1.682803 0.368116 -0.066300
v 1.649654 0.348977 -0.076556
v 1.616504 0.329838 -0.066300
v 1.592236 0.315828 -0.038278
v 1.583354 0.310699 0.000000
v 1.592236 0.315828 0.038278
v 1.616504 0.329838 0.066300
v 1.649654 0.348977 0.076556
v 1.682803 0.368116 0.066300
v 1.707070 0.382127 0.038278
v 0.175404 0.883567 -0.881814
v 0.000000 0.883567 -0.899090
v -0.175404 0.883567 -0.881814
v -0.344067 0.883567 -0.830651
v -0.499508 0.883567 -0.747566
v -0.635753 0.883567 -0.635752
v -0.747566 0.883567 -0.499508
v -0.830651 0.883567 -0.344067
v -0.881814 0.883567 -0.175404
v -0.899090 0.883567 0.000000
v -0.881814 0.883567 0.175404
v -0.830651 0.883567 0.344067
v -0.747566 0.883567 0.499508
v -0.635753 0.883567 0.635752
v -0.499508 0.883567 0.747566
v -0.344067 0.883567 0.830651
v -0.175404 0.883567 0.881814
v 0.000000 0.883567 0.899090
v 0.175404 0.883567 0.881814
v 0.344067 0.883567 0.830651
v 0.499507 0.883567 0.747566
v 0.635752 0.883567 0.635752
v 0.747566 0.883567 0.499508
v 0.830651 0.883567 0.344067
v 0.881814 0.883567 0.175404
v 0.899090 0.883567 0.000000
v 0.881814 0.883567 -0.175404
v 0.830651 0.883567 -0.344067
v 0.747566 0.883567 -0.499508
v 0.635752 0.883567 -0.635752
v 0.499507 0.883567 -0.747566
v 0.344067 0.883567 -0.830651

# UV coordinates
vt 0.010478 0.642675
vt 0.010471 0.613942
vt 0.303755 0.613964
vt 0.303749 0.642725
vt 0.010488 0.671407
vt 0.303733 0.671488
vt 0.010500 0.700138
vt 0.303710 0.700251
vt 0.010514 0.728868
vt 0.303686 0.729016
vt 0.010525 0.757596
vt 0.303668 0.757782
vt 0.010525 0.786323
vt 0.303665 0.786549
vt 0.010499 0.815048
vt 0.303697 0.815318
vt 0.010421 0.843773
vt 0.303795 0.844086
vt 0.010243 0.872500
vt 0.304014 0.872853
vt 0.010053 0.901216
vt 0.303582 0.901627
vt 0.010163 0.929955
vt 0.303464 0.930382
vt 0.010485 0.038807
vt 0.010603 0.010053
vt 0.303904 0.010480
vt 0.304014 0.039219
vt 0.010053 0.067582
vt 0.303824 0.067935
vt 0.010272 0.096348
vt 0.303646 0.096661
vt 0.010370 0.125117
vt 0.303568 0.125386
vt 0.010401 0.153886
vt 0.303542 0.154112
vt 0.010399 0.182653
vt 0.303542 0.182839
vt 0.010381 0.211419
vt 0.303553 0.211567
vt 0.010357 0.240184
vt 0.303566 0.240297
vt 0.010334 0.268947
vt 0.303579 0.269028
vt 0.010318 0.297710
vt 0.303589 0.297760
vt 0.010312 0.326471
vt 0.303596 0.326493
vt 0.010317 0.355230
vt 0.303600 0.355228
vt 0.010334 0.383987
vt 0.303605 0.383965
vt 0.010360 0.412742
vt 0.303613 0.412704
vt 0.010390 0.441494
vt 0.303628 0.441447
vt 0.010417 0.470243
vt 0.303649 0.470192
vt 0.010439 0.498988
vt 0.303677 0.498941
vt 0.010454 0.527731
vt 0.303707 0.527693
vt 0.010462 0.556470
vt 0.303733 0.556448
vt 0.010466 0.585207
vt 0.303750 0.585205
vt 0.841502 0.714681
vt 0.865404 0.730652
vt 0.885732 0.750980
vt 0.901703 0.774882
vt 0.912704 0.801441
vt 0.918312 0.829636
vt 0.918312 0.858383
vt 0.912704 0.886578
vt 0.901703 0.913137
vt 0.885732 0.937039
vt 0.865404 0.957367
vt 0.841502 0.973338
vt 0.814943 0.984339
vt 0.786748 0.989947
vt 0.758001 0.989947
vt 0.729806 0.984339
vt 0.703247 0.973338
vt 0.679345 0.957367
vt 0.659017 0.937039
vt 0.643046 0.913137
vt 0.632045 0.886578
vt 0.626437 0.858383
vt 0.626437 0.829636
vt 0.632045 0.801441
vt 0.643046 0.774882
vt 0.659017 0.750980
vt 0.679345 0.730652
vt 0.703247 0.714681
vt 0.729806 0.703680
vt 0.758001 0.698072
vt 0.786748 0.698072
vt 0.814943 0.703680
vt 0.700999 0.659646
vt 0.708281 0.646751
vt 0.732180 0.657341
vt 0.727511 0.671575
vt 0.757797 0.662880
vt 0.756103 0.677966
vt 0.783828 0.662739
vt 0.785078 0.677560
vt 0.809669 0.658911
vt 0.813685 0.673075
vt 0.833707 0.648768
vt 0.840408 0.662018
vt 0.856020 0.635247
vt 0.865060 0.646937
vt 0.874972 0.617247
vt 0.886163 0.626888
vt 0.889875 0.595752
vt 0.902759 0.603152
vt 0.900791 0.571920
vt 0.915216 0.576584
vt 0.905429 0.546216
vt 0.920609 0.547811
vt 0.905813 0.520216
vt 0.920609 0.519041
vt 0.902025 0.494397
vt 0.916143 0.490347
vt 0.891503 0.470484
vt 0.904898 0.463851
vt 0.878178 0.448196
vt 0.890395 0.438589
vt 0.859876 0.429616
vt 0.869529 0.418316
vt 0.838835 0.414185
vt 0.846269 0.401345
vt 0.814988 0.403322
vt 0.819557 0.388901
vt 0.789310 0.398757
vt 0.790845 0.383969
vt 0.763284 0.398238
vt 0.762227 0.383465
vt 0.737462 0.402036
vt 0.733480 0.387868
vt 0.713452 0.412230
vt 0.706756 0.398972
vt 0.691113 0.425712
vt 0.682082 0.414017
vt 0.672155 0.443707
vt 0.660961 0.434066
vt 0.657256 0.465206
vt 0.644354 0.457827
vt 0.646367 0.489055
vt 0.631948 0.484507
vt 0.641863 0.514749
vt 0.627068 0.513163
vt 0.641303 0.540811
vt 0.626437 0.541592
vt 0.644926 0.566569
vt 0.629578 0.570881
vt 0.654765 0.590837
vt 0.641616 0.597738
vt 0.668773 0.612931
vt 0.657144 0.622081
vt 0.686780 0.631870
vt 0.677172 0.643096
vt 0.603582 0.139249
vt 0.325544 0.141827
vt 0.325239 0.115994
vt 0.603284 0.113393
vt 0.979431 0.128341
vt 0.979431 0.154187
vt 0.974388 0.179537
vt 0.964497 0.203416
vt 0.950138 0.224906
vt 0.931862 0.243182
vt 0.910371 0.257542
vt 0.886492 0.267433
vt 0.861143 0.272475
vt 0.835296 0.272475
vt 0.809947 0.267433
vt 0.786068 0.257542
vt 0.764577 0.243182
vt 0.746301 0.224906
vt 0.731942 0.203416
vt 0.722051 0.179537
vt 0.717008 0.154187
vt 0.717008 0.128341
vt 0.722051 0.102991
vt 0.731942 0.079112
vt 0.746301 0.057622
vt 0.764577 0.039346
vt 0.786068 0.024986
vt 0.809947 0.015095
vt 0.835296 0.010053
vt 0.861143 0.010053
vt 0.886492 0.015095
vt 0.910371 0.024986
vt 0.931862 0.039346
vt 0.950138 0.057622
vt 0.964497 0.079112
vt 0.974388 0.102991
vt 0.605603 0.632739
vt 0.327458 0.630505
vt 0.327689 0.604822
vt 0.605832 0.606729
vt 0.606317 0.502644
vt 0.328187 0.502124
vt 0.328206 0.476449
vt 0.606331 0.476622
vt 0.603893 0.165118
vt 0.325851 0.167647
vt 0.605330 0.658742
vt 0.327183 0.656196
vt 0.604208 0.191000
vt 0.326156 0.193453
vt 0.605018 0.684732
vt 0.326863 0.681896
vt 0.604518 0.216898
vt 0.326455 0.219245
vt 0.604595 0.710706
vt 0.326512 0.707611
vt 0.604818 0.242811
vt 0.326744 0.245021
vt 0.604217 0.736661
vt 0.326117 0.733344
vt 0.605102 0.268740
vt 0.327019 0.270783
vt 0.603818 0.762599
vt 0.325679 0.759093
vt 0.605365 0.294683
vt 0.327274 0.296530
vt 0.603376 0.788510
vt 0.325198 0.784867
vt 0.605602 0.320641
vt 0.327505 0.322263
vt 0.603017 0.814411
vt 0.324685 0.810651
vt 0.605811 0.346613
vt 0.327708 0.347985
vt 0.602431 0.840272
vt 0.324120 0.836469
vt 0.605988 0.372596
vt 0.327880 0.373694
vt 0.602574 0.035889
vt 0.324252 0.038431
vt 0.324120 0.012576
vt 0.602423 0.010053
vt 0.606261 0.528667
vt 0.328127 0.527798
vt 0.606130 0.398591
vt 0.328019 0.399394
vt 0.602777 0.061714
vt 0.324614 0.064296
vt 0.606162 0.554690
vt 0.328024 0.553470
vt 0.606236 0.424594
vt 0.328120 0.425086
vt 0.603010 0.087549
vt 0.324934 0.090150
vt 0.606019 0.580711
vt 0.327878 0.579144
vt 0.606303 0.450605
vt 0.328183 0.450770
vt 0.667544 0.186703
vt 0.661746 0.186703
vt 0.661708 0.128992
vt 0.667484 0.128986
vt 0.673248 0.186703
vt 0.673223 0.128999
vt 0.678961 0.186671
vt 0.678853 0.128994
vt 0.684674 0.186629
vt 0.684552 0.128952
vt 0.690431 0.186601
vt 0.690300 0.128918
vt 0.696230 0.186589
vt 0.696079 0.128895
vt 0.632959 0.186798
vt 0.627159 0.186808
vt 0.627179 0.129042
vt 0.632978 0.129053
vt 0.638768 0.186792
vt 0.638726 0.129077
vt 0.644480 0.186751
vt 0.644496 0.129069
vt 0.650192 0.186719
vt 0.650193 0.129026
vt 0.655947 0.186703
vt 0.655931 0.129000
vt 0.661609 0.071000
vt 0.667281 0.071024
vt 0.672939 0.071159
vt 0.678582 0.071348
vt 0.684226 0.071486
vt 0.689947 0.071616
vt 0.695746 0.071712
vt 0.627501 0.071727
vt 0.633301 0.071639
vt 0.638998 0.071502
vt 0.644610 0.071343
vt 0.650257 0.071159
vt 0.655917 0.071027
vt 0.661736 0.010053
vt 0.667842 0.010536
vt 0.673848 0.011761
vt 0.679693 0.013478
vt 0.685383 0.015290
vt 0.691101 0.016690
vt 0.696902 0.017313
vt 0.626437 0.017173
vt 0.632239 0.016564
vt 0.638007 0.015190
vt 0.643769 0.013425
vt 0.649619 0.011725
vt 0.655629 0.010518
vt 0.667715 0.362893
vt 0.661609 0.363359
vt 0.661735 0.302400
vt 0.667409 0.302382
vt 0.673723 0.361685
vt 0.673071 0.302252
vt 0.679572 0.359985
vt 0.678719 0.302070
vt 0.685333 0.358220
vt 0.684332 0.301912
vt 0.691100 0.356846
vt 0.690031 0.301779
vt 0.696902 0.356236
vt 0.695831 0.301695
vt 0.632252 0.356715
vt 0.626451 0.356089
vt 0.627641 0.301700
vt 0.633440 0.301797
vt 0.637969 0.358118
vt 0.639161 0.301928
vt 0.643657 0.359932
vt 0.644806 0.302068
vt 0.649500 0.361652
vt 0.650449 0.302257
vt 0.655505 0.362877
vt 0.656061 0.302375
vt 0.661655 0.244409
vt 0.667449 0.244407
vt 0.673184 0.244389
vt 0.678880 0.244351
vt 0.684648 0.244348
vt 0.690448 0.244354
vt 0.696247 0.244367
vt 0.627291 0.244520
vt 0.633070 0.244497
vt 0.638817 0.244463
vt 0.644516 0.244424
vt 0.650146 0.244422
vt 0.655880 0.244408
vt 0.937323 0.392720
vt 0.927436 0.393694
vt 0.917548 0.392720
vt 0.908041 0.389836
vt 0.899278 0.385152
vt 0.891598 0.378849
vt 0.885295 0.371169
vt 0.880612 0.362407
vt 0.877727 0.352899
vt 0.876754 0.343012
vt 0.877727 0.333124
vt 0.880612 0.323617
vt 0.885295 0.314854
vt 0.891598 0.307174
vt 0.899278 0.300871
vt 0.908041 0.296188
vt 0.917548 0.293303
vt 0.927436 0.292330
vt 0.937323 0.293303
vt 0.946831 0.296188
vt 0.955593 0.300871
vt 0.963273 0.307174
vt 0.969576 0.314854
vt 0.974260 0.323617
vt 0.977144 0.333124
vt 0.978118 0.343012
vt 0.977144 0.352899
vt 0.974260 0.362407
vt 0.969576 0.371169
vt 0.963273 0.378849
vt 0.955593 0.385152
vt 0.946831 0.389836

# vertex normals
vn 0.195097 0.000000 -0.980784
vn -0.000000 -0.000000 -1.000000
vn 0.382690 0.000000 -0.923877
vn 0.555577 0.000000 -0.831465
vn 0.707107 0.000000 -0.707107
vn 0.831465 0.000000 -0.555577
vn 0.923877 0.000000 -0.382690
vn 0.980784 0.000000 -0.195097
vn 1.000000 0.000000 0.000000
vn 0.980784 0.000000 0.195097
vn 0.923877 0.000000 0.382690
vn 0.831465 0.000000 0.555577
vn 0.707107 0.000000 0.707107
vn 0.555577 0.000000 0.831465
vn 0.382690 0.000000 0.923877
vn 0.195097 0.000000 0.980784
vn 0.000000 0.000000 1.000000
vn -0.195097 0.000000 0.980784
vn -0.382690 0.000000 0.923877
vn -0.555577 0.000000 0.831465
vn -0.707107 0.000000 0.707107
vn -0.831465 0.000000 0.555577
vn -0.923877 0.000000 0.382690
vn -0.980784 0.000000 0.195097
vn -1.000000 -0.000000 -0.000000
vn -0.980784 -0.000000 -0.195097
vn -0.923877 -0.000000 -0.382690
vn -0.831465 -0.000000 -0.555577
vn -0.707107 -0.000000 -0.707107
vn -0.555577 -0.000000 -0.831465
vn -0.382690 -0.000000 -0.923877
vn -0.195097 -0.000000 -0.980784
vn -0.000000 -1.000000 -0.000000
vn 0.000000 1.000000 0.000000
vn 0.876005 0.000000 -0.482303
vn 0.866019 -0.500011 0.000000
vn 0.758626 -0.438015 -0.482317
vn 0.530916 0.000000 -0.847425
vn 0.459802 -0.265501 -0.847403
vn 0.043099 0.000000 -0.999071
vn 0.037299 -0.021499 -0.999073
vn -0.466389 -0.000000 -0.884580
vn -0.403893 0.233196 -0.884585
vn -0.854523 -0.000000 -0.519414
vn -0.740014 0.427308 -0.519410
vn -0.866019 0.500011 0.000000
vn -0.854523 0.000000 0.519414
vn -0.740014 0.427308 0.519410
vn -0.466389 0.000000 0.884580
vn -0.403893 0.233196 0.884585
vn 0.043099 0.000000 0.999071
vn 0.037299 -0.021499 0.999073
vn 0.530916 0.000000 0.847425
vn 0.459802 -0.265501 0.847403
vn 0.876005 0.000000 0.482303
vn 0.758626 -0.438015 0.482317
vn 0.500011 -0.866019 0.000000
vn 0.438015 -0.758626 -0.482317
vn 0.265501 -0.459802 -0.847403
vn 0.021499 -0.037299 -0.999073
vn -0.233196 0.403893 -0.884585
vn -0.427308 0.740014 -0.519410
vn -0.500011 0.866019 0.000000
vn -0.427308 0.740014 0.519410
vn -0.233196 0.403893 0.884585
vn 0.021499 -0.037299 0.999073
vn 0.265501 -0.459802 0.847403
vn 0.438015 -0.758626 0.482317
vn 0.258808 -0.965929 0.000000
vn 0.228500 -0.852798 -0.469599
vn 0.140800 -0.525600 -0.839000
vn 0.011500 -0.043100 -0.999005
vn -0.123994 0.462779 -0.877759
vn -0.223213 0.832950 -0.506330
vn -0.258808 0.965929 0.000000
vn -0.223213 0.832950 0.506330
vn -0.123994 0.462779 0.877759
vn 0.011500 -0.043100 0.999005
vn 0.140800 -0.525600 0.839000
vn 0.228500 -0.852798 0.469599
vn 0.228500 0.852798 -0.469599
vn 0.258808 0.965929 0.000000
vn 0.500011 0.866019 0.000000
vn 0.438015 0.758626 -0.482317
vn 0.140800 0.525600 -0.839000
vn 0.265501 0.459802 -0.847403
vn 0.011500 0.043100 -0.999005
vn 0.021499 0.037299 -0.999073
vn -0.123994 -0.462779 -0.877759
vn -0.233196 -0.403893 -0.884585
vn -0.223213 -0.832950 -0.506330
vn -0.427308 -0.740014 -0.519410
vn -0.258808 -0.965929 -0.000000
vn -0.500011 -0.866019 -0.000000
vn -0.223213 -0.832950 0.506330
vn -0.427308 -0.740014 0.519410
vn -0.123994 -0.462779 0.877759
vn -0.233196 -0.403893 0.884585
vn 0.011500 0.043100 0.999005
vn 0.021499 0.037299 0.999073
vn 0.140800 0.525600 0.839000
vn 0.265501 0.459802 0.847403
vn 0.228500 0.852798 0.469599
vn 0.438015 0.758626 0.482317
vn 0.866019 0.500011 0.000000
vn 0.758626 0.438015 -0.482317
vn 0.459802 0.265501 -0.847403
vn 0.037299 0.021499 -0.999073
vn -0.403893 -0.233196 -0.884585
vn -0.740014 -0.427308 -0.519410
vn -0.866019 -0.500011 -0.000000
vn -0.740014 -0.427308 0.519410
vn -0.403893 -0.233196 0.884585
vn 0.037299 0.021499 0.999073
vn 0.459802 0.265501 0.847403
vn 0.758626 0.438015 0.482317

# Mesh
g Cylinder
usemtl DefaultMaterial
f 1/1/1 2/2/2 3/3/2
f 3/3/2 4/4/1 1/1/1
f 5/5/3 1/1/1 4/4/1
f 4/4/1 6/6/3 5/5/3
f 7/7/4 5/5/3 6/6/3
f 6/6/3 8/8/4 7/7/4
f 9/9/5 7/7/4 8/8/4
f 8/8/4 10/10/5 9/9/5
f 11/11/6 9/9/5 10/10/5
f 10/10/5 12/12/6 11/11/6
f 13/13/7 11/11/6 12/12/6
f 12/12/6 14/14/7 13/13/7
f 15/15/8 13/13/7 14/14/7
f 14/14/7 16/16/8 15/15/8
f 17/17/9 15/15/8 16/16/8
f 16/16/8 18/18/9 17/17/9
f 19/19/10 17/17/9 18/18/9
f 18/18/9 20/20/10 19/19/10
f 21/21/11 19/19/10 20/20/10
f 20/20/10 22/22/11 21/21/11
f 23/23/12 21/21/11 22/22/11
f 22/22/11 24/24/12 23/23/12
f 25/25/13 23/26/12 24/27/12
f 24/27/12 26/28/13 25/25/13
f 27/29/14 25/25/13 26/28/13
f 26/28/13 28/30/14 27/29/14
f 29/31/15 27/29/14 28/30/14
f 28/30/14 30/32/15 29/31/15
f 31/33/16 29/31/15 30/32/15
f 30/32/15 32/34/16 31/33/16
f 33/35/17 31/33/16 32/34/16
f 32/34/16 34/36/17 33/35/17
f 35/37/18 33/35/17 34/36/17
f 34/36/17 36/38/18 35/37/18
f 37/39/19 35/37/18 36/38/18
f 36/38/18 38/40/19 37/39/19
f 39/41/20 37/39/19 38/40/19
f 38/40/19 40/42/20 39/41/20
f 41/43/21 39/41/20 40/42/20
f 40/42/20 42/44/21 41/43/21
f 43/45/22 41/43/21 42/44/21
f 42/44/21 44/46/22 43/45/22
f 45/47/23 43/45/22 44/46/22
f 44/46/22 46/48/23 45/47/23
f 47/49/24 45/47/23 46/48/23
f 46/48/23 48/50/24 47/49/24
f 49/51/25 47/49/24 48/50/24
f 48/50/24 50/52/25 49/51/25
f 51/53/26 49/51/25 50/52/25
f 50/52/25 52/54/26 51/53/26
f 53/55/27 51/53/26 52/54/26
f 52/54/26 54/56/27 53/55/27
f 55/57/28 53/55/27 54/56/27
f 54/56/27 56/58/28 55/57/28
f 57/59/29 55/57/28 56/58/28
f 56/58/28 58/60/29 57/59/29
f 59/61/30 57/59/29 58/60/29
f 58/60/29 60/62/30 59/61/30
f 61/63/31 59/61/30 60/62/30
f 60/62/30 62/64/31 61/63/31
f 63/65/32 61/63/31 62/64/31
f 62/64/31 64/66/32 63/65/32
f 2/2/2 63/65/32 64/66/32
f 64/66/32 3/3/2 2/2/2
f 63/67/33 2/68/33 1/69/33
f 63/67/33 1/69/33 5/70/33
f 63/67/33 5/70/33 7/71/33
f 63/67/33 7/71/33 9/72/33
f 63/67/33 9/72/33 11/73/33
f 63/67/33 11/73/33 13/74/33
f 63/67/33 13/74/33 15/75/33
f 63/67/33 15/75/33 17/76/33
f 63/67/33 17/76/33 19/77/33
f 63/67/33 19/77/33 21/78/33
f 63/67/33 21/78/33 23/79/33
f 63/67/33 23/79/33 25/80/33
f 63/67/33 25/80/33 27/81/33
f 63/67/33 27/81/33 29/82/33
f 63/67/33 29/82/33 31/83/33
f 63/67/33 31/83/33 33/84/33
f 63/67/33 33/84/33 35/85/33
f 63/67/33 35/85/33 37/86/33
f 63/67/33 37/86/33 39/87/33
f 63/67/33 39/87/33 41/88/33
f 63/67/33 41/88/33 43/89/33
f 63/67/33 43/89/33 45/90/33
f 63/67/33 45/90/33 47/91/33
f 63/67/33 47/91/33 49/92/33
f 63/67/33 49/92/33 51/93/33
f 63/67/33 51/93/33 53/94/33
f 63/67/33 53/94/33 55/95/33
f 63/67/33 55/95/33 57/96/33
f 63/67/33 57/96/33 59/97/33
f 59/97/33 61/98/33 63/67/33
f 3/99/34 65/100/34 66/101/34
f 66/101/34 4/102/34 3/99/34
f 4/102/34 66/101/34 67/103/34
f 67/103/34 6/104/34 4/102/34
f 6/104/34 67/103/34 68/105/34
f 68/105/34 8/106/34 6/104/34
f 8/106/34 68/105/34 69/107/34
f 69/107/34 10/108/34 8/106/34
f 10/108/34 69/107/34 70/109/34
f 70/109/34 12/110/34 10/108/34
f 12/110/34 70/109/34 71/111/34
f 71/111/34 14/112/34 12/110/34
f 14/112/34 71/111/34 72/113/34
f 72/113/34 16/114/34 14/112/34
f 16/114/34 72/113/34 73/115/34
f 73/115/34 18/116/34 16/114/34
f 18/116/34 73/115/34 74/117/34
f 74/117/34 20/118/34 18/116/34
f 20/118/34 74/117/34 75/119/34
f 75/119/34 22/120/34 20/118/34
f 22/120/34 75/119/34 76/121/34
f 76/121/34 24/122/34 22/120/34
f 24/122/34 76/121/34 77/123/34
f 77/123/34 26/124/34 24/122/34
f 26/124/34 77/123/34 78/125/34
f 78/125/34 28/126/34 26/124/34
f 28/126/34 78/125/34 79/127/34
f 79/127/34 30/128/34 28/126/34
f 30/128/34 79/127/34 80/129/34
f 80/129/34 32/130/34 30/128/34
f 32/130/34 80/129/34 81/131/34
f 81/131/34 34/132/34 32/130/34
f 34/132/34 81/131/34 82/133/34
f 82/133/34 36/134/34 34/132/34
f 36/134/34 82/133/34 83/135/34
f 83/135/34 38/136/34 36/134/34
f 38/136/34 83/135/34 84/137/34
f 84/137/34 40/138/34 38/136/34
f 40/138/34 84/137/34 85/139/34
f 85/139/34 42/140/34 40/138/34
f 42/140/34 85/139/34 86/141/34
f 86/141/34 44/142/34 42/140/34
f 44/142/34 86/141/34 87/143/34
f 87/143/34 46/144/34 44/142/34
f 46/144/34 87/143/34 88/145/34
f 88/145/34 48/146/34 46/144/34
f 48/146/34 88/145/34 89/147/34
f 89/147/34 50/148/34 48/146/34
f 50/148/34 89/147/34 90/149/34
f 90/149/34 52/150/34 50/148/34
f 52/150/34 90/149/34 91/151/34
f 91/151/34 54/152/34 52/150/34
f 54/152/34 91/151/34 92/153/34
f 92/153/34 56/154/34 54/152/34
f 56/154/34 92/153/34 93/155/34
f 93/155/34 58/156/34 56/154/34
f 58/156/34 93/155/34 94/157/34
f 94/157/34 60/158/34 58/156/34
f 60/158/34 94/157/34 95/159/34
f 95/159/34 62/160/34 60/158/34
f 62/160/34 95/159/34 96/161/34
f 96/161/34 64/162/34 62/160/34
f 64/162/34 96/161/34 65/100/34
f 65/100/34 3/99/34 64/162/34
f 97/163/3 83/164/3 82/165/1
f 82/165/1 98/166/1 97/163/3
f 99/167/34 100/168/34 101/169/34
f 99/167/34 101/169/34 102/170/34
f 99/167/34 102/170/34 103/171/34
f 99/167/34 103/171/34 104/172/34
f 99/167/34 104/172/34 105/173/34
f 99/167/34 105/173/34 106/174/34
f 99/167/34 106/174/34 107/175/34
f 99/167/34 107/175/34 108/176/34
f 99/167/34 108/176/34 109/177/34
f 99/167/34 109/177/34 110/178/34
f 99/167/34 110/178/34 111/179/34
f 99/167/34 111/179/34 112/180/34
f 99/167/34 112/180/34 113/181/34
f 99/167/34 113/181/34 114/182/34
f 99/167/34 114/182/34 97/183/34
f 99/167/34 97/183/34 98/184/34
f 99/167/34 98/184/34 115/185/34
f 99/167/34 115/185/34 116/186/34
f 99/167/34 116/186/34 117/187/34
f 99/167/34 117/187/34 118/188/34
f 99/167/34 118/188/34 119/189/34
f 99/167/34 119/189/34 120/190/34
f 99/167/34 120/190/34 121/191/34
f 99/167/34 121/191/34 122/192/34
f 99/167/34 122/192/34 123/193/34
f 99/167/34 123/193/34 124/194/34
f 99/167/34 124/194/34 125/195/34
f 99/167/34 125/195/34 126/196/34
f 99/167/34 126/196/34 127/197/34
f 127/197/34 128/198/34 99/167/34
f 126/199/22 70/200/22 69/201/21
f 69/201/21 127/202/21 126/199/22
f 101/203/17 65/204/17 96/205/16
f 96/205/16 102/206/16 101/203/17
f 114/207/4 84/208/4 83/164/3
f 83/164/3 97/163/3 114/207/4
f 125/209/23 71/210/23 70/200/22
f 70/200/22 126/199/22 125/209/23
f 113/211/5 85/212/5 84/208/4
f 84/208/4 114/207/4 113/211/5
f 124/213/24 72/214/24 71/210/23
f 71/210/23 125/209/23 124/213/24
f 112/215/6 86/216/6 85/212/5
f 85/212/5 113/211/5 112/215/6
f 123/217/25 73/218/25 72/214/24
f 72/214/24 124/213/24 123/217/25
f 111/219/7 87/220/7 86/216/6
f 86/216/6 112/215/6 111/219/7
f 122/221/26 74/222/26 73/218/25
f 73/218/25 123/217/25 122/221/26
f 110/223/8 88/224/8 87/220/7
f 87/220/7 111/219/7 110/223/8
f 121/225/27 75/226/27 74/222/26
f 74/222/26 122/221/26 121/225/27
f 109/227/9 89/228/9 88/224/8
f 88/224/8 110/223/8 109/227/9
f 120/229/28 76/230/28 75/226/27
f 75/226/27 121/225/27 120/229/28
f 108/231/10 90/232/10 89/228/9
f 89/228/9 109/227/9 108/231/10
f 119/233/29 77/234/29 76/230/28
f 76/230/28 120/229/28 119/233/29
f 107/235/11 91/236/11 90/232/10
f 90/232/10 108/231/10 107/235/11
f 118/237/30 78/238/30 77/234/29
f 77/234/29 119/233/29 118/237/30
f 106/239/12 92/240/12 91/236/11
f 91/236/11 107/235/11 106/239/12
f 117/241/31 79/242/31 78/243/30
f 78/243/30 118/244/30 117/241/31
f 100/245/18 66/246/18 65/204/17
f 65/204/17 101/203/17 100/245/18
f 105/247/13 93/248/13 92/240/12
f 92/240/12 106/239/12 105/247/13
f 116/249/32 80/250/32 79/242/31
f 79/242/31 117/241/31 116/249/32
f 99/251/19 67/252/19 66/246/18
f 66/246/18 100/245/18 99/251/19
f 104/253/14 94/254/14 93/248/13
f 93/248/13 105/247/13 104/253/14
f 115/255/2 81/256/2 80/250/32
f 80/250/32 116/249/32 115/255/2
f 128/257/20 68/258/20 67/252/19
f 67/252/19 99/251/19 128/257/20
f 103/259/15 95/260/15 94/254/14
f 94/254/14 104/253/14 103/259/15
f 98/166/1 82/165/1 81/256/2
f 81/256/2 115/255/2 98/166/1
f 127/202/21 69/201/21 68/258/20
f 68/258/20 128/257/20 127/202/21
f 102/206/16 96/205/16 95/260/15
f 95/260/15 103/259/15 102/206/16
f 129/261/35 130/262/9 131/263/36
f 131/263/36 132/264/37 129/261/35
f 133/265/38 129/261/35 132/264/37
f 132/264/37 134/266/39 133/265/38
f 135/267/40 133/265/38 134/266/39
f 134/266/39 136/268/41 135/267/40
f 137/269/42 135/267/40 136/268/41
f 136/268/41 138/270/43 137/269/42
f 139/271/44 137/269/42 138/270/43
f 138/270/43 140/272/45 139/271/44
f 141/273/25 139/271/44 140/272/45
f 140/272/45 142/274/46 141/273/25
f 143/275/47 141/276/25 142/277/46
f 142/277/46 144/278/48 143/275/47
f 145/279/49 143/275/47 144/278/48
f 144/278/48 146/280/50 145/279/49
f 147/281/51 145/279/49 146/280/50
f 146/280/50 148/282/52 147/281/51
f 149/283/53 147/281/51 148/282/52
f 148/282/52 150/284/54 149/283/53
f 151/285/55 149/283/53 150/284/54
f 150/284/54 152/286/56 151/285/55
f 130/262/9 151/285/55 152/286/56
f 152/286/56 131/263/36 130/262/9
f 132/264/37 131/263/36 153/287/57
f 153/287/57 154/288/58 132/264/37
f 134/266/39 132/264/37 154/288/58
f 154/288/58 155/289/59 134/266/39
f 136/268/41 134/266/39 155/289/59
f 155/289/59 156/290/60 136/268/41
f 138/270/43 136/268/41 156/290/60
f 156/290/60 157/291/61 138/270/43
f 140/272/45 138/270/43 157/291/61
f 157/291/61 158/292/62 140/272/45
f 142/274/46 140/272/45 158/292/62
f 158/292/62 159/293/63 142/274/46
f 144/278/48 142/277/46 159/294/63
f 159/294/63 160/295/64 144/278/48
f 146/280/50 144/278/48 160/295/64
f 160/295/64 161/296/65 146/280/50
f 148/282/52 146/280/50 161/296/65
f 161/296/65 162/297/66 148/282/52
f 150/284/54 148/282/52 162/297/66
f 162/297/66 163/298/67 150/284/54
f 152/286/56 150/284/54 163/298/67
f 163/298/67 164/299/68 152/286/56
f 131/263/36 152/286/56 164/299/68
f 164/299/68 153/287/57 131/263/36
f 154/288/58 153/287/57 165/300/69
f 165/300/69 166/301/70 154/288/58
f 155/289/59 154/288/58 166/301/70
f 166/301/70 167/302/71 155/289/59
f 156/290/60 155/289/59 167/302/71
f 167/302/71 168/303/72 156/290/60
f 157/291/61 156/290/60 168/303/72
f 168/303/72 169/304/73 157/291/61
f 158/292/62 157/291/61 169/304/73
f 169/304/73 170/305/74 158/292/62
f 159/293/63 158/292/62 170/305/74
f 170/305/74 171/306/75 159/293/63
f 160/295/64 159/294/63 171/307/75
f 171/307/75 172/308/76 160/295/64
f 161/296/65 160/295/64 172/308/76
f 172/308/76 173/309/77 161/296/65
f 162/297/66 161/296/65 173/309/77
f 173/309/77 174/310/78 162/297/66
f 163/298/67 162/297/66 174/310/78
f 174/310/78 175/311/79 163/298/67
f 164/299/68 163/298/67 175/311/79
f 175/311/79 176/312/80 164/299/68
f 153/287/57 164/299/68 176/312/80
f 176/312/80 165/300/69 153/287/57
f 177/313/81 178/314/82 179/315/83
f 179/315/83 180/316/84 177/313/81
f 181/317/85 177/313/81 180/316/84
f 180/316/84 182/318/86 181/317/85
f 183/319/87 181/317/85 182/318/86
f 182/318/86 184/320/88 183/319/87
f 185/321/89 183/319/87 184/320/88
f 184/320/88 186/322/90 185/321/89
f 187/323/91 185/321/89 186/322/90
f 186/322/90 188/324/92 187/323/91
f 189/325/93 187/323/91 188/324/92
f 188/324/92 190/326/94 189/325/93
f 191/327/95 189/328/93 190/329/94
f 190/329/94 192/330/96 191/327/95
f 193/331/97 191/327/95 192/330/96
f 192/330/96 194/332/98 193/331/97
f 195/333/99 193/331/97 194/332/98
f 194/332/98 196/334/100 195/333/99
f 197/335/101 195/333/99 196/334/100
f 196/334/100 198/336/102 197/335/101
f 199/337/103 197/335/101 198/336/102
f 198/336/102 200/338/104 199/337/103
f 178/314/82 199/337/103 200/338/104
f 200/338/104 179/315/83 178/314/82
f 180/316/84 179/315/83 201/339/105
f 201/339/105 202/340/106 180/316/84
f 182/318/86 180/316/84 202/340/106
f 202/340/106 203/341/107 182/318/86
f 184/320/88 182/318/86 203/341/107
f 203/341/107 204/342/108 184/320/88
f 186/322/90 184/320/88 204/342/108
f 204/342/108 205/343/109 186/322/90
f 188/324/92 186/322/90 205/343/109
f 205/343/109 206/344/110 188/324/92
f 190/326/94 188/324/92 206/344/110
f 206/344/110 207/345/111 190/326/94
f 192/330/96 190/329/94 207/346/111
f 207/346/111 208/347/112 192/330/96
f 194/332/98 192/330/96 208/347/112
f 208/347/112 209/348/113 194/332/98
f 196/334/100 194/332/98 209/348/113
f 209/348/113 210/349/114 196/334/100
f 198/336/102 196/334/100 210/349/114
f 210/349/114 211/350/115 198/336/102
f 200/338/104 198/336/102 211/350/115
f 211/350/115 212/351/116 200/338/104
f 179/315/83 200/338/104 212/351/116
f 212/351/116 201/339/105 179/315/83
f 202/340/106 201/339/105 130/262/9
f 130/262/9 129/261/35 202/340/106
f 203/341/107 202/340/106 129/261/35
f 129/261/35 133/265/38 203/341/107
f 204/342/108 203/341/107 133/265/38
f 133/265/38 135/267/40 204/342/108
f 205/343/109 204/342/108 135/267/40
f 135/267/40 137/269/42 205/343/109
f 206/344/110 205/343/109 137/269/42
f 137/269/42 139/271/44 206/344/110
f 207/345/111 206/344/110 139/271/44
f 139/271/44 141/273/25 207/345/111
f 208/347/112 207/346/111 141/276/25
f 141/276/25 143/275/47 208/347/112
f 209/348/113 208/347/112 143/275/47
f 143/275/47 145/279/49 209/348/113
f 210/349/114 209/348/113 145/279/49
f 145/279/49 147/281/51 210/349/114
f 211/350/115 210/349/114 147/281/51
f 147/281/51 149/283/53 211/350/115
f 212/351/116 211/350/115 149/283/53
f 149/283/53 151/285/55 212/351/116
f 201/339/105 212/351/116 151/285/55
f 151/285/55 130/262/9 201/339/105

# Mesh
g Cylinder.001
usemtl DefaultMaterial
f 244/383/34 213/352/34 214/353/34
f 244/383/34 214/353/34 215/354/34
f 244/383/34 215/354/34 216/355/34
f 244/383/34 216/355/34 217/356/34
f 244/383/34 217/356/34 218/357/34
f 244/383/34 218/357/34 219/358/34
f 244/383/34 219/358/34 220/359/34
f 244/383/34 220/359/34 221/360/34
f 244/383/34 221/360/34 222/361/34
f 244/383/34 222/361/34 223/362/34
f 244/383/34 223/362/34 224/363/34
f 244/383/34 224/363/34 225/364/34
f 244/383/34 225/364/34 226/365/34
f 244/383/34 226/365/34 227/366/34
f 244/383/34 227/366/34 228/367/34
f 244/383/34 228/367/34 229/368/34
f 244/383/34 229/368/34 230/369/34
f 244/383/34 230/369/34 231/370/34
f 244/383/34 231/370/34 232/371/34
f 244/383/34 232/371/34 233/372/34
f 244/383/34 233/372/34 234/373/34
f 244/383/34 234/373/34 235/374/34
f 244/383/34 235/374/34 236/375/34
f 244/383/34 236/375/34 237/376/34
f 244/383/34 237/376/34 238/377/34
f 244/383/34 238/377/34 239/378/34
f 244/383/34 239/378/34 240/379/34
f 244/383/34 240/379/34 241/380/34
f 244/383/34 241/380/34 242/381/34
f 242/381/34 243/382/34 244/383/34
