# File produced by Open Asset Import Library (http://www.assimp.sf.net)
# (assimp v3.1.172307092)

mtllib table.mtl

# vertex positions
v 3.000000 1.000000 -3.000000
v 3.000000 1.000000 3.000000
v -3.000000 1.000000 3.000000
v -3.000000 1.000000 -3.000000
v -3.000000 -6.000000 4.000000
v -3.000000 1.000000 4.000000
v -4.000000 1.000000 4.000000
v -4.000000 -6.000000 4.000000
v -4.000000 1.000000 3.000000
v -4.000000 -6.000000 3.000000
v -3.000000 -6.000000 3.000000
v 4.000000 1.000000 -3.000000
v 4.000000 1.000000 3.000000
v -3.000000 -6.000000 -3.000000
v -4.000000 1.000000 -3.000000
v -4.000000 -6.000000 -3.000000
v -4.000000 1.000000 -4.000000
v -4.000000 -6.000000 -4.000000
v -3.000000 -6.000000 -4.000000
v -3.000000 1.000000 -4.000000
v 4.000000 -6.000000 -3.000000
v 3.000000 -6.000000 -3.000000
v 3.000000 1.000000 -4.000000
v 3.000000 -6.000000 -4.000000
v 4.000000 -6.000000 -4.000000
v 4.000000 1.000000 -4.000000
v 3.000000 1.000000 4.000000
v 4.000000 -6.000000 4.000000
v 4.000000 1.000000 4.000000
v 3.000000 -6.000000 4.000000
v 3.000000 -6.000000 3.000000
v 4.000000 -6.000000 3.000000
v 3.000000 1.000000 -5.000000
v 3.000000 2.000000 -5.000000
v 5.000000 2.000000 -5.000000
v 5.000000 1.000000 -5.000000
v 5.000000 1.000000 5.000000
v 5.000000 2.000000 5.000000
v 3.000000 2.000000 5.000000
v 3.000000 1.000000 5.000000
v -5.000000 1.000000 -3.000000
v -5.000000 2.000000 -3.000000
v -5.000000 2.000000 -5.000000
v -5.000000 1.000000 -5.000000
v -3.000000 2.000000 -5.000000
v -3.000000 1.000000 -5.000000
v -3.000000 1.000000 5.000000
v -3.000000 2.000000 5.000000
v -5.000000 2.000000 5.000000
v -5.000000 1.000000 5.000000
v 5.000000 1.000000 3.000000
v 5.000000 2.000000 3.000000
v -5.000000 2.000000 3.000000
v -5.000000 1.000000 3.000000
v 5.000000 1.000000 -3.000000
v 5.000000 2.000000 -3.000000
v -3.000000 2.000000 3.000000
v -4.000000 2.000000 3.000000
v -4.000000 2.000000 4.000000
v -3.000000 2.000000 4.000000
v -3.000000 2.000000 -4.000000
v -4.000000 2.000000 -4.000000
v -4.000000 2.000000 -3.000000
v -3.000000 2.000000 -3.000000
v 4.000000 2.000000 -4.000000
v 3.000000 2.000000 -4.000000
v 3.000000 2.000000 -3.000000
v 4.000000 2.000000 -3.000000
v 4.000000 2.000000 3.000000
v 3.000000 2.000000 3.000000
v 3.000000 2.000000 4.000000
v 4.000000 2.000000 4.000000

# UV coordinates
vt 0.293359 0.293359
vt 0.073340 0.293359
vt 0.073340 0.073340
vt 0.293359 0.073340
vt 0.814437 0.370368
vt 0.814437 0.627056
vt 0.777767 0.627056
vt 0.777767 0.370368
vt 0.925546 0.370368
vt 0.925546 0.627056
vt 0.888876 0.627056
vt 0.888876 0.370368
vt 0.666291 0.740733
vt 0.666291 0.777402
vt 0.629621 0.777402
vt 0.629621 0.740733
vt 0.184816 0.740733
vt 0.184816 0.997421
vt 0.148146 0.997421
vt 0.148146 0.740733
vt 0.999619 0.370368
vt 0.999619 0.627056
vt 0.962950 0.627056
vt 0.962950 0.370368
vt 0.293359 0.330028
vt 0.073340 0.330028
vt 0.147779 0.740733
vt 0.147779 0.997421
vt 0.111110 0.997421
vt 0.111110 0.740733
vt 0.295926 0.740733
vt 0.295926 0.997421
vt 0.259256 0.997421
vt 0.259256 0.740733
vt 0.407035 0.740733
vt 0.407035 0.777402
vt 0.370365 0.777402
vt 0.370365 0.740733
vt 0.258889 0.740733
vt 0.258889 0.997421
vt 0.222219 0.997421
vt 0.222219 0.740733
vt 0.851473 0.370368
vt 0.851473 0.627056
vt 0.814803 0.627056
vt 0.814803 0.370368
vt 0.073340 0.036670
vt 0.293359 0.036670
vt 0.221853 0.740733
vt 0.221853 0.997421
vt 0.185183 0.997421
vt 0.185183 0.740733
vt 0.036670 0.740733
vt 0.036670 0.997421
vt 0.000000 0.997421
vt 0.000000 0.740733
vt 0.518145 0.740733
vt 0.518145 0.777402
vt 0.481475 0.777402
vt 0.481475 0.740733
vt 0.073706 0.740733
vt 0.073706 0.997421
vt 0.037037 0.997421
vt 0.037037 0.740733
vt 0.369999 0.740733
vt 0.369999 0.997421
vt 0.333329 0.997421
vt 0.333329 0.740733
vt 0.036670 0.073340
vt 0.036670 0.293359
vt 0.888510 0.370368
vt 0.888510 0.627056
vt 0.851840 0.627056
vt 0.851840 0.370368
vt 0.332962 0.740733
vt 0.332962 0.997421
vt 0.296292 0.997421
vt 0.296292 0.740733
vt 0.481108 0.740733
vt 0.481108 0.777402
vt 0.444438 0.777402
vt 0.444438 0.740733
vt 0.110743 0.740733
vt 0.110743 0.997421
vt 0.074073 0.997421
vt 0.074073 0.740733
vt 0.962583 0.370368
vt 0.962583 0.627056
vt 0.925913 0.627056
vt 0.925913 0.370368
vt 0.330028 0.073340
vt 0.330028 0.293358
vt 0.518511 0.777402
vt 0.518511 0.740733
vt 0.555181 0.740733
vt 0.555181 0.777402
vt 0.592584 0.777402
vt 0.592584 0.740733
vt 0.629254 0.740733
vt 0.629254 0.777402
vt 0.555548 0.740733
vt 0.592218 0.740733
vt 0.592218 0.777402
vt 0.555548 0.777402
vt 0.407402 0.777402
vt 0.407402 0.740733
vt 0.444072 0.740733
vt 0.444072 0.777402
vt 0.740731 0.293359
vt 0.777400 0.293359
vt 0.777400 0.366698
vt 0.740731 0.366698
vt 0.407035 0.737066
vt 0.370365 0.737066
vt 0.370365 0.663726
vt 0.407035 0.663726
vt 0.293358 0.407038
vt 0.293358 0.370368
vt 0.366698 0.370368
vt 0.366698 0.407038
vt 0.740731 0.000000
vt 0.777400 0.000000
vt 0.777400 0.073340
vt 0.740731 0.073340
vt 0.407035 0.443707
vt 0.370365 0.443707
vt 0.370365 0.370368
vt 0.407035 0.370368
vt 0.480741 0.370368
vt 0.480741 0.407038
vt 0.407402 0.407038
vt 0.407402 0.370368
vt 0.000000 0.407038
vt 0.000000 0.370368
vt 0.073340 0.370368
vt 0.073340 0.407038
vt 0.700760 0.370368
vt 0.700760 0.407038
vt 0.774100 0.370368
vt 0.774100 0.407038
vt 0.663723 0.073341
vt 0.663723 0.036671
vt 0.700393 0.036671
vt 0.700393 0.073341
vt 0.407035 0.073342
vt 0.407035 0.036672
vt 0.443705 0.036672
vt 0.443705 0.073342
vt 0.407035 0.330030
vt 0.407035 0.293360
vt 0.443705 0.293360
vt 0.443705 0.330030
vt 0.663723 0.330030
vt 0.663723 0.293360
vt 0.700393 0.293360
vt 0.700393 0.330031
vt 0.737063 0.073340
vt 0.737064 0.293360
vt 0.737064 0.366701
vt 0.737062 0.000000
vt 0.370366 0.293360
vt 0.370366 0.073342
vt 0.370365 0.366700
vt 0.370366 0.000002
vt 0.663723 0.366701
vt 0.443705 0.366700
vt 0.443705 0.000002
vt 0.663722 0.000002
vt 0.000000 0.293359
vt 0.000000 0.073340
vt 0.036670 0.330028
vt 0.000000 0.366698
vt 0.036670 0.036670
vt 0.000000 0.000000
vt 0.366698 0.073340
vt 0.366698 0.293358
vt 0.330028 0.330028
vt 0.366698 0.366698
vt 0.330028 0.036670
vt 0.366698 0.000000
vt 0.293359 0.366698
vt 0.073340 0.366698
vt 0.073340 0.000000
vt 0.293359 0.000000

# vertex normals
vn -0.000000 -1.000000 -0.000000
vn 0.000000 0.000000 1.000000
vn -1.000000 -0.000000 -0.000000
vn 1.000000 0.000000 0.000000
vn -0.000000 -0.000000 -1.000000
vn 0.000000 1.000000 0.000000

# Mesh
g RoadKillOut
usemtl DefaultMaterial
f 4/4/1 1/1/1 2/2/1
f 2/2/1 3/3/1 4/4/1
f 8/8/2 5/5/2 6/6/2
f 6/6/2 7/7/2 8/8/2
f 10/12/3 8/9/3 7/10/3
f 7/10/3 9/11/3 10/12/3
f 8/16/1 10/13/1 11/14/1
f 11/14/1 5/15/1 8/16/1
f 5/20/4 11/17/4 3/18/4
f 3/18/4 6/19/4 5/20/4
f 11/24/5 10/21/5 9/22/5
f 9/22/5 3/23/5 11/24/5
f 2/2/1 1/1/1 12/25/1
f 12/25/1 13/26/1 2/2/1
f 16/30/2 14/27/2 4/28/2
f 4/28/2 15/29/2 16/30/2
f 18/34/3 16/31/3 15/32/3
f 15/32/3 17/33/3 18/34/3
f 16/38/1 18/35/1 19/36/1
f 19/36/1 14/37/1 16/38/1
f 14/42/4 19/39/4 20/40/4
f 20/40/4 4/41/4 14/42/4
f 19/46/5 18/43/5 17/44/5
f 17/44/5 20/45/5 19/46/5
f 4/4/1 3/3/1 9/47/1
f 9/47/1 15/48/1 4/4/1
f 22/52/2 21/49/2 12/50/2
f 12/50/2 1/51/2 22/52/2
f 24/56/3 22/53/3 1/54/3
f 1/54/3 23/55/3 24/56/3
f 22/60/1 24/57/1 25/58/1
f 25/58/1 21/59/1 22/60/1
f 21/64/4 25/61/4 26/62/4
f 26/62/4 12/63/4 21/64/4
f 25/68/5 24/65/5 23/66/5
f 23/66/5 26/67/5 25/68/5
f 27/70/1 6/69/1 3/3/1
f 3/3/1 2/2/1 27/70/1
f 30/74/2 28/71/2 29/72/2
f 29/72/2 27/73/2 30/74/2
f 31/78/3 30/75/3 27/76/3
f 27/76/3 2/77/3 31/78/3
f 30/82/1 31/79/1 32/80/1
f 32/80/1 28/81/1 30/82/1
f 28/86/4 32/83/4 13/84/4
f 13/84/4 29/85/4 28/86/4
f 32/90/5 31/87/5 2/88/5
f 2/88/5 13/89/5 32/90/5
f 1/1/1 4/4/1 20/91/1
f 20/91/1 23/92/1 1/1/1
f 29/96/6 13/93/6 2/94/6
f 2/94/6 27/95/6 29/96/6
f 12/100/6 26/97/6 23/98/6
f 23/98/6 1/99/6 12/100/6
f 4/104/6 20/101/6 17/102/6
f 17/102/6 15/103/6 4/104/6
f 6/108/6 3/105/6 9/106/6
f 9/106/6 7/107/6 6/108/6
f 36/112/5 33/109/5 34/110/5
f 34/110/5 35/111/5 36/112/5
f 40/116/2 37/113/2 38/114/2
f 38/114/2 39/115/2 40/116/2
f 44/120/3 41/117/3 42/118/3
f 42/118/3 43/119/3 44/120/3
f 46/124/5 44/121/5 43/122/5
f 43/122/5 45/123/5 46/124/5
f 50/128/2 47/125/2 48/126/2
f 48/126/2 49/127/2 50/128/2
f 37/132/4 51/129/4 52/130/4
f 52/130/4 38/131/4 37/132/4
f 54/136/3 50/133/3 49/134/3
f 49/134/3 53/135/3 54/136/3
f 41/117/3 54/136/3 53/135/3
f 53/135/3 42/118/3 41/117/3
f 51/129/4 55/137/4 56/138/4
f 56/138/4 52/130/4 51/129/4
f 33/109/5 46/124/5 45/123/5
f 45/123/5 34/110/5 33/109/5
f 55/137/4 36/139/4 35/140/4
f 35/140/4 56/138/4 55/137/4
f 47/125/2 40/116/2 39/115/2
f 39/115/2 48/126/2 47/125/2
f 60/144/6 57/141/6 58/142/6
f 58/142/6 59/143/6 60/144/6
f 64/148/6 61/145/6 62/146/6
f 62/146/6 63/147/6 64/148/6
f 68/152/6 65/149/6 66/150/6
f 66/150/6 67/151/6 68/152/6
f 72/156/6 69/153/6 70/154/6
f 70/154/6 71/155/6 72/156/6
f 61/145/6 64/148/6 67/151/6
f 67/151/6 66/150/6 61/145/6
f 57/141/6 60/144/6 71/155/6
f 71/155/6 70/154/6 57/141/6
f 58/142/6 57/141/6 64/148/6
f 64/148/6 63/147/6 58/142/6
f 68/152/6 67/151/6 70/154/6
f 70/154/6 69/153/6 68/152/6
f 70/154/6 67/151/6 64/148/6
f 64/148/6 57/141/6 70/154/6
f 71/155/6 60/144/6 48/157/6
f 48/157/6 39/158/6 71/155/6
f 72/156/6 71/155/6 39/158/6
f 39/158/6 38/159/6 72/156/6
f 60/144/6 59/143/6 49/160/6
f 49/160/6 48/157/6 60/144/6
f 61/145/6 66/150/6 34/161/6
f 34/161/6 45/162/6 61/145/6
f 66/150/6 65/149/6 35/163/6
f 35/163/6 34/161/6 66/150/6
f 62/146/6 61/145/6 45/162/6
f 45/162/6 43/164/6 62/146/6
f 68/152/6 69/153/6 52/165/6
f 52/165/6 56/166/6 68/152/6
f 69/153/6 72/156/6 38/159/6
f 38/159/6 52/165/6 69/153/6
f 65/149/6 68/152/6 56/166/6
f 56/166/6 35/163/6 65/149/6
f 58/142/6 63/147/6 42/167/6
f 42/167/6 53/168/6 58/142/6
f 63/147/6 62/146/6 43/164/6
f 43/164/6 42/167/6 63/147/6
f 59/143/6 58/142/6 53/168/6
f 53/168/6 49/160/6 59/143/6
f 47/170/1 6/69/1 27/70/1
f 27/70/1 40/169/1 47/170/1
f 40/169/1 27/70/1 29/171/1
f 29/171/1 37/172/1 40/169/1
f 50/174/1 7/173/1 6/69/1
f 6/69/1 47/170/1 50/174/1
f 33/176/1 23/92/1 20/91/1
f 20/91/1 46/175/1 33/176/1
f 36/178/1 26/177/1 23/92/1
f 23/92/1 33/176/1 36/178/1
f 46/175/1 20/91/1 17/179/1
f 17/179/1 44/180/1 46/175/1
f 51/182/1 13/26/1 12/25/1
f 12/25/1 55/181/1 51/182/1
f 37/172/1 29/171/1 13/26/1
f 13/26/1 51/182/1 37/172/1
f 55/181/1 12/25/1 26/177/1
f 26/177/1 36/178/1 55/181/1
f 41/184/1 15/48/1 9/47/1
f 9/47/1 54/183/1 41/184/1
f 44/180/1 17/179/1 15/48/1
f 15/48/1 41/184/1 44/180/1
f 54/183/1 9/47/1 7/173/1
f 7/173/1 50/174/1 54/183/1
