# Blender 5.1.0
# www.blender.org
mtllib coffeepot.mtl
o Torus
v 0.049003 0.807476 2.008681
v 0.099103 0.807476 1.995257
v 0.135779 0.807476 1.958582
v 0.149203 0.807476 1.908481
v 0.135779 0.807476 1.858382
v 0.099103 0.807759 1.822067
v 0.049003 0.808419 1.809535
v -0.001097 0.807759 1.822067
v -0.037772 0.807476 1.858382
v -0.051197 0.807476 1.908481
v -0.037772 0.807476 1.958582
v -0.001097 0.807476 1.995257
v 0.049003 0.742082 2.004395
v 0.099103 0.743834 1.991086
v 0.135779 0.748622 1.954724
v 0.149203 0.755161 1.905053
v 0.135779 0.761700 1.855381
v 0.099103 0.766487 1.819019
v 0.049003 0.768240 1.805710
v -0.001097 0.766487 1.819019
v -0.037772 0.761700 1.855381
v -0.051197 0.755161 1.905053
v -0.037772 0.748622 1.954724
v -0.001097 0.743834 1.991086
v 0.049003 0.677808 1.991610
v 0.099103 0.681282 1.978644
v 0.135779 0.690774 1.943217
v 0.149203 0.703741 1.894825
v 0.135779 0.716708 1.846432
v 0.099103 0.726200 1.811006
v 0.049003 0.729675 1.798039
v -0.001097 0.726200 1.811006
v -0.037772 0.716708 1.846432
v -0.051197 0.703741 1.894825
v -0.037772 0.690774 1.943217
v -0.001097 0.681282 1.978644
v 0.049003 0.615752 1.970545
v 0.099103 0.620889 1.958143
v 0.135779 0.634924 1.924259
v 0.149203 0.654096 1.877972
v 0.135779 0.673269 1.831686
v 0.099103 0.687304 1.797802
v 0.049003 0.692441 1.785400
v -0.001097 0.687304 1.797802
v -0.037772 0.673269 1.831686
v -0.051197 0.654096 1.877972
v -0.037772 0.634924 1.924259
v -0.001097 0.620889 1.958143
v 0.049003 0.556976 1.941560
v 0.099103 0.563688 1.929935
v 0.135779 0.582026 1.898172
v 0.149203 0.607076 1.854785
v 0.135779 0.632126 1.811397
v 0.099103 0.650464 1.779635
v 0.049003 0.657176 1.768009
v -0.001097 0.650464 1.779635
v -0.037772 0.632126 1.811397
v -0.051197 0.607076 1.854785
v -0.037772 0.582026 1.898172
v -0.001097 0.563688 1.929935
v 0.049003 0.502487 1.905152
v 0.099103 0.510659 1.894501
v 0.135779 0.532986 1.865405
v 0.149203 0.563485 1.825658
v 0.135779 0.593984 1.785911
v 0.099103 0.616310 1.756814
v 0.049003 0.624482 1.746164
v -0.001097 0.616310 1.756814
v -0.037772 0.593984 1.785911
v -0.051197 0.563485 1.825658
v -0.037772 0.532986 1.865405
v -0.001097 0.510659 1.894501
v 0.049003 0.453216 1.861942
v 0.099103 0.462708 1.852450
v 0.135779 0.488642 1.826516
v 0.149203 0.524068 1.791090
v 0.135779 0.559494 1.755664
v 0.099103 0.585427 1.729731
v 0.049003 0.594920 1.720238
v -0.001097 0.585427 1.729731
v -0.037772 0.559494 1.755664
v -0.051197 0.524068 1.791090
v -0.037772 0.488642 1.826516
v -0.001097 0.462708 1.852450
v 0.049003 0.410007 1.812671
v 0.099103 0.420657 1.804499
v 0.135779 0.449753 1.782172
v 0.149203 0.489500 1.751673
v 0.135779 0.529247 1.721174
v 0.099103 0.558344 1.698848
v 0.049003 0.568994 1.690676
v -0.001097 0.558344 1.698848
v -0.037772 0.529247 1.721174
v -0.051197 0.489500 1.751673
v -0.037772 0.449753 1.782172
v -0.001097 0.420657 1.804499
v 0.049003 0.373598 1.758182
v 0.099103 0.385223 1.751470
v 0.135779 0.416986 1.733132
v 0.149203 0.460373 1.708082
v 0.135779 0.503761 1.683032
v 0.099103 0.535523 1.664694
v 0.049003 0.547149 1.657982
v -0.001097 0.535523 1.664694
v -0.037772 0.503761 1.683032
v -0.051197 0.460373 1.708082
v -0.037772 0.416986 1.733132
v -0.001097 0.385223 1.751470
v 0.049003 0.344613 1.699406
v 0.099103 0.357015 1.694269
v 0.135779 0.390899 1.680234
v 0.149203 0.437186 1.661062
v 0.135779 0.483472 1.641889
v 0.099103 0.517356 1.627854
v 0.049003 0.529758 1.622717
v -0.001097 0.517356 1.627854
v -0.037772 0.483472 1.641889
v -0.051197 0.437186 1.661062
v -0.037772 0.390899 1.680234
v -0.001097 0.357015 1.694269
v 0.049003 0.323548 1.637350
v 0.099103 0.336515 1.633876
v 0.135779 0.371941 1.624384
v 0.149203 0.420333 1.611417
v 0.135779 0.468726 1.598450
v 0.099103 0.504152 1.588958
v 0.049003 0.517119 1.585483
v -0.001097 0.504152 1.588958
v -0.037772 0.468726 1.598450
v -0.051197 0.420333 1.611417
v -0.037772 0.371941 1.624384
v -0.001097 0.336515 1.633876
v 0.049003 0.310763 1.573076
v 0.099103 0.324072 1.571323
v 0.135779 0.360434 1.566536
v 0.149203 0.410105 1.559997
v 0.135779 0.459777 1.553457
v 0.099103 0.496139 1.548671
v 0.049003 0.509448 1.546918
v -0.001097 0.496139 1.548671
v -0.037772 0.459777 1.553457
v -0.051197 0.410105 1.559997
v -0.037772 0.360434 1.566536
v -0.001097 0.324072 1.571323
v 0.049003 0.306477 1.507682
v 0.099103 0.319901 1.507682
v 0.135779 0.356577 1.507682
v 0.149203 0.406676 1.507682
v 0.135779 0.456776 1.507682
v 0.099103 0.493452 1.507682
v 0.049003 0.506876 1.507682
v -0.001097 0.493452 1.507682
v -0.037772 0.456776 1.507682
v -0.051197 0.406676 1.507682
v -0.037772 0.356577 1.507682
v -0.001097 0.319901 1.507682
v 0.049003 1.303613 1.476849
v 0.099103 1.290840 1.480980
v 0.135779 1.255944 1.492266
v 0.149203 1.208275 1.507682
v 0.135779 1.160606 1.523099
v 0.099103 1.125710 1.534384
v 0.049003 1.112937 1.538515
v -0.001097 1.125710 1.534384
v -0.037772 1.160606 1.523099
v -0.051197 1.208275 1.507682
v -0.037772 1.255944 1.492266
v -0.001097 1.290840 1.480980
v 0.049003 1.319056 1.542370
v 0.099103 1.305845 1.544475
v 0.135779 1.269767 1.550354
v 0.149203 1.220517 1.558660
v 0.135779 1.171298 1.567245
v 0.099103 1.135283 1.573680
v 0.049003 1.122104 1.576063
v -0.001097 1.135283 1.573680
v -0.037772 1.171298 1.567245
v -0.051197 1.220517 1.558660
v -0.037772 1.269767 1.550354
v -0.001097 1.305845 1.544475
v 0.049003 1.320827 1.612830
v 0.099103 1.307716 1.612368
v 0.135779 1.271860 1.611522
v 0.149203 1.222805 1.611298
v 0.135779 1.173669 1.612044
v 0.099103 1.137648 1.613129
v 0.049003 1.124453 1.613627
v -0.001097 1.137648 1.613129
v -0.037772 1.173669 1.612044
v -0.051197 1.222805 1.611298
v -0.037772 1.271860 1.611522
v -0.001097 1.307716 1.612368
v 0.049003 1.305035 1.684452
v 0.099103 1.292832 1.681265
v 0.135779 1.259597 1.673179
v 0.149203 1.213128 1.663991
v 0.135779 1.166188 1.656470
v 0.099103 1.131666 1.651981
v 0.049003 1.118972 1.650535
v -0.001097 1.131666 1.651981
v -0.037772 1.166188 1.656470
v -0.051197 1.213128 1.663991
v -0.037772 1.259597 1.673179
v -0.001097 1.292832 1.681265
v 0.049003 1.271564 1.752302
v 0.099103 1.261934 1.746457
v 0.135779 1.233156 1.731992
v 0.149203 1.191786 1.714495
v 0.135779 1.148714 1.699060
v 0.099103 1.116877 1.689067
v 0.049003 1.105235 1.685742
v -0.001097 1.116877 1.689067
v -0.037772 1.148714 1.699060
v -0.051197 1.191786 1.714495
v -0.037772 1.233156 1.731992
v -0.001097 1.261934 1.746457
v 0.049003 1.224543 1.812255
v 0.099103 1.218359 1.804657
v 0.135779 1.194643 1.785197
v 0.149203 1.159038 1.760599
v 0.135779 1.121961 1.738230
v 0.099103 1.093544 1.723052
v 0.049003 1.083445 1.718042
v -0.001097 1.093544 1.723052
v -0.037772 1.121961 1.738230
v -0.051197 1.159038 1.760599
v -0.037772 1.194643 1.785197
v -0.001097 1.218359 1.804657
v 0.049003 1.174020 1.863340
v 0.099103 1.167214 1.854551
v 0.135779 1.146843 1.831101
v 0.149203 1.117452 1.800687
v 0.135779 1.086770 1.772417
v 0.099103 1.062596 1.752702
v 0.049003 1.054393 1.746295
v -0.001097 1.062596 1.752702
v -0.037772 1.086770 1.772417
v -0.051197 1.117452 1.800687
v -0.037772 1.146843 1.831101
v -0.001097 1.167214 1.854551
v 0.049003 1.117418 1.906313
v 0.099103 1.111009 1.896245
v 0.135779 1.093576 1.869295
v 0.149203 1.069630 1.833987
v 0.135779 1.044951 1.800633
v 0.099103 1.025773 1.777323
v 0.049003 1.019336 1.769627
v -0.001097 1.025773 1.777323
v -0.037772 1.044951 1.800633
v -0.051197 1.069630 1.833987
v -0.037772 1.093576 1.869295
v -0.001097 1.111009 1.896245
v 0.049003 1.058413 1.941711
v 0.099103 1.052314 1.930324
v 0.135779 1.037036 1.899993
v 0.149203 1.017619 1.860231
v 0.135779 0.998652 1.822529
v 0.099103 0.984578 1.796386
v 0.049003 0.979829 1.787562
v -0.001097 0.984578 1.796386
v -0.037772 0.998652 1.822529
v -0.051197 1.017619 1.860231
v -0.037772 1.037036 1.899993
v -0.001097 1.052314 1.930324
v 0.049003 0.999200 1.970545
v 0.099103 0.994063 1.958143
v 0.135779 0.980226 1.924367
v 0.149203 0.964083 1.880109
v 0.135779 0.950054 1.838397
v 0.099103 0.940652 1.809840
v 0.049003 0.937523 1.800055
v -0.001097 0.940652 1.809840
v -0.037772 0.950054 1.838397
v -0.051197 0.964083 1.880109
v -0.037772 0.980226 1.924367
v -0.001097 0.994063 1.958143
v 0.049003 0.937144 1.991610
v 0.099103 0.933669 1.978644
v 0.135779 0.924177 1.943217
v 0.149203 0.911332 1.894918
v 0.135779 0.901121 1.849043
v 0.099103 0.895649 1.818111
v 0.049003 0.893990 1.807449
v -0.001097 0.895649 1.818111
v -0.037772 0.901121 1.849043
v -0.051197 0.911332 1.894918
v -0.037772 0.924177 1.943217
v -0.001097 0.933669 1.978644
v 0.049003 0.872869 2.004395
v 0.099103 0.871117 1.991086
v 0.135779 0.866330 1.954724
v 0.149203 0.859791 1.905053
v 0.135779 0.853477 1.855612
v 0.099103 0.850985 1.821909
v 0.049003 0.850595 1.810360
v -0.001097 0.850985 1.821909
v -0.037772 0.853477 1.855612
v -0.051197 0.859791 1.905053
v -0.037772 0.866330 1.954724
v -0.001097 0.871117 1.991086
v 0.852779 0.189490 0.832931
v 0.770482 0.248224 0.842317
v 0.857485 0.189490 0.983578
v 0.774731 0.248224 0.978356
v 0.829395 0.189490 1.132156
v 0.749366 0.248224 1.112526
v 0.769589 0.189490 1.272954
v 0.695359 0.248224 1.239671
v 0.680365 0.189490 1.400562
v 0.614786 0.248224 1.354905
v 0.565151 0.189490 1.510076
v 0.510745 0.248224 1.453800
v 0.428377 0.189490 1.597287
v 0.387233 0.248224 1.532555
v 0.275296 0.189490 1.658845
v 0.248997 0.248224 1.588143
v 0.111793 0.189490 1.692382
v 0.101349 0.248224 1.618428
v -0.055849 0.189490 1.696611
v -0.050038 0.248224 1.622247
v -0.221188 0.189490 1.671369
v -0.199344 0.248224 1.599453
v -0.377870 0.189490 1.617626
v -0.340833 0.248224 1.550921
v -0.519874 0.189490 1.537447
v -0.469067 0.248224 1.478517
v -0.641743 0.189490 1.433914
v -0.579118 0.248224 1.385023
v -0.738793 0.189490 1.311005
v -0.666758 0.248224 1.274032
v -0.807295 0.189490 1.173443
v -0.728617 0.248224 1.149810
v -0.844616 0.189490 1.026516
v -0.762319 0.248224 1.017130
v -0.849322 0.189490 0.875869
v -0.766569 0.248224 0.881091
v -0.821233 0.189490 0.727291
v -0.741203 0.248224 0.746921
v -0.761426 0.189490 0.586493
v -0.687196 0.248224 0.619776
v -0.672202 0.189490 0.458885
v -0.606624 0.248224 0.504542
v -0.556989 0.189490 0.349371
v -0.502583 0.248224 0.405647
v -0.420214 0.189490 0.262160
v -0.379071 0.248224 0.326892
v -0.267134 0.189490 0.200602
v -0.240834 0.248224 0.271304
v -0.103631 0.189490 0.167065
v -0.093186 0.248224 0.241018
v 0.064011 0.189490 0.162836
v 0.058200 0.248224 0.237200
v 0.229351 0.189490 0.188078
v 0.207507 0.248224 0.259994
v 0.386033 0.189490 0.241821
v 0.348996 0.248224 0.308526
v 0.528037 0.189490 0.322000
v 0.477230 0.248224 0.380930
v 0.649906 0.189490 0.425533
v 0.587281 0.248224 0.474424
v 0.746956 0.189490 0.548442
v 0.674920 0.248224 0.585414
v 0.815457 0.189490 0.686003
v 0.736779 0.248224 0.709637
v 0.774731 0.280041 0.978356
v 0.770482 0.280041 0.842317
v 0.749366 0.280041 1.112526
v 0.695359 0.280041 1.239671
v 0.614786 0.280041 1.354905
v 0.510745 0.280041 1.453800
v 0.387233 0.280041 1.532555
v 0.248997 0.280041 1.588143
v 0.101349 0.280041 1.618428
v -0.050038 0.280041 1.622247
v -0.199344 0.280041 1.599453
v -0.340833 0.280041 1.550921
v -0.469067 0.280041 1.478517
v -0.579118 0.280041 1.385023
v -0.666758 0.280041 1.274032
v -0.728617 0.280041 1.149810
v -0.762319 0.280041 1.017130
v -0.766569 0.280041 0.881091
v -0.741203 0.280041 0.746921
v -0.687196 0.280041 0.619776
v -0.606624 0.280041 0.504542
v -0.502583 0.280041 0.405647
v -0.379071 0.280041 0.326892
v -0.240834 0.280041 0.271304
v -0.093186 0.280041 0.241018
v 0.058200 0.280041 0.237200
v 0.207507 0.280041 0.259994
v 0.348996 0.280041 0.308526
v 0.477230 0.280041 0.380930
v 0.587281 0.280041 0.474424
v 0.674920 0.280041 0.585414
v 0.736779 0.280041 0.709637
v 0.512752 1.402104 0.991655
v 0.509520 1.402104 0.888186
v 0.493459 1.402104 1.093702
v 0.452383 1.402104 1.190406
v 0.391101 1.402104 1.278051
v 0.311969 1.402104 1.353268
v 0.218029 1.402104 1.413167
v 0.112889 1.402104 1.455446
v 0.000590 1.402104 1.478481
v -0.114551 1.402104 1.481386
v -0.228111 1.402104 1.464049
v -0.335724 1.402104 1.427137
v -0.433257 1.402104 1.372068
v -0.516959 1.402104 1.300958
v -0.583616 1.402104 1.216541
v -0.630665 1.402104 1.122059
v -0.656298 1.402104 1.021145
v -0.659530 1.402104 0.917677
v -0.640238 1.402104 0.815630
v -0.599161 1.402104 0.718926
v -0.537879 1.402104 0.631281
v -0.458748 1.402104 0.556064
v -0.364807 1.402104 0.496164
v -0.259667 1.402104 0.453885
v -0.147369 1.402104 0.430851
v -0.032227 1.402104 0.427946
v 0.081332 1.402104 0.445283
v 0.188946 1.402104 0.482195
v 0.286478 1.402104 0.537264
v 0.370181 1.402104 0.608374
v 0.436838 1.402104 0.692791
v 0.483886 1.402104 0.787272
v 0.748189 0.856706 1.112238
v 0.694267 0.856706 1.239182
v 0.586360 0.856706 0.475142
v 0.673861 0.856706 0.585958
v -0.761109 0.856706 1.016992
v -0.765352 0.856706 0.881168
v 0.613822 0.856706 1.354234
v 0.735623 0.856706 0.709984
v -0.740026 0.856706 0.747209
v 0.509945 0.856706 1.452972
v 0.769271 0.856706 0.842455
v -0.686105 0.856706 0.620265
v 0.386628 0.856706 1.531603
v -0.605660 0.856706 0.505213
v 0.248610 0.856706 1.587103
v -0.501783 0.856706 0.406474
v 0.101195 0.856706 1.617341
v -0.378466 0.856706 0.327844
v -0.049952 0.856706 1.621153
v -0.240447 0.856706 0.272344
v -0.199023 0.856706 1.598395
v -0.093032 0.856706 0.242106
v -0.340289 0.856706 1.549940
v 0.058115 0.856706 0.238293
v -0.468320 0.856706 1.477651
v 0.207186 0.856706 0.261052
v -0.578197 0.856706 1.384304
v 0.348451 0.856706 0.309507
v -0.665698 0.856706 1.273489
v 0.773515 0.856706 0.978279
v 0.476483 0.856706 0.381796
v -0.727460 0.856706 1.149463
v 0.629293 1.171292 1.096962
v 0.487997 1.171292 0.540703
v -0.688504 1.171292 1.013802
v 0.582213 1.171292 1.207800
v 0.564396 1.171292 0.637458
v -0.692209 1.171292 0.895211
v 0.511975 1.171292 1.308254
v 0.618321 1.171292 0.745747
v -0.670096 1.171292 0.778249
v 0.421278 1.171292 1.394465
v 0.647700 1.171292 0.861410
v -0.623016 1.171292 0.667412
v 0.313608 1.171292 1.463118
v -0.552778 1.171292 0.566958
v 0.193101 1.171292 1.511577
v -0.462081 1.171292 0.480747
v 0.064390 1.171292 1.537978
v -0.354411 1.171292 0.412094
v -0.067579 1.171292 1.541307
v -0.233904 1.171292 0.363635
v -0.197736 1.171292 1.521436
v -0.105194 1.171292 0.337234
v -0.321077 1.171292 1.479129
v 0.026776 1.171292 0.333905
v -0.432864 1.171292 1.416011
v 0.156932 1.171292 0.353776
v -0.528801 1.171292 1.334509
v 0.280274 1.171292 0.396083
v -0.605199 1.171292 1.237754
v 0.651405 1.171292 0.980001
v 0.392061 1.171292 0.459200
v -0.659124 1.171292 1.129465
v 0.533876 1.293357 1.095170
v 0.405046 1.293357 0.587985
v -0.667660 1.293357 1.019346
v 0.490950 1.293357 1.196229
v 0.474705 1.293357 0.676204
v -0.671038 1.293357 0.911217
v 0.426909 1.293357 1.287820
v 0.523872 1.293357 0.774940
v -0.650876 1.293357 0.804574
v 0.344213 1.293357 1.366425
v 0.550660 1.293357 0.880399
v -0.607950 1.293357 0.703515
v 0.246042 1.293357 1.429022
v -0.543908 1.293357 0.611924
v 0.136167 1.293357 1.473205
v -0.461213 1.293357 0.533319
v 0.018812 1.293357 1.497277
v -0.363042 1.293357 0.470722
v -0.101515 1.293357 1.500313
v -0.253167 1.293357 0.426539
v -0.220189 1.293357 1.482195
v -0.135811 1.293357 0.402467
v -0.332649 1.293357 1.443620
v -0.015484 1.293357 0.399432
v -0.434574 1.293357 1.386071
v 0.103189 1.293357 0.417549
v -0.522046 1.293357 1.311759
v 0.215650 1.293357 0.456124
v -0.591705 1.293357 1.223540
v 0.554038 1.293357 0.988527
v 0.317574 1.293357 0.513673
v -0.640872 1.293357 1.124804
v -0.001848 1.219149 0.174871
vn 0.2583 -0.0632 0.9640
vn 0.7063 -0.0463 0.7063
vn 0.9658 -0.0170 0.2588
vn 0.9658 0.0170 -0.2588
vn 0.7047 0.0492 -0.7078
vn 0.2507 0.0814 -0.9646
vn -0.2507 0.0814 -0.9646
vn -0.7047 0.0492 -0.7078
vn -0.9658 0.0170 -0.2588
vn -0.9658 -0.0170 0.2588
vn -0.7063 -0.0463 0.7064
vn -0.2583 -0.0632 0.9640
vn 0.2583 -0.1885 0.9475
vn 0.7064 -0.1381 0.6943
vn 0.9658 -0.0506 0.2544
vn 0.9658 0.0506 -0.2544
vn 0.7063 0.1381 -0.6943
vn 0.2583 0.1885 -0.9475
vn -0.2583 0.1885 -0.9475
vn -0.7063 0.1381 -0.6943
vn -0.9658 0.0506 -0.2544
vn -0.9658 -0.0506 0.2544
vn -0.7063 -0.1381 0.6943
vn -0.2583 -0.1885 0.9475
vn 0.2583 -0.3105 0.9148
vn 0.7064 -0.2275 0.6703
vn 0.9658 -0.0834 0.2456
vn 0.9658 0.0834 -0.2456
vn 0.7063 0.2275 -0.6703
vn 0.2583 0.3105 -0.9148
vn -0.2583 0.3105 -0.9148
vn -0.7063 0.2275 -0.6703
vn -0.9658 0.0834 -0.2456
vn -0.9658 -0.0834 0.2456
vn -0.7064 -0.2275 0.6703
vn -0.2583 -0.3105 0.9148
vn 0.2583 -0.4273 0.8664
vn 0.7064 -0.3131 0.6349
vn 0.9658 -0.1147 0.2326
vn 0.9658 0.1147 -0.2326
vn 0.7063 0.3131 -0.6349
vn 0.2583 0.4273 -0.8664
vn -0.2583 0.4273 -0.8664
vn -0.7063 0.3131 -0.6349
vn -0.9658 0.1147 -0.2326
vn -0.9658 -0.1147 0.2326
vn -0.7063 -0.3131 0.6349
vn -0.2583 -0.4273 0.8664
vn 0.2583 -0.5367 0.8033
vn 0.7063 -0.3933 0.5886
vn 0.9658 -0.1441 0.2156
vn 0.9658 0.1441 -0.2156
vn 0.7063 0.3933 -0.5886
vn 0.2583 0.5367 -0.8033
vn -0.2583 0.5367 -0.8033
vn -0.7063 0.3933 -0.5886
vn -0.9658 0.1441 -0.2156
vn -0.9658 -0.1441 0.2156
vn -0.7063 -0.3933 0.5886
vn -0.2583 -0.5367 0.8033
vn 0.2583 -0.6370 0.7263
vn 0.7063 -0.4667 0.5322
vn 0.9658 -0.1710 0.1950
vn 0.9658 0.1710 -0.1950
vn 0.7063 0.4667 -0.5322
vn 0.2583 0.6370 -0.7263
vn -0.2583 0.6370 -0.7263
vn -0.7063 0.4667 -0.5322
vn -0.9658 0.1710 -0.1950
vn -0.9658 -0.1710 0.1950
vn -0.7063 -0.4667 0.5322
vn -0.2583 -0.6370 0.7263
vn 0.2583 -0.7263 0.6370
vn 0.7063 -0.5322 0.4667
vn 0.9658 -0.1950 0.1710
vn 0.9658 0.1950 -0.1710
vn 0.7063 0.5322 -0.4667
vn 0.2583 0.7263 -0.6370
vn -0.2583 0.7263 -0.6370
vn -0.7063 0.5322 -0.4667
vn -0.9658 0.1950 -0.1710
vn -0.9658 -0.1950 0.1710
vn -0.7063 -0.5322 0.4667
vn -0.2583 -0.7263 0.6370
vn 0.2583 -0.8033 0.5367
vn 0.7064 -0.5886 0.3933
vn 0.9658 -0.2156 0.1441
vn 0.9658 0.2156 -0.1441
vn 0.7063 0.5886 -0.3933
vn 0.2583 0.8033 -0.5367
vn -0.2583 0.8033 -0.5367
vn -0.7063 0.5886 -0.3933
vn -0.9658 0.2156 -0.1441
vn -0.9658 -0.2156 0.1441
vn -0.7063 -0.5886 0.3933
vn -0.2583 -0.8033 0.5367
vn 0.2583 -0.8664 0.4273
vn 0.7063 -0.6349 0.3131
vn 0.9658 -0.2326 0.1147
vn 0.9658 0.2326 -0.1147
vn 0.7063 0.6349 -0.3131
vn 0.2583 0.8664 -0.4273
vn -0.2583 0.8664 -0.4273
vn -0.7063 0.6349 -0.3131
vn -0.9658 0.2326 -0.1147
vn -0.9658 -0.2326 0.1147
vn -0.7063 -0.6349 0.3131
vn -0.2583 -0.8664 0.4273
vn 0.2583 -0.9148 0.3105
vn 0.7063 -0.6703 0.2275
vn 0.9658 -0.2456 0.0834
vn 0.9658 0.2456 -0.0834
vn 0.7063 0.6703 -0.2275
vn 0.2583 0.9148 -0.3105
vn -0.2583 0.9148 -0.3105
vn -0.7064 0.6703 -0.2275
vn -0.9658 0.2456 -0.0834
vn -0.9658 -0.2456 0.0834
vn -0.7063 -0.6703 0.2275
vn -0.2583 -0.9148 0.3105
vn 0.2583 -0.9475 0.1885
vn 0.7063 -0.6943 0.1381
vn 0.9658 -0.2544 0.0506
vn 0.9658 0.2544 -0.0506
vn 0.7063 0.6943 -0.1381
vn 0.2583 0.9475 -0.1885
vn -0.2583 0.9475 -0.1885
vn -0.7063 0.6943 -0.1381
vn -0.9658 0.2544 -0.0506
vn -0.9658 -0.2544 0.0506
vn -0.7063 -0.6943 0.1381
vn -0.2583 -0.9475 0.1885
vn 0.2583 -0.9640 0.0632
vn 0.7063 -0.7063 0.0463
vn 0.9658 -0.2588 0.0170
vn 0.9658 0.2588 -0.0170
vn 0.7063 0.7063 -0.0463
vn 0.2583 0.9640 -0.0632
vn -0.2583 0.9640 -0.0632
vn -0.7063 0.7063 -0.0463
vn -0.9658 0.2588 -0.0170
vn -0.9658 -0.2588 0.0170
vn -0.7063 -0.7063 0.0463
vn -0.2583 -0.9640 0.0632
vn 0.2577 0.9404 -0.2219
vn 0.7055 0.6896 -0.1635
vn 0.9657 0.2527 -0.0604
vn 0.9657 -0.2525 0.0609
vn 0.7058 -0.6884 0.1672
vn 0.2580 -0.9386 0.2289
vn -0.2580 -0.9386 0.2289
vn -0.7058 -0.6884 0.1672
vn -0.9657 -0.2525 0.0609
vn -0.9657 0.2527 -0.0604
vn -0.7055 0.6896 -0.1635
vn -0.2577 0.9404 -0.2219
vn 0.2544 0.9668 -0.0254
vn 0.7008 0.7131 -0.0219
vn 0.9648 0.2627 -0.0101
vn 0.9649 -0.2622 0.0125
vn 0.7022 -0.7109 0.0400
vn 0.2557 -0.9650 0.0591
vn -0.2557 -0.9650 0.0591
vn -0.7022 -0.7109 0.0400
vn -0.9649 -0.2622 0.0125
vn -0.9648 0.2627 -0.0101
vn -0.7008 0.7130 -0.0219
vn -0.2544 0.9668 -0.0254
vn 0.2467 0.9468 0.2067
vn 0.6876 0.7109 0.1478
vn 0.9627 0.2656 0.0510
vn 0.9629 -0.2658 -0.0470
vn 0.6913 -0.7133 -0.1153
vn 0.2488 -0.9577 -0.1449
vn -0.2488 -0.9577 -0.1449
vn -0.6913 -0.7133 -0.1153
vn -0.9629 -0.2658 -0.0470
vn -0.9627 0.2656 0.0510
vn -0.6876 0.7109 0.1478
vn -0.2467 0.9468 0.2067
vn 0.2291 0.8762 0.4239
vn 0.6675 0.6759 0.3125
vn 0.9593 0.2588 0.1131
vn 0.9599 -0.2588 -0.1079
vn 0.6741 -0.6846 -0.2772
vn 0.2365 -0.9038 -0.3566
vn -0.2365 -0.9038 -0.3566
vn -0.6741 -0.6846 -0.2772
vn -0.9599 -0.2588 -0.1079
vn -0.9593 0.2588 0.1131
vn -0.6675 0.6759 0.3125
vn -0.2291 0.8762 0.4239
vn 0.2026 0.7771 0.5959
vn 0.6479 0.6133 0.4519
vn 0.9556 0.2394 0.1718
vn 0.9559 -0.2409 -0.1681
vn 0.6571 -0.6220 -0.4259
vn 0.2206 -0.8063 -0.5489
vn -0.2206 -0.8063 -0.5489
vn -0.6571 -0.6220 -0.4259
vn -0.9559 -0.2409 -0.1681
vn -0.9556 0.2394 0.1718
vn -0.6479 0.6133 0.4519
vn -0.2026 0.7771 0.5959
vn 0.2031 0.6900 0.6947
vn 0.6425 0.5331 0.5506
vn 0.9533 0.2095 0.2177
vn 0.9520 -0.2128 -0.2200
vn 0.6433 -0.5317 -0.5509
vn 0.2044 -0.6798 -0.7044
vn -0.2044 -0.6798 -0.7044
vn -0.6433 -0.5317 -0.5509
vn -0.9520 -0.2128 -0.2200
vn -0.9533 0.2095 0.2177
vn -0.6425 0.5331 0.5506
vn -0.2031 0.6900 0.6947
vn 0.2239 0.5850 0.7795
vn 0.6515 0.4472 0.6128
vn 0.9530 0.1749 0.2473
vn 0.9505 -0.1758 -0.2562
vn 0.6324 -0.4320 -0.6430
vn 0.1944 -0.5444 -0.8160
vn -0.1944 -0.5444 -0.8160
vn -0.6324 -0.4320 -0.6430
vn -0.9505 -0.1758 -0.2562
vn -0.9530 0.1749 0.2474
vn -0.6515 0.4472 0.6128
vn -0.2239 0.5850 0.7795
vn 0.2406 0.4934 0.8359
vn 0.6687 0.3644 0.6482
vn 0.9552 0.1375 0.2622
vn 0.9515 -0.1353 -0.2764
vn 0.6260 -0.3306 -0.7062
vn 0.1927 -0.4089 -0.8920
vn -0.1927 -0.4089 -0.8920
vn -0.6260 -0.3306 -0.7062
vn -0.9515 -0.1353 -0.2764
vn -0.9552 0.1375 0.2622
vn -0.6687 0.3644 0.6482
vn -0.2406 0.4934 0.8359
vn 0.2540 0.4202 0.8712
vn 0.6925 0.2980 0.6570
vn 0.9593 0.1051 0.2621
vn 0.9544 -0.0986 -0.2817
vn 0.6283 -0.2350 -0.7416
vn 0.1966 -0.2825 -0.9389
vn -0.1966 -0.2825 -0.9389
vn -0.6283 -0.2350 -0.7416
vn -0.9544 -0.0986 -0.2817
vn -0.9593 0.1051 0.2621
vn -0.6925 0.2980 0.6570
vn -0.2540 0.4202 0.8712
vn 0.2583 0.3105 0.9148
vn 0.7055 0.2269 0.6714
vn 0.9638 0.0788 0.2549
vn 0.9590 -0.0688 -0.2749
vn 0.6410 -0.1515 -0.7525
vn 0.2048 -0.1705 -0.9638
vn -0.2048 -0.1705 -0.9638
vn -0.6410 -0.1515 -0.7525
vn -0.9590 -0.0688 -0.2749
vn -0.9638 0.0788 0.2549
vn -0.7055 0.2269 0.6714
vn -0.2583 0.3105 0.9148
vn 0.2583 0.1885 0.9475
vn 0.7064 0.1381 0.6943
vn 0.9657 0.0504 0.2547
vn 0.9636 -0.0444 -0.2637
vn 0.6639 -0.0835 -0.7431
vn 0.2173 -0.0742 -0.9733
vn -0.2173 -0.0742 -0.9733
vn -0.6639 -0.0835 -0.7431
vn -0.9636 -0.0444 -0.2637
vn -0.9657 0.0504 0.2547
vn -0.7063 0.1381 0.6943
vn -0.2583 0.1885 0.9475
vn 0.2583 0.0632 0.9640
vn 0.7063 0.0463 0.7063
vn 0.9658 0.0170 0.2588
vn 0.9656 -0.0164 -0.2594
vn 0.6907 -0.0237 -0.7228
vn 0.2337 0.0076 -0.9723
vn -0.2337 0.0076 -0.9723
vn -0.6907 -0.0237 -0.7228
vn -0.9656 -0.0164 -0.2594
vn -0.9658 0.0170 0.2588
vn -0.7063 0.0463 0.7064
vn -0.2583 0.0632 0.9640
vn 0.5794 0.8148 -0.0181
vn 0.5709 0.8139 0.1079
vn 0.5388 0.8107 0.2289
vn 0.4854 0.8058 0.3394
vn 0.4135 0.7999 0.4350
vn 0.3269 0.7940 0.5126
vn 0.2293 0.7889 0.5701
vn 0.1244 0.7855 0.6063
vn 0.0157 0.7841 0.6205
vn -0.0935 0.7849 0.6126
vn -0.1999 0.7878 0.5827
vn -0.2999 0.7924 0.5312
vn -0.3901 0.7981 0.4592
vn -0.4666 0.8041 0.3684
vn -0.5256 0.8094 0.2618
vn -0.5640 0.8132 0.1433
vn -0.5795 0.8148 0.0181
vn -0.5709 0.8139 -0.1079
vn -0.5388 0.8107 -0.2289
vn -0.4854 0.8058 -0.3394
vn -0.4135 0.7999 -0.4350
vn -0.3269 0.7940 -0.5126
vn -0.2293 0.7889 -0.5701
vn -0.1244 0.7855 -0.6063
vn -0.0157 0.7841 -0.6205
vn 0.0935 0.7849 -0.6126
vn 0.1999 0.7878 -0.5827
vn 0.2999 0.7924 -0.5312
vn 0.3901 0.7981 -0.4592
vn 0.4666 0.8041 -0.3684
vn 0.9826 -0.0000 0.1858
vn 0.5256 0.8094 -0.2618
vn 0.5640 0.8132 -0.1433
vn -0.0000 -1.0000 -0.0000
vn 0.8695 0.3281 0.3693
vn -0.3244 -0.0000 0.9459
vn -0.8195 -0.0000 -0.5730
vn 0.6474 -0.0000 -0.7621
vn 0.3731 -0.0000 0.9278
vn -0.9692 -0.0000 0.2462
vn -0.0252 -0.0000 -0.9997
vn 0.9204 -0.0000 0.3910
vn -0.4917 -0.0000 0.8708
vn -0.6890 -0.0000 -0.7248
vn 0.7848 -0.0000 -0.6197
vn 0.2009 -0.0000 0.9796
vn -0.9995 -0.0000 0.0312
vn 0.1509 -0.0000 -0.9885
vn 0.8195 -0.0000 0.5730
vn -0.6474 -0.0000 0.7621
vn -0.5376 -0.0000 -0.8432
vn 0.8952 -0.0000 -0.4458
vn 0.0252 -0.0000 0.9997
vn -0.9826 -0.0000 -0.1858
vn 0.3245 -0.0000 -0.9459
vn 0.6890 -0.0000 0.7248
vn -0.7848 -0.0000 0.6197
vn -0.3731 -0.0000 -0.9278
vn 0.9995 -0.0000 -0.0312
vn 0.9692 -0.0000 -0.2462
vn -0.1509 -0.0000 0.9885
vn -0.9204 -0.0000 -0.3910
vn 0.4917 -0.0000 -0.8708
vn 0.5376 -0.0000 0.8432
vn -0.8952 -0.0000 0.4458
vn -0.2009 -0.0000 -0.9796
vn -0.0000 1.0000 -0.0000
vn 0.7366 0.3452 -0.5816
vn -0.9942 0.1034 0.0311
vn 0.7802 0.3059 0.5456
vn 0.8369 0.3550 -0.4167
vn -0.9762 0.1143 -0.1846
vn 0.6613 0.2803 0.6958
vn 0.9047 0.3587 -0.2298
vn -0.9128 0.1287 -0.3877
vn 0.5202 0.2529 0.8158
vn -0.8108 0.1459 -0.5669
vn 0.3635 0.2254 0.9039
vn -0.6795 0.1649 -0.7149
vn 0.1969 0.1989 0.9600
vn -0.5283 0.1853 -0.8286
vn 0.0248 0.1743 0.9844
vn -0.3650 0.2065 -0.9078
vn -0.1492 0.1522 0.9770
vn -0.1956 0.2281 -0.9538
vn -0.3216 0.1330 0.9375
vn -0.0244 0.2500 -0.9679
vn -0.4883 0.1173 0.8648
vn 0.1452 0.2718 -0.9513
vn -0.6438 0.1054 0.7579
vn 0.3102 0.2930 -0.9044
vn -0.7811 0.0978 0.6167
vn 0.9342 0.3555 -0.0292
vn 0.4670 0.3129 -0.8270
vn -0.8911 0.0948 0.4437
vn 0.9222 0.3451 0.1744
vn 0.6110 0.3307 -0.7192
vn -0.9647 0.0967 0.2450
vn -0.9692 0.0021 0.2462
vn 0.6474 0.0020 -0.7621
vn 0.9826 0.0021 0.1858
vn -0.8951 0.0021 0.4458
vn 0.4917 0.0019 -0.8708
vn 0.9995 0.0021 -0.0312
vn -0.7848 0.0020 0.6197
vn 0.3245 0.0019 -0.9459
vn -0.6474 0.0020 0.7621
vn 0.1509 0.0019 -0.9885
vn -0.4917 0.0019 0.8708
vn -0.0252 0.0019 -0.9997
vn -0.3244 0.0019 0.9459
vn -0.2009 0.0019 -0.9796
vn -0.1509 0.0019 0.9885
vn -0.3731 0.0019 -0.9278
vn 0.0252 0.0019 0.9997
vn -0.5376 0.0020 -0.8432
vn 0.2009 0.0019 0.9796
vn -0.6890 0.0020 -0.7248
vn 0.3731 0.0019 0.9278
vn -0.8195 0.0020 -0.5730
vn 0.5376 0.0020 0.8432
vn -0.9204 0.0021 -0.3910
vn 0.9692 0.0021 -0.2462
vn 0.6890 0.0020 0.7248
vn -0.9826 0.0021 -0.1858
vn 0.8952 0.0021 -0.4458
vn 0.8195 0.0020 0.5730
vn -0.9995 0.0021 0.0312
vn 0.7848 0.0020 -0.6197
vn 0.9204 0.0021 0.3910
vn -0.9453 0.2206 0.2401
vn 0.6089 0.3398 -0.7168
vn 0.9184 0.3555 0.1736
vn -0.8737 0.2175 0.4351
vn 0.4646 0.3272 -0.8229
vn 0.9318 0.3618 -0.0291
vn -0.7663 0.2161 0.6051
vn 0.3081 0.3139 -0.8981
vn -0.6320 0.2170 0.7439
vn 0.1439 0.3009 -0.9427
vn -0.4796 0.2205 0.8494
vn -0.0241 0.2885 -0.9572
vn -0.3160 0.2267 0.9213
vn -0.1931 0.2772 -0.9412
vn -0.1467 0.2356 0.9607
vn -0.3595 0.2670 -0.8941
vn 0.0244 0.2472 0.9686
vn -0.5194 0.2579 -0.8147
vn 0.1940 0.2612 0.9456
vn -0.6671 0.2499 -0.7018
vn 0.3585 0.2773 0.8914
vn -0.7950 0.2427 -0.5559
vn 0.5138 0.2947 0.8057
vn -0.8943 0.2363 -0.3799
vn 0.9032 0.3629 -0.2294
vn 0.6544 0.3125 0.6885
vn -0.9562 0.2304 -0.1808
vn 0.8355 0.3589 -0.4161
vn 0.7738 0.3296 0.5410
vn -0.9739 0.2251 0.0304
vn 0.7350 0.3508 -0.5803
vn 0.8641 0.3444 0.3670
vn -0.9579 0.1525 0.2433
vn 0.5216 0.5923 -0.6140
vn 0.7782 0.6105 0.1471
vn -0.8851 0.1492 0.4408
vn 0.4049 0.5672 -0.7172
vn 0.7807 0.6244 -0.0244
vn -0.7751 0.1570 0.6120
vn 0.2736 0.5373 -0.7978
vn -0.6374 0.1751 0.7503
vn 0.1304 0.5036 -0.8540
vn -0.4815 0.2024 0.8528
vn -0.0223 0.4669 -0.8841
vn -0.3152 0.2374 0.9189
vn -0.1816 0.4277 -0.8855
vn -0.1449 0.2786 0.9494
vn -0.3441 0.3866 -0.8556
vn 0.0239 0.3242 0.9457
vn -0.5047 0.3445 -0.7916
vn 0.1865 0.3727 0.9090
vn -0.6567 0.3022 -0.6909
vn 0.3382 0.4221 0.8411
vn -0.7911 0.2612 -0.5531
vn 0.4744 0.4704 0.7440
vn -0.8971 0.2234 -0.3811
vn 0.7536 0.6289 -0.1914
vn 0.5904 0.5154 0.6211
vn -0.9645 0.1912 -0.1823
vn 0.6993 0.6243 -0.3482
vn 0.6818 0.5549 0.4767
vn -0.9855 0.1669 0.0308
vn 0.6208 0.6118 -0.4902
vn 0.7451 0.5871 0.3165
vn 0.0657 0.9450 0.3204
vn -0.6329 0.0156 -0.7741
vn 0.9267 -0.2797 -0.2510
vn 0.0072 0.9579 0.2870
vt 0.390809 0.740678
vt 0.390844 0.751721
vt 0.380716 0.751777
vt 0.380481 0.740747
vt 0.370397 0.751828
vt 0.370265 0.740909
vt 0.360000 0.751863
vt 0.360099 0.741106
vt 0.349895 0.751905
vt 0.349743 0.741380
vt 0.339472 0.751980
vt 0.339395 0.741661
vt 0.328939 0.752001
vt 0.328975 0.741535
vt 0.452643 0.740888
vt 0.452813 0.751355
vt 0.442288 0.751454
vt 0.442222 0.741129
vt 0.431888 0.751492
vt 0.431853 0.740982
vt 0.421585 0.751560
vt 0.421713 0.740816
vt 0.411299 0.751594
vt 0.411204 0.740695
vt 0.401062 0.751678
vt 0.401059 0.740651
vt 0.390870 0.762806
vt 0.380678 0.762815
vt 0.370422 0.762742
vt 0.360308 0.762614
vt 0.349954 0.762416
vt 0.339516 0.762218
vt 0.329064 0.762144
vt 0.452794 0.761508
vt 0.442346 0.761693
vt 0.431919 0.761970
vt 0.421592 0.762295
vt 0.411382 0.762520
vt 0.401041 0.762702
vt 0.390961 0.773928
vt 0.380744 0.773910
vt 0.370647 0.773715
vt 0.360351 0.773367
vt 0.349984 0.772851
vt 0.339577 0.772381
vt 0.329056 0.772177
vt 0.452902 0.771547
vt 0.442373 0.771858
vt 0.431941 0.772416
vt 0.421537 0.773016
vt 0.411419 0.773487
vt 0.401167 0.773782
vt 0.391072 0.785180
vt 0.380930 0.785090
vt 0.370698 0.784723
vt 0.360341 0.784076
vt 0.349871 0.783238
vt 0.339562 0.782417
vt 0.329083 0.782001
vt 0.452986 0.781378
vt 0.442503 0.781885
vt 0.432114 0.782782
vt 0.421672 0.783738
vt 0.411349 0.784503
vt 0.401231 0.784968
vt 0.391130 0.796617
vt 0.380921 0.796437
vt 0.370657 0.795805
vt 0.360282 0.794785
vt 0.349941 0.793478
vt 0.339409 0.792254
vt 0.328897 0.791526
vt 0.453188 0.790872
vt 0.442678 0.791687
vt 0.432221 0.793040
vt 0.421844 0.794445
vt 0.411602 0.795605
vt 0.401337 0.796338
vt 0.391169 0.808313
vt 0.380857 0.808017
vt 0.370519 0.807025
vt 0.360137 0.805456
vt 0.349539 0.803582
vt 0.339005 0.801770
vt 0.328485 0.800667
vt 0.453727 0.799988
vt 0.443241 0.801212
vt 0.432695 0.803124
vt 0.422170 0.805139
vt 0.411803 0.806833
vt 0.401477 0.807910
vt 0.391215 0.820415
vt 0.380558 0.819897
vt 0.369977 0.818401
vt 0.359460 0.816091
vt 0.348863 0.813393
vt 0.338247 0.810921
vt 0.327727 0.809379
vt 0.454562 0.808680
vt 0.444056 0.810341
vt 0.433534 0.812957
vt 0.423043 0.815803
vt 0.412414 0.818164
vt 0.401868 0.819766
vt 0.391300 0.832747
vt 0.379927 0.832135
vt 0.368774 0.829938
vt 0.357919 0.826662
vt 0.347401 0.822904
vt 0.336963 0.819609
vt 0.326546 0.817662
vt 0.455870 0.816909
vt 0.445493 0.819032
vt 0.435131 0.822476
vt 0.424589 0.826331
vt 0.413761 0.829701
vt 0.402630 0.831952
vt 0.391295 0.845679
vt 0.378579 0.844502
vt 0.366296 0.841484
vt 0.354983 0.836889
vt 0.344761 0.831864
vt 0.334995 0.827911
vt 0.324993 0.825530
vt 0.457556 0.824749
vt 0.447589 0.827301
vt 0.437857 0.831409
vt 0.427631 0.836537
vt 0.416335 0.841264
vt 0.404069 0.844535
vt 0.478481 0.658049
vt 0.491812 0.657859
vt 0.492067 0.668215
vt 0.479268 0.668988
vt 0.492689 0.678584
vt 0.480755 0.679762
vt 0.493460 0.689024
vt 0.482829 0.690281
vt 0.494224 0.699550
vt 0.484931 0.700594
vt 0.494831 0.710137
vt 0.486451 0.710876
vt 0.495219 0.720653
vt 0.487337 0.721325
vt 0.486006 0.594363
vt 0.493898 0.594938
vt 0.493598 0.605480
vt 0.485217 0.604850
vt 0.493154 0.616096
vt 0.483834 0.615224
vt 0.492618 0.626652
vt 0.481960 0.625644
vt 0.492107 0.637122
vt 0.480150 0.636254
vt 0.491769 0.647512
vt 0.478958 0.647087
vt 0.504970 0.657686
vt 0.504946 0.668035
vt 0.504655 0.678435
vt 0.504167 0.688897
vt 0.503641 0.699436
vt 0.503270 0.710038
vt 0.503040 0.720631
vt 0.501735 0.594860
vt 0.502027 0.605463
vt 0.502575 0.616038
vt 0.503330 0.626549
vt 0.504062 0.636977
vt 0.504653 0.647339
vt 0.518212 0.657537
vt 0.517826 0.668482
vt 0.516565 0.679280
vt 0.514779 0.689858
vt 0.512981 0.700275
vt 0.511626 0.710631
vt 0.510942 0.721124
vt 0.509617 0.594363
vt 0.510376 0.604757
vt 0.511897 0.615014
vt 0.513935 0.625320
vt 0.516053 0.635816
vt 0.517569 0.646593
vt 0.390083 0.594363
vt 0.390147 0.607270
vt 0.378797 0.608428
vt 0.376747 0.595787
vt 0.367801 0.611625
vt 0.364154 0.600269
vt 0.357384 0.616519
vt 0.353004 0.606803
vt 0.347501 0.622310
vt 0.343379 0.613902
vt 0.337727 0.627642
vt 0.334481 0.619931
vt 0.327738 0.631269
vt 0.324993 0.623899
vt 0.455461 0.623256
vt 0.452788 0.630652
vt 0.442764 0.627124
vt 0.445934 0.619381
vt 0.432938 0.621889
vt 0.436977 0.613440
vt 0.422998 0.616196
vt 0.427283 0.606437
vt 0.412534 0.611404
vt 0.416069 0.600013
vt 0.401507 0.608316
vt 0.403433 0.595655
vt 0.390211 0.620316
vt 0.379914 0.621161
vt 0.369805 0.623407
vt 0.359919 0.626993
vt 0.350098 0.631516
vt 0.340103 0.635944
vt 0.329894 0.638971
vt 0.450708 0.638375
vt 0.440471 0.635449
vt 0.430432 0.631120
vt 0.420567 0.626693
vt 0.410646 0.623206
vt 0.400515 0.621059
vt 0.390276 0.633488
vt 0.380360 0.634017
vt 0.370698 0.635429
vt 0.361206 0.637943
vt 0.351630 0.641348
vt 0.341678 0.644864
vt 0.331348 0.647180
vt 0.449335 0.646598
vt 0.438983 0.644383
vt 0.428997 0.640966
vt 0.419387 0.637655
vt 0.409871 0.635235
vt 0.400196 0.633919
vt 0.390341 0.646804
vt 0.380433 0.646881
vt 0.370932 0.647588
vt 0.361779 0.649195
vt 0.352434 0.651697
vt 0.342574 0.654377
vt 0.332181 0.655988
vt 0.448589 0.655413
vt 0.438181 0.653903
vt 0.428295 0.651322
vt 0.418925 0.648912
vt 0.409757 0.647396
vt 0.400250 0.646782
vt 0.390406 0.659972
vt 0.380280 0.659703
vt 0.370771 0.659846
vt 0.361750 0.660783
vt 0.352719 0.662477
vt 0.342908 0.664442
vt 0.332495 0.665414
vt 0.448367 0.664841
vt 0.437946 0.663970
vt 0.428116 0.662103
vt 0.419068 0.660499
vt 0.410038 0.659651
vt 0.400529 0.659603
vt 0.390467 0.672321
vt 0.380102 0.672223
vt 0.370377 0.672172
vt 0.361391 0.672596
vt 0.352532 0.673648
vt 0.342778 0.674996
vt 0.332379 0.675422
vt 0.448582 0.674846
vt 0.438180 0.674522
vt 0.428412 0.673269
vt 0.419544 0.672306
vt 0.410554 0.671971
vt 0.400830 0.672120
vt 0.390528 0.684486
vt 0.379977 0.684472
vt 0.370003 0.684377
vt 0.360864 0.684518
vt 0.351979 0.685117
vt 0.342310 0.685915
vt 0.331928 0.685932
vt 0.449136 0.685349
vt 0.438754 0.685434
vt 0.429078 0.684731
vt 0.420188 0.684220
vt 0.411049 0.684171
vt 0.401078 0.684366
vt 0.390587 0.696242
vt 0.379931 0.696340
vt 0.369679 0.696380
vt 0.360228 0.696466
vt 0.351201 0.696756
vt 0.341603 0.697100
vt 0.331240 0.696845
vt 0.449929 0.696253
vt 0.439570 0.696609
vt 0.429970 0.696359
vt 0.420942 0.696159
vt 0.411493 0.696171
vt 0.401244 0.696234
vt 0.390646 0.707454
vt 0.380022 0.707581
vt 0.369669 0.707964
vt 0.359711 0.708221
vt 0.350389 0.708393
vt 0.340795 0.708432
vt 0.330451 0.708039
vt 0.450825 0.707436
vt 0.440486 0.707930
vt 0.430894 0.707985
vt 0.421574 0.707905
vt 0.411621 0.707755
vt 0.401269 0.707477
vt 0.390705 0.718534
vt 0.380307 0.718689
vt 0.369924 0.718990
vt 0.359563 0.719519
vt 0.349763 0.719835
vt 0.340063 0.719758
vt 0.329731 0.719357
vt 0.451653 0.718740
vt 0.441325 0.719243
vt 0.431624 0.719416
vt 0.421830 0.719199
vt 0.411486 0.718790
vt 0.401104 0.718592
vt 0.390762 0.729614
vt 0.380498 0.729743
vt 0.370079 0.729944
vt 0.359827 0.730332
vt 0.349553 0.730849
vt 0.339557 0.730896
vt 0.329254 0.730597
vt 0.452240 0.729963
vt 0.441936 0.730369
vt 0.431933 0.730411
vt 0.421629 0.730031
vt 0.411496 0.729761
vt 0.401031 0.729642
vt 0.762685 0.010478
vt 0.760865 0.031014
vt 0.733238 0.030914
vt 0.731334 0.010462
vt 0.706157 0.036819
vt 0.700571 0.017043
vt 0.680662 0.048490
vt 0.671584 0.030233
vt 0.657730 0.065484
vt 0.645500 0.049462
vt 0.638242 0.087150
vt 0.623330 0.073984
vt 0.622949 0.112656
vt 0.605933 0.102856
vt 0.612441 0.141023
vt 0.593979 0.134964
vt 0.607124 0.171159
vt 0.587924 0.169064
vt 0.607208 0.201903
vt 0.587924 0.203888
vt 0.612672 0.232074
vt 0.594226 0.238055
vt 0.623325 0.260514
vt 0.606339 0.270236
vt 0.638748 0.286126
vt 0.623877 0.299223
vt 0.658348 0.307927
vt 0.646166 0.323894
vt 0.681368 0.325080
vt 0.672346 0.343297
vt 0.706924 0.336927
vt 0.701405 0.356689
vt 0.734034 0.343014
vt 0.732215 0.363550
vt 0.761662 0.343114
vt 0.763565 0.363566
vt 0.788742 0.337209
vt 0.794328 0.356985
vt 0.814237 0.325538
vt 0.823316 0.343795
vt 0.837170 0.308544
vt 0.849400 0.324566
vt 0.856658 0.286878
vt 0.871569 0.300043
vt 0.871950 0.261371
vt 0.888967 0.271171
vt 0.882458 0.233005
vt 0.900921 0.239064
vt 0.887776 0.202869
vt 0.906976 0.204964
vt 0.887691 0.172125
vt 0.906976 0.170140
vt 0.882228 0.141954
vt 0.900673 0.135972
vt 0.871575 0.113514
vt 0.888560 0.103792
vt 0.856151 0.087902
vt 0.871023 0.074805
vt 0.836552 0.066101
vt 0.848733 0.050134
vt 0.813531 0.048948
vt 0.822553 0.030730
vt 0.200250 0.913557
vt 0.171774 0.919693
vt 0.171073 0.913252
vt 0.198183 0.907418
vt 0.787975 0.037101
vt 0.793495 0.017339
vt 0.758773 0.730591
vt 0.728136 0.730775
vt 0.698088 0.724305
vt 0.669783 0.711430
vt 0.644309 0.692645
vt 0.622646 0.668672
vt 0.605625 0.640431
vt 0.593901 0.609008
vt 0.587924 0.575611
vt 0.587924 0.541523
vt 0.593901 0.508054
vt 0.605625 0.476490
vt 0.622646 0.448045
vt 0.644309 0.423811
vt 0.669783 0.404720
vt 0.698088 0.391505
vt 0.728136 0.384674
vt 0.758773 0.384490
vt 0.788821 0.390960
vt 0.817126 0.403835
vt 0.842600 0.422620
vt 0.864263 0.446593
vt 0.881284 0.474834
vt 0.893008 0.506257
vt 0.898985 0.539654
vt 0.898985 0.573742
vt 0.893008 0.607211
vt 0.881284 0.638775
vt 0.864263 0.667220
vt 0.842599 0.691454
vt 0.817126 0.710545
vt 0.788821 0.723760
vt 0.208375 0.225928
vt 0.222554 0.211402
vt 0.233189 0.226280
vt 0.221524 0.238551
vt 0.287476 0.680998
vt 0.298470 0.710579
vt 0.292226 0.712302
vt 0.281645 0.683819
vt 0.063452 0.630413
vt 0.087500 0.612681
vt 0.090809 0.618249
vt 0.067820 0.635194
vt 0.063438 0.882568
vt 0.043044 0.859766
vt 0.048249 0.855909
vt 0.067800 0.877777
vt 0.298469 0.805089
vt 0.287473 0.834548
vt 0.281631 0.831755
vt 0.292217 0.803401
vt 0.171809 0.594532
vt 0.200281 0.600997
vt 0.198209 0.607136
vt 0.171100 0.600972
vt 0.010462 0.772145
vt 0.010462 0.740241
vt 0.016915 0.740793
vt 0.016912 0.771554
vt 0.227032 0.901375
vt 0.223723 0.895806
vt 0.271489 0.654295
vt 0.266284 0.658152
vt 0.043050 0.652984
vt 0.048266 0.656823
vt 0.087478 0.900573
vt 0.090786 0.895001
vt 0.304068 0.773817
vt 0.297616 0.773265
vt 0.142759 0.594363
vt 0.143460 0.600804
vt 0.016061 0.803479
vt 0.022304 0.801756
vt 0.251080 0.883643
vt 0.246711 0.878862
vt 0.251095 0.631494
vt 0.246734 0.636285
vt 0.027058 0.679509
vt 0.032900 0.682303
vt 0.114253 0.913063
vt 0.116324 0.906923
vt 0.304068 0.741913
vt 0.297619 0.742504
vt 0.114282 0.600498
vt 0.116350 0.606637
vt 0.027054 0.833060
vt 0.032885 0.830239
vt 0.271481 0.861073
vt 0.266265 0.857235
vt 0.227055 0.613488
vt 0.223747 0.619060
vt 0.016062 0.708969
vt 0.022314 0.710657
vt 0.142725 0.919526
vt 0.143434 0.913085
vt 0.705268 0.989538
vt 0.684225 0.989411
vt 0.663588 0.984720
vt 0.644147 0.975643
vt 0.626651 0.962531
vt 0.611772 0.945886
vt 0.600081 0.926349
vt 0.592029 0.904671
vt 0.587924 0.881683
vt 0.587924 0.858271
vt 0.592029 0.835333
vt 0.600081 0.813751
vt 0.611772 0.794354
vt 0.626651 0.777888
vt 0.644147 0.764986
vt 0.663588 0.756143
vt 0.684225 0.751700
vt 0.705268 0.751826
vt 0.725906 0.756518
vt 0.745346 0.765594
vt 0.762842 0.778706
vt 0.777721 0.795351
vt 0.789412 0.814888
vt 0.797464 0.836567
vt 0.801569 0.859554
vt 0.801569 0.882967
vt 0.797464 0.905905
vt 0.789412 0.927487
vt 0.777721 0.946883
vt 0.762842 0.963349
vt 0.745346 0.976251
vt 0.725906 0.985094
vt 0.298209 0.190134
vt 0.318374 0.195004
vt 0.313434 0.212832
vt 0.296548 0.208516
vt 0.339472 0.396200
vt 0.321051 0.403386
vt 0.316252 0.387476
vt 0.331281 0.381709
vt 0.197278 0.243231
vt 0.212526 0.253141
vt 0.277777 0.189385
vt 0.279405 0.207730
vt 0.356025 0.385255
vt 0.344868 0.372789
vt 0.189735 0.262671
vt 0.206543 0.269484
vt 0.257869 0.192776
vt 0.262674 0.210487
vt 0.370181 0.370961
vt 0.356511 0.361033
vt 0.186089 0.283502
vt 0.203814 0.286948
vt 0.381405 0.353829
vt 0.365758 0.346854
vt 0.186522 0.304907
vt 0.204449 0.304853
vt 0.389233 0.334479
vt 0.372206 0.330778
vt 0.191013 0.326049
vt 0.208409 0.322504
vt 0.393304 0.313660
vt 0.375522 0.313419
vt 0.199340 0.346105
vt 0.215512 0.339214
vt 0.393378 0.292295
vt 0.375462 0.295467
vt 0.211069 0.364249
vt 0.225439 0.354323
vt 0.388117 0.271559
vt 0.371890 0.277651
vt 0.225796 0.379730
vt 0.237786 0.367269
vt 0.380401 0.250632
vt 0.365361 0.260475
vt 0.242919 0.391949
vt 0.252047 0.377590
vt 0.369442 0.232256
vt 0.355873 0.244824
vt 0.261795 0.400564
vt 0.267646 0.384939
vt 0.354738 0.216456
vt 0.343730 0.231333
vt 0.281502 0.405634
vt 0.283927 0.389099
vt 0.239251 0.200189
vt 0.247078 0.216803
vt 0.337475 0.203876
vt 0.329381 0.220531
vt 0.301490 0.406590
vt 0.300321 0.389899
vt 0.371604 0.562792
vt 0.319273 0.573438
vt 0.308387 0.475263
vt 0.342986 0.468916
vt 0.362522 0.020260
vt 0.412978 0.040319
vt 0.367946 0.130818
vt 0.335969 0.117558
vt 0.118471 0.066627
vt 0.161886 0.040219
vt 0.206568 0.127256
vt 0.179150 0.145464
vt 0.264955 0.573438
vt 0.272800 0.474591
vt 0.459726 0.070397
vt 0.397421 0.150392
vt 0.208645 0.020780
vt 0.237410 0.116265
vt 0.210654 0.562436
vt 0.237508 0.466835
vt 0.500707 0.109707
vt 0.422911 0.175766
vt 0.158591 0.540281
vt 0.204333 0.451458
vt 0.534215 0.156821
vt 0.442777 0.206044
vt 0.111242 0.507652
vt 0.174460 0.429591
vt 0.556001 0.210920
vt 0.458275 0.239136
vt 0.070698 0.465717
vt 0.149492 0.401968
vt 0.566999 0.267664
vt 0.466086 0.275064
vt 0.038587 0.416289
vt 0.131014 0.369788
vt 0.566788 0.324877
vt 0.467046 0.311758
vt 0.019040 0.360960
vt 0.117468 0.335368
vt 0.555471 0.380098
vt 0.460705 0.347488
vt 0.010462 0.303755
vt 0.111454 0.298968
vt 0.533869 0.431109
vt 0.447636 0.380853
vt 0.013126 0.247060
vt 0.112802 0.262592
vt 0.503205 0.476044
vt 0.428530 0.410643
vt 0.026478 0.193207
vt 0.121045 0.227905
vt 0.464869 0.513405
vt 0.404218 0.435936
vt 0.258573 0.010764
vt 0.269671 0.110419
vt 0.049419 0.144201
vt 0.135450 0.196232
vt 0.420187 0.541909
vt 0.375634 0.456181
vt 0.310422 0.010462
vt 0.302829 0.110784
vt 0.080561 0.101615
vt 0.155131 0.168545
vt 0.302973 0.425480
vt 0.327356 0.421108
vt 0.345376 0.180629
vt 0.322731 0.170638
vt 0.230079 0.177060
vt 0.210440 0.190043
vt 0.278154 0.424232
vt 0.366079 0.195042
vt 0.251816 0.168319
vt 0.254046 0.417725
vt 0.383995 0.213428
vt 0.230900 0.407367
vt 0.398714 0.235092
vt 0.210031 0.392080
vt 0.192404 0.372744
vt 0.414831 0.283661
vt 0.178764 0.350237
vt 0.414673 0.309841
vt 0.169302 0.325635
vt 0.410103 0.335279
vt 0.164670 0.300011
vt 0.400948 0.359023
vt 0.165039 0.274323
vt 0.387540 0.380217
vt 0.170248 0.249623
vt 0.370392 0.398105
vt 0.275149 0.164588
vt 0.179914 0.226857
vt 0.350157 0.411951
vt 0.299041 0.165287
vt 0.193512 0.206798
vt 0.405169 0.259809
vt 0.552969 0.791375
vt 0.531645 0.827317
vt 0.504493 0.811600
vt 0.478481 0.742249
vt 0.478481 0.829945
s 0
usemtl Material
f 1/1/1 13/2/1 14/3/1 2/4/1
f 2/4/2 14/3/2 15/5/2 3/6/2
f 3/6/3 15/5/3 16/7/3 4/8/3
f 4/8/4 16/7/4 17/9/4 5/10/4
f 5/10/5 17/9/5 18/11/5 6/12/5
f 6/12/6 18/11/6 19/13/6 7/14/6
f 7/15/7 19/16/7 20/17/7 8/18/7
f 8/18/8 20/17/8 21/19/8 9/20/8
f 9/20/9 21/19/9 22/21/9 10/22/9
f 10/22/10 22/21/10 23/23/10 11/24/10
f 11/24/11 23/23/11 24/25/11 12/26/11
f 12/26/12 24/25/12 13/2/12 1/1/12
f 13/2/13 25/27/13 26/28/13 14/3/13
f 14/3/14 26/28/14 27/29/14 15/5/14
f 15/5/15 27/29/15 28/30/15 16/7/15
f 16/7/16 28/30/16 29/31/16 17/9/16
f 17/9/17 29/31/17 30/32/17 18/11/17
f 18/11/18 30/32/18 31/33/18 19/13/18
f 19/16/19 31/34/19 32/35/19 20/17/19
f 20/17/20 32/35/20 33/36/20 21/19/20
f 21/19/21 33/36/21 34/37/21 22/21/21
f 22/21/22 34/37/22 35/38/22 23/23/22
f 23/23/23 35/38/23 36/39/23 24/25/23
f 24/25/24 36/39/24 25/27/24 13/2/24
f 25/27/25 37/40/25 38/41/25 26/28/25
f 26/28/26 38/41/26 39/42/26 27/29/26
f 27/29/27 39/42/27 40/43/27 28/30/27
f 28/30/28 40/43/28 41/44/28 29/31/28
f 29/31/29 41/44/29 42/45/29 30/32/29
f 30/32/30 42/45/30 43/46/30 31/33/30
f 31/34/31 43/47/31 44/48/31 32/35/31
f 32/35/32 44/48/32 45/49/32 33/36/32
f 33/36/33 45/49/33 46/50/33 34/37/33
f 34/37/34 46/50/34 47/51/34 35/38/34
f 35/38/35 47/51/35 48/52/35 36/39/35
f 36/39/36 48/52/36 37/40/36 25/27/36
f 37/40/37 49/53/37 50/54/37 38/41/37
f 38/41/38 50/54/38 51/55/38 39/42/38
f 39/42/39 51/55/39 52/56/39 40/43/39
f 40/43/40 52/56/40 53/57/40 41/44/40
f 41/44/41 53/57/41 54/58/41 42/45/41
f 42/45/42 54/58/42 55/59/42 43/46/42
f 43/47/43 55/60/43 56/61/43 44/48/43
f 44/48/44 56/61/44 57/62/44 45/49/44
f 45/49/45 57/62/45 58/63/45 46/50/45
f 46/50/46 58/63/46 59/64/46 47/51/46
f 47/51/47 59/64/47 60/65/47 48/52/47
f 48/52/48 60/65/48 49/53/48 37/40/48
f 49/53/49 61/66/49 62/67/49 50/54/49
f 50/54/50 62/67/50 63/68/50 51/55/50
f 51/55/51 63/68/51 64/69/51 52/56/51
f 52/56/52 64/69/52 65/70/52 53/57/52
f 53/57/53 65/70/53 66/71/53 54/58/53
f 54/58/54 66/71/54 67/72/54 55/59/54
f 55/60/55 67/73/55 68/74/55 56/61/55
f 56/61/56 68/74/56 69/75/56 57/62/56
f 57/62/57 69/75/57 70/76/57 58/63/57
f 58/63/58 70/76/58 71/77/58 59/64/58
f 59/64/59 71/77/59 72/78/59 60/65/59
f 60/65/60 72/78/60 61/66/60 49/53/60
f 61/66/61 73/79/61 74/80/61 62/67/61
f 62/67/62 74/80/62 75/81/62 63/68/62
f 63/68/63 75/81/63 76/82/63 64/69/63
f 64/69/64 76/82/64 77/83/64 65/70/64
f 65/70/65 77/83/65 78/84/65 66/71/65
f 66/71/66 78/84/66 79/85/66 67/72/66
f 67/73/67 79/86/67 80/87/67 68/74/67
f 68/74/68 80/87/68 81/88/68 69/75/68
f 69/75/69 81/88/69 82/89/69 70/76/69
f 70/76/70 82/89/70 83/90/70 71/77/70
f 71/77/71 83/90/71 84/91/71 72/78/71
f 72/78/72 84/91/72 73/79/72 61/66/72
f 73/79/73 85/92/73 86/93/73 74/80/73
f 74/80/74 86/93/74 87/94/74 75/81/74
f 75/81/75 87/94/75 88/95/75 76/82/75
f 76/82/76 88/95/76 89/96/76 77/83/76
f 77/83/77 89/96/77 90/97/77 78/84/77
f 78/84/78 90/97/78 91/98/78 79/85/78
f 79/86/79 91/99/79 92/100/79 80/87/79
f 80/87/80 92/100/80 93/101/80 81/88/80
f 81/88/81 93/101/81 94/102/81 82/89/81
f 82/89/82 94/102/82 95/103/82 83/90/82
f 83/90/83 95/103/83 96/104/83 84/91/83
f 84/91/84 96/104/84 85/92/84 73/79/84
f 85/92/85 97/105/85 98/106/85 86/93/85
f 86/93/86 98/106/86 99/107/86 87/94/86
f 87/94/87 99/107/87 100/108/87 88/95/87
f 88/95/88 100/108/88 101/109/88 89/96/88
f 89/96/89 101/109/89 102/110/89 90/97/89
f 90/97/90 102/110/90 103/111/90 91/98/90
f 91/99/91 103/112/91 104/113/91 92/100/91
f 92/100/92 104/113/92 105/114/92 93/101/92
f 93/101/93 105/114/93 106/115/93 94/102/93
f 94/102/94 106/115/94 107/116/94 95/103/94
f 95/103/95 107/116/95 108/117/95 96/104/95
f 96/104/96 108/117/96 97/105/96 85/92/96
f 97/105/97 109/118/97 110/119/97 98/106/97
f 98/106/98 110/119/98 111/120/98 99/107/98
f 99/107/99 111/120/99 112/121/99 100/108/99
f 100/108/100 112/121/100 113/122/100 101/109/100
f 101/109/101 113/122/101 114/123/101 102/110/101
f 102/110/102 114/123/102 115/124/102 103/111/102
f 103/112/103 115/125/103 116/126/103 104/113/103
f 104/113/104 116/126/104 117/127/104 105/114/104
f 105/114/105 117/127/105 118/128/105 106/115/105
f 106/115/106 118/128/106 119/129/106 107/116/106
f 107/116/107 119/129/107 120/130/107 108/117/107
f 108/117/108 120/130/108 109/118/108 97/105/108
f 109/131/109 121/132/109 122/133/109 110/134/109
f 110/134/110 122/133/110 123/135/110 111/136/110
f 111/136/111 123/135/111 124/137/111 112/138/111
f 112/138/112 124/137/112 125/139/112 113/140/112
f 113/140/113 125/139/113 126/141/113 114/142/113
f 114/142/114 126/141/114 127/143/114 115/144/114
f 115/145/115 127/146/115 128/147/115 116/148/115
f 116/148/116 128/147/116 129/149/116 117/150/116
f 117/150/117 129/149/117 130/151/117 118/152/117
f 118/152/118 130/151/118 131/153/118 119/154/118
f 119/154/119 131/153/119 132/155/119 120/156/119
f 120/156/120 132/155/120 121/132/120 109/131/120
f 121/132/121 133/157/121 134/158/121 122/133/121
f 122/133/122 134/158/122 135/159/122 123/135/122
f 123/135/123 135/159/123 136/160/123 124/137/123
f 124/137/124 136/160/124 137/161/124 125/139/124
f 125/139/125 137/161/125 138/162/125 126/141/125
f 126/141/126 138/162/126 139/163/126 127/143/126
f 127/146/127 139/164/127 140/165/127 128/147/127
f 128/147/128 140/165/128 141/166/128 129/149/128
f 129/149/129 141/166/129 142/167/129 130/151/129
f 130/151/130 142/167/130 143/168/130 131/153/130
f 131/153/131 143/168/131 144/169/131 132/155/131
f 132/155/132 144/169/132 133/157/132 121/132/132
f 133/157/133 145/170/133 146/171/133 134/158/133
f 134/158/134 146/171/134 147/172/134 135/159/134
f 135/159/135 147/172/135 148/173/135 136/160/135
f 136/160/136 148/173/136 149/174/136 137/161/136
f 137/161/137 149/174/137 150/175/137 138/162/137
f 138/162/138 150/175/138 151/176/138 139/163/138
f 139/164/139 151/177/139 152/178/139 140/165/139
f 140/165/140 152/178/140 153/179/140 141/166/140
f 141/166/141 153/179/141 154/180/141 142/167/141
f 142/167/142 154/180/142 155/181/142 143/168/142
f 143/168/143 155/181/143 156/182/143 144/169/143
f 144/169/144 156/182/144 145/170/144 133/157/144
f 157/183/145 169/184/145 170/185/145 158/186/145
f 158/186/146 170/185/146 171/187/146 159/188/146
f 159/188/147 171/187/147 172/189/147 160/190/147
f 160/190/148 172/189/148 173/191/148 161/192/148
f 161/192/149 173/191/149 174/193/149 162/194/149
f 162/194/150 174/193/150 175/195/150 163/196/150
f 163/197/151 175/198/151 176/199/151 164/200/151
f 164/200/152 176/199/152 177/201/152 165/202/152
f 165/202/153 177/201/153 178/203/153 166/204/153
f 166/204/154 178/203/154 179/205/154 167/206/154
f 167/206/155 179/205/155 180/207/155 168/208/155
f 168/208/156 180/207/156 169/184/156 157/183/156
f 169/184/157 181/209/157 182/210/157 170/185/157
f 170/185/158 182/210/158 183/211/158 171/187/158
f 171/187/159 183/211/159 184/212/159 172/189/159
f 172/189/160 184/212/160 185/213/160 173/191/160
f 173/191/161 185/213/161 186/214/161 174/193/161
f 174/193/162 186/214/162 187/215/162 175/195/162
f 175/198/163 187/216/163 188/217/163 176/199/163
f 176/199/164 188/217/164 189/218/164 177/201/164
f 177/201/165 189/218/165 190/219/165 178/203/165
f 178/203/166 190/219/166 191/220/166 179/205/166
f 179/205/167 191/220/167 192/221/167 180/207/167
f 180/207/168 192/221/168 181/209/168 169/184/168
f 181/209/169 193/222/169 194/223/169 182/210/169
f 182/210/170 194/223/170 195/224/170 183/211/170
f 183/211/171 195/224/171 196/225/171 184/212/171
f 184/212/172 196/225/172 197/226/172 185/213/172
f 185/213/173 197/226/173 198/227/173 186/214/173
f 186/214/174 198/227/174 199/228/174 187/215/174
f 187/216/175 199/229/175 200/230/175 188/217/175
f 188/217/176 200/230/176 201/231/176 189/218/176
f 189/218/177 201/231/177 202/232/177 190/219/177
f 190/219/178 202/232/178 203/233/178 191/220/178
f 191/220/179 203/233/179 204/234/179 192/221/179
f 192/221/180 204/234/180 193/222/180 181/209/180
f 193/222/181 205/235/181 206/236/181 194/223/181
f 194/223/182 206/236/182 207/237/182 195/224/182
f 195/224/183 207/237/183 208/238/183 196/225/183
f 196/225/184 208/238/184 209/239/184 197/226/184
f 197/226/185 209/239/185 210/240/185 198/227/185
f 198/227/186 210/240/186 211/241/186 199/228/186
f 199/229/187 211/242/187 212/243/187 200/230/187
f 200/230/188 212/243/188 213/244/188 201/231/188
f 201/231/189 213/244/189 214/245/189 202/232/189
f 202/232/190 214/245/190 215/246/190 203/233/190
f 203/233/191 215/246/191 216/247/191 204/234/191
f 204/234/192 216/247/192 205/235/192 193/222/192
f 205/235/193 217/248/193 218/249/193 206/236/193
f 206/236/194 218/249/194 219/250/194 207/237/194
f 207/237/195 219/250/195 220/251/195 208/238/195
f 208/238/196 220/251/196 221/252/196 209/239/196
f 209/239/197 221/252/197 222/253/197 210/240/197
f 210/240/198 222/253/198 223/254/198 211/241/198
f 211/242/199 223/255/199 224/256/199 212/243/199
f 212/243/200 224/256/200 225/257/200 213/244/200
f 213/244/201 225/257/201 226/258/201 214/245/201
f 214/245/202 226/258/202 227/259/202 215/246/202
f 215/246/203 227/259/203 228/260/203 216/247/203
f 216/247/204 228/260/204 217/248/204 205/235/204
f 217/248/205 229/261/205 230/262/205 218/249/205
f 218/249/206 230/262/206 231/263/206 219/250/206
f 219/250/207 231/263/207 232/264/207 220/251/207
f 220/251/208 232/264/208 233/265/208 221/252/208
f 221/252/209 233/265/209 234/266/209 222/253/209
f 222/253/210 234/266/210 235/267/210 223/254/210
f 223/255/211 235/268/211 236/269/211 224/256/211
f 224/256/212 236/269/212 237/270/212 225/257/212
f 225/257/213 237/270/213 238/271/213 226/258/213
f 226/258/214 238/271/214 239/272/214 227/259/214
f 227/259/215 239/272/215 240/273/215 228/260/215
f 228/260/216 240/273/216 229/261/216 217/248/216
f 229/261/217 241/274/217 242/275/217 230/262/217
f 230/262/218 242/275/218 243/276/218 231/263/218
f 231/263/219 243/276/219 244/277/219 232/264/219
f 232/264/220 244/277/220 245/278/220 233/265/220
f 233/265/221 245/278/221 246/279/221 234/266/221
f 234/266/222 246/279/222 247/280/222 235/267/222
f 235/268/223 247/281/223 248/282/223 236/269/223
f 236/269/224 248/282/224 249/283/224 237/270/224
f 237/270/225 249/283/225 250/284/225 238/271/225
f 238/271/226 250/284/226 251/285/226 239/272/226
f 239/272/227 251/285/227 252/286/227 240/273/227
f 240/273/228 252/286/228 241/274/228 229/261/228
f 241/274/229 253/287/229 254/288/229 242/275/229
f 242/275/230 254/288/230 255/289/230 243/276/230
f 243/276/231 255/289/231 256/290/231 244/277/231
f 244/277/232 256/290/232 257/291/232 245/278/232
f 245/278/233 257/291/233 258/292/233 246/279/233
f 246/279/234 258/292/234 259/293/234 247/280/234
f 247/281/235 259/294/235 260/295/235 248/282/235
f 248/282/236 260/295/236 261/296/236 249/283/236
f 249/283/237 261/296/237 262/297/237 250/284/237
f 250/284/238 262/297/238 263/298/238 251/285/238
f 251/285/239 263/298/239 264/299/239 252/286/239
f 252/286/240 264/299/240 253/287/240 241/274/240
f 253/287/241 265/300/241 266/301/241 254/288/241
f 254/288/242 266/301/242 267/302/242 255/289/242
f 255/289/243 267/302/243 268/303/243 256/290/243
f 256/290/244 268/303/244 269/304/244 257/291/244
f 257/291/245 269/304/245 270/305/245 258/292/245
f 258/292/246 270/305/246 271/306/246 259/293/246
f 259/294/247 271/307/247 272/308/247 260/295/247
f 260/295/248 272/308/248 273/309/248 261/296/248
f 261/296/249 273/309/249 274/310/249 262/297/249
f 262/297/250 274/310/250 275/311/250 263/298/250
f 263/298/251 275/311/251 276/312/251 264/299/251
f 264/299/252 276/312/252 265/300/252 253/287/252
f 265/300/253 277/313/253 278/314/253 266/301/253
f 266/301/254 278/314/254 279/315/254 267/302/254
f 267/302/255 279/315/255 280/316/255 268/303/255
f 268/303/256 280/316/256 281/317/256 269/304/256
f 269/304/257 281/317/257 282/318/257 270/305/257
f 270/305/258 282/318/258 283/319/258 271/306/258
f 271/307/259 283/320/259 284/321/259 272/308/259
f 272/308/260 284/321/260 285/322/260 273/309/260
f 273/309/261 285/322/261 286/323/261 274/310/261
f 274/310/262 286/323/262 287/324/262 275/311/262
f 275/311/263 287/324/263 288/325/263 276/312/263
f 276/312/264 288/325/264 277/313/264 265/300/264
f 277/313/265 289/326/265 290/327/265 278/314/265
f 278/314/266 290/327/266 291/328/266 279/315/266
f 279/315/267 291/328/267 292/329/267 280/316/267
f 280/316/268 292/329/268 293/330/268 281/317/268
f 281/317/269 293/330/269 294/331/269 282/318/269
f 282/318/270 294/331/270 295/332/270 283/319/270
f 283/320/271 295/333/271 296/334/271 284/321/271
f 284/321/272 296/334/272 297/335/272 285/322/272
f 285/322/273 297/335/273 298/336/273 286/323/273
f 286/323/274 298/336/274 299/337/274 287/324/274
f 287/324/275 299/337/275 300/338/275 288/325/275
f 288/325/276 300/338/276 289/326/276 277/313/276
f 289/326/277 1/1/277 2/4/277 290/327/277
f 290/327/278 2/4/278 3/6/278 291/328/278
f 291/328/279 3/6/279 4/8/279 292/329/279
f 292/329/280 4/8/280 5/10/280 293/330/280
f 293/330/281 5/10/281 6/12/281 294/331/281
f 294/331/282 6/12/282 7/14/282 295/332/282
f 295/333/283 7/15/283 8/18/283 296/334/283
f 296/334/284 8/18/284 9/20/284 297/335/284
f 297/335/285 9/20/285 10/22/285 298/336/285
f 298/336/286 10/22/286 11/24/286 299/337/286
f 299/337/287 11/24/287 12/26/287 300/338/287
f 300/338/288 12/26/288 1/1/288 289/326/288
f 301/339/289 302/340/289 304/341/289 303/342/289
f 303/342/290 304/341/290 306/343/290 305/344/290
f 305/344/291 306/343/291 308/345/291 307/346/291
f 307/346/292 308/345/292 310/347/292 309/348/292
f 309/348/293 310/347/293 312/349/293 311/350/293
f 311/350/294 312/349/294 314/351/294 313/352/294
f 313/352/295 314/351/295 316/353/295 315/354/295
f 315/354/296 316/353/296 318/355/296 317/356/296
f 317/356/297 318/355/297 320/357/297 319/358/297
f 319/358/298 320/357/298 322/359/298 321/360/298
f 321/360/299 322/359/299 324/361/299 323/362/299
f 323/362/300 324/361/300 326/363/300 325/364/300
f 325/364/301 326/363/301 328/365/301 327/366/301
f 327/366/302 328/365/302 330/367/302 329/368/302
f 329/368/303 330/367/303 332/369/303 331/370/303
f 331/370/304 332/369/304 334/371/304 333/372/304
f 333/372/305 334/371/305 336/373/305 335/374/305
f 335/374/306 336/373/306 338/375/306 337/376/306
f 337/376/307 338/375/307 340/377/307 339/378/307
f 339/378/308 340/377/308 342/379/308 341/380/308
f 341/380/309 342/379/309 344/381/309 343/382/309
f 343/382/310 344/381/310 346/383/310 345/384/310
f 345/384/311 346/383/311 348/385/311 347/386/311
f 347/386/312 348/385/312 350/387/312 349/388/312
f 349/388/313 350/387/313 352/389/313 351/390/313
f 351/390/314 352/389/314 354/391/314 353/392/314
f 353/392/315 354/391/315 356/393/315 355/394/315
f 355/394/316 356/393/316 358/395/316 357/396/316
f 357/396/317 358/395/317 360/397/317 359/398/317
f 359/398/318 360/397/318 362/399/318 361/400/318
f 306/401/319 304/402/319 365/403/319 367/404/319
f 361/400/320 362/399/320 364/405/320 363/406/320
f 363/406/321 364/405/321 302/340/321 301/339/321
f 301/407/322 303/408/322 305/409/322 307/410/322 309/411/322 311/412/322 313/413/322 315/414/322 317/415/322 319/416/322 321/417/322 323/418/322 325/419/322 327/420/322 329/421/322 331/422/322 333/423/322 335/424/322 337/425/322 339/426/322 341/427/322 343/428/322 345/429/322 347/430/322 349/431/322 351/432/322 353/433/322 355/434/322 357/435/322 359/436/322 361/437/322 363/438/322
f 496/439/323 493/440/323 399/441/323 400/442/323
f 324/443/324 322/444/324 375/445/324 376/446/324
f 342/447/325 340/448/325 384/449/325 385/450/325
f 360/451/326 358/452/326 393/453/326 394/454/326
f 316/455/327 314/456/327 371/457/327 372/458/327
f 334/459/328 332/460/328 380/461/328 381/462/328
f 352/463/329 350/464/329 389/465/329 390/466/329
f 308/467/330 306/401/330 367/404/330 368/468/330
f 326/469/331 324/443/331 376/446/331 377/470/331
f 344/471/332 342/447/332 385/450/332 386/472/332
f 362/473/333 360/451/333 394/454/333 395/474/333
f 318/475/334 316/455/334 372/458/334 373/476/334
f 336/477/335 334/459/335 381/462/335 382/478/335
f 354/479/336 352/463/336 390/466/336 391/480/336
f 310/481/337 308/467/337 368/468/337 369/482/337
f 328/483/338 326/469/338 377/470/338 378/484/338
f 346/485/339 344/471/339 386/472/339 387/486/339
f 364/487/340 362/473/340 395/474/340 396/488/340
f 320/489/341 318/475/341 373/476/341 374/490/341
f 338/491/342 336/477/342 382/478/342 383/492/342
f 356/493/343 354/479/343 391/480/343 392/494/343
f 312/495/344 310/481/344 369/482/344 370/496/344
f 330/497/345 328/483/345 378/484/345 379/498/345
f 348/499/346 346/485/346 387/486/346 388/500/346
f 304/402/347 302/501/347 366/502/347 365/403/347
f 302/501/348 364/487/348 396/488/348 366/502/348
f 322/444/349 320/489/349 374/490/349 375/445/349
f 340/448/350 338/491/350 383/492/350 384/449/350
f 358/452/351 356/493/351 392/494/351 393/453/351
f 314/456/352 312/495/352 370/496/352 371/457/352
f 332/460/353 330/497/353 379/498/353 380/461/353
f 350/464/354 348/499/354 388/500/354 389/465/354
f 397/503/355 398/504/355 428/505/355 427/506/355 426/507/355 425/508/355 424/509/355 423/510/355 422/511/355 421/512/355 420/513/355 419/514/355 418/515/355 417/516/355 416/517/355 415/518/355 414/519/355 413/520/355 412/521/355 411/522/355 410/523/355 409/524/355 408/525/355 407/526/355 406/527/355 405/528/355 404/529/355 403/530/355 402/531/355 401/532/355 400/533/355 399/534/355
f 497/535/356 494/536/356 426/537/356 427/538/356
f 498/539/357 495/540/357 413/541/357 414/542/357
f 499/543/358 496/439/358 400/442/358 401/544/358
f 500/545/359 497/535/359 427/538/359 428/546/359
f 501/547/360 498/539/360 414/542/360 415/548/360
f 502/549/361 499/543/361 401/544/361 402/550/361
f 503/551/362 500/545/362 428/546/362 398/552/362
f 504/553/363 501/547/363 415/548/363 416/554/363
f 505/555/364 502/549/364 402/550/364 403/556/364
f 506/557/365 504/553/365 416/554/365 417/558/365
f 507/559/366 505/555/366 403/556/366 404/560/366
f 508/561/367 506/557/367 417/558/367 418/562/367
f 509/563/368 507/559/368 404/560/368 405/564/368
f 510/565/369 508/561/369 418/562/369 419/566/369
f 511/567/370 509/563/370 405/564/370 406/568/370
f 512/569/371 510/565/371 419/566/371 420/570/371
f 513/571/372 511/567/372 406/568/372 407/572/372
f 514/573/373 512/569/373 420/570/373 421/574/373
f 515/575/374 513/571/374 407/572/374 408/576/374
f 516/577/375 514/573/375 421/574/375 422/578/375
f 517/579/376 515/575/376 408/576/376 409/580/376
f 518/581/377 516/577/377 422/578/377 423/582/377
f 519/583/378 517/579/378 409/580/378 410/584/378
f 520/585/379 518/581/379 423/582/379 424/586/379
f 521/587/380 519/583/380 410/584/380 411/588/380
f 522/589/381 503/551/381 398/552/381 397/590/381
f 523/591/382 520/585/382 424/586/382 425/592/382
f 524/593/383 521/587/383 411/588/383 412/594/383
f 493/440/384 522/589/384 397/590/384 399/441/384
f 494/536/385 523/591/385 425/592/385 426/537/385
f 495/540/386 524/593/386 412/594/386 413/541/386
f 381/595/387 380/596/387 460/597/387 433/598/387
f 394/599/388 393/600/388 459/601/388 431/602/388
f 367/603/389 365/604/389 458/605/389 429/606/389
f 380/596/390 379/607/390 457/608/390 460/597/390
f 393/600/391 392/609/391 456/610/391 459/601/391
f 365/604/392 366/611/392 439/612/392 458/605/392
f 379/607/393 378/613/393 455/614/393 457/608/393
f 392/609/394 391/615/394 454/616/394 456/610/394
f 378/613/395 377/617/395 453/618/395 455/614/395
f 391/615/396 390/619/396 452/620/396 454/616/396
f 377/617/397 376/621/397 451/622/397 453/618/397
f 390/619/398 389/623/398 450/624/398 452/620/398
f 376/621/399 375/625/399 449/626/399 451/622/399
f 389/623/400 388/627/400 448/628/400 450/624/400
f 375/625/401 374/629/401 447/630/401 449/626/401
f 388/627/402 387/631/402 446/632/402 448/628/402
f 374/629/403 373/633/403 445/634/403 447/630/403
f 387/631/404 386/635/404 444/636/404 446/632/404
f 373/633/405 372/637/405 443/638/405 445/634/405
f 386/635/406 385/639/406 442/640/406 444/636/406
f 372/637/407 371/641/407 441/642/407 443/638/407
f 385/639/408 384/643/408 440/644/408 442/640/408
f 371/641/409 370/645/409 438/646/409 441/642/409
f 384/643/410 383/647/410 437/648/410 440/644/410
f 366/611/411 396/649/411 436/650/411 439/612/411
f 370/645/412 369/651/412 435/652/412 438/646/412
f 383/647/413 382/653/413 434/654/413 437/648/413
f 396/649/414 395/655/414 432/656/414 436/650/414
f 369/651/415 368/657/415 430/658/415 435/652/415
f 382/653/416 381/595/416 433/598/416 434/654/416
f 395/655/417 394/599/417 431/602/417 432/656/417
f 368/657/418 367/603/418 429/606/418 430/658/418
f 433/598/419 460/597/419 492/659/419 463/660/419
f 431/602/420 459/601/420 491/661/420 462/662/420
f 429/606/421 458/605/421 490/663/421 461/664/421
f 460/597/422 457/608/422 489/665/422 492/659/422
f 459/601/423 456/610/423 488/666/423 491/661/423
f 458/605/424 439/612/424 471/667/424 490/663/424
f 457/608/425 455/614/425 487/668/425 489/665/425
f 456/610/426 454/616/426 486/669/426 488/666/426
f 455/614/427 453/618/427 485/670/427 487/668/427
f 454/616/428 452/620/428 484/671/428 486/669/428
f 453/618/429 451/622/429 483/672/429 485/670/429
f 452/620/430 450/624/430 484/671/430
f 451/622/431 449/626/431 481/673/431 483/672/431
f 450/624/432 448/628/432 480/674/432
f 449/626/433 447/630/433 479/675/433 481/673/433
f 448/628/434 446/632/434 478/676/434 480/674/434
f 447/630/435 445/634/435 477/677/435 479/675/435
f 446/632/436 444/636/436 476/678/436 478/676/436
f 445/634/437 443/638/437 475/679/437 477/677/437
f 444/636/438 442/640/438 474/680/438 476/678/438
f 443/638/439 441/642/439 473/681/439 475/679/439
f 442/640/440 440/644/440 472/682/440 474/680/440
f 441/642/441 438/646/441 470/683/441 473/681/441
f 440/644/442 437/648/442 469/684/442 472/682/442
f 439/612/443 436/650/443 468/685/443 471/667/443
f 438/646/444 435/652/444 467/686/444 470/683/444
f 437/648/445 434/654/445 466/687/445 469/684/445
f 436/650/446 432/656/446 465/688/446 468/685/446
f 435/652/447 430/658/447 464/689/447 467/686/447
f 434/654/448 433/598/448 463/660/448 466/687/448
f 432/656/449 431/602/449 462/662/449 465/688/449
f 430/658/450 429/606/450 461/664/450 464/689/450
f 463/660/451 492/659/451 524/593/451 495/540/451
f 462/662/452 491/661/452 523/591/452 494/536/452
f 461/664/453 490/663/453 522/589/453 493/440/453
f 492/659/454 489/665/454 521/587/454 524/593/454
f 491/661/455 488/666/455 520/585/455 523/591/455
f 490/663/456 471/667/456 503/551/456 522/589/456
f 489/665/457 487/668/457 519/583/457 521/587/457
f 488/666/458 486/669/458 518/581/458 520/585/458
f 487/668/459 485/670/459 517/579/459 519/583/459
f 486/669/460 484/671/460 516/577/460 518/581/460
f 485/670/461 483/672/461 515/575/461 517/579/461
f 484/671/462 482/690/462 514/573/462 516/577/462
f 483/672/463 481/673/463 513/571/463 515/575/463
f 482/690/464 480/674/464 512/569/464 514/573/464
f 481/673/465 479/675/465 511/567/465 513/571/465
f 480/674/466 478/676/466 510/565/466 512/569/466
f 479/675/467 477/677/467 509/563/467 511/567/467
f 478/676/468 476/678/468 508/561/468 510/565/468
f 477/677/469 475/679/469 507/559/469 509/563/469
f 476/678/470 474/680/470 506/557/470 508/561/470
f 475/679/471 473/681/471 505/555/471 507/559/471
f 474/680/472 472/682/472 504/553/472 506/557/472
f 473/681/473 470/683/473 502/549/473 505/555/473
f 472/682/474 469/684/474 501/547/474 504/553/474
f 471/667/475 468/685/475 500/545/475 503/551/475
f 470/683/476 467/686/476 499/543/476 502/549/476
f 469/684/477 466/687/477 498/539/477 501/547/477
f 468/685/478 465/688/478 497/535/478 500/545/478
f 467/686/479 464/689/479 496/439/479 499/543/479
f 466/687/480 463/660/480 495/540/480 498/539/480
f 465/688/481 462/662/481 494/536/481 497/535/481
f 464/689/482 461/664/482 493/440/482 496/439/482
f 480/691/483 482/692/483 525/693/483
f 450/694/484 480/691/484 525/693/484
f 484/695/485 450/694/485 525/693/485
f 482/692/486 484/695/486 525/693/486
