# Blender 5.1.0
# www.blender.org
mtllib espressomachine.mtl
o Cube
v 1.000000 0.190884 -0.870332
v 1.000000 -0.190884 -0.870332
v -1.000000 0.190884 -0.870332
v -1.000000 -0.190884 -0.870332
v -1.000000 -0.190884 0.000000
v 1.000000 0.190884 0.000000
v -1.000000 0.190884 0.000000
v 1.000000 -0.190884 0.000000
v 1.000000 3.190884 -0.870332
v -1.000000 3.190884 -0.870332
v 1.000000 3.190884 0.000000
v -1.000000 3.190884 0.000000
v -1.000000 1.690884 0.000000
v -1.000000 1.690884 -0.870332
v 1.000000 1.690884 0.000000
v 1.000000 1.690884 -0.870332
v 0.625250 3.190884 2.000000
v 1.000000 3.190884 1.625250
v 0.741054 3.190884 1.981658
v 0.845523 3.190884 1.928429
v 0.928429 3.190884 1.845523
v 0.981658 3.190884 1.741054
v -1.000000 3.190884 1.625250
v -0.625250 3.190884 2.000000
v -0.981658 3.190884 1.741054
v -0.928429 3.190884 1.845523
v -0.845523 3.190884 1.928429
v -0.741054 3.190884 1.981658
v -0.625250 1.690884 2.000000
v -1.000000 1.690884 1.625250
v -0.741054 1.690884 1.981658
v -0.845523 1.690884 1.928429
v -0.928429 1.690884 1.845523
v -0.981658 1.690884 1.741054
v 1.000000 1.690884 1.625250
v 0.625250 1.690884 2.000000
v 0.981658 1.690884 1.741054
v 0.928429 1.690884 1.845523
v 0.845523 1.690884 1.928429
v 0.741054 1.690884 1.981658
v 0.739391 0.190884 1.870332
v 1.000000 0.190884 1.609723
v 0.819924 0.190884 1.857577
v 0.892573 0.190884 1.820560
v 0.950228 0.190884 1.762905
v 0.987245 0.190884 1.690256
v 1.000000 -0.190884 1.609723
v 0.739391 -0.190884 1.870332
v 0.987245 -0.190884 1.690256
v 0.950228 -0.190884 1.762905
v 0.892573 -0.190884 1.820560
v 0.819924 -0.190884 1.857577
v -1.000000 0.190884 1.609723
v -0.739391 0.190884 1.870332
v -0.987245 0.190884 1.690256
v -0.950228 0.190884 1.762905
v -0.892573 0.190884 1.820560
v -0.819924 0.190884 1.857577
v -0.739391 -0.190884 1.870332
v -1.000000 -0.190884 1.609723
v -0.819924 -0.190884 1.857577
v -0.892573 -0.190884 1.820560
v -0.950228 -0.190884 1.762905
v -0.987245 -0.190884 1.690256
vn -1.0000 -0.0000 -0.0000
vn -0.0000 -0.0000 -1.0000
vn 1.0000 -0.0000 -0.0000
vn -0.0000 -1.0000 -0.0000
vn -0.0000 1.0000 -0.0000
vn -0.0000 -0.0000 1.0000
vn -0.1564 -0.0000 0.9877
vn -0.4540 -0.0000 0.8910
vn -0.7071 -0.0000 0.7071
vn -0.8910 -0.0000 0.4540
vn -0.9877 -0.0000 0.1564
vn 0.9877 -0.0000 0.1564
vn 0.8910 -0.0000 0.4540
vn 0.7071 -0.0000 0.7071
vn 0.4540 -0.0000 0.8910
vn 0.1564 -0.0000 0.9877
vt 0.413051 0.107933
vt 0.367009 0.113031
vt 0.355647 0.006620
vt 0.400866 0.000176
vt 0.684145 0.334534
vt 0.686698 0.382746
vt 0.442399 0.384172
vt 0.441962 0.339704
vt 0.401348 0.917114
vt 0.356131 0.911893
vt 0.364350 0.806608
vt 0.410399 0.810808
vt 0.436698 0.237166
vt 0.678940 0.226259
vt 0.179508 0.017342
vt 0.186657 0.121901
vt 0.004609 0.126743
vt 0.000176 0.022905
vt 0.929038 0.999824
vt 0.687050 0.999034
vt 0.687684 0.893813
vt 0.929825 0.894173
vt 0.440286 0.559230
vt 0.680973 0.571964
vt 0.662926 0.756164
vt 0.423869 0.736983
vt 0.183831 0.798566
vt 0.178719 0.903264
vt 0.000176 0.901035
vt 0.001520 0.795041
vt 0.929587 0.424640
vt 0.687409 0.424336
vt 0.687756 0.242817
vt 0.929968 0.242719
vt 0.194227 0.385984
vt 0.012637 0.386168
vt 0.012571 0.372591
vt 0.194548 0.371890
vt 0.012457 0.359009
vt 0.194365 0.357953
vt 0.012299 0.345422
vt 0.194157 0.344023
vt 0.012095 0.331828
vt 0.193933 0.330088
vt 0.011843 0.318226
vt 0.193655 0.316146
vt 0.190717 0.604430
vt 0.008560 0.601089
vt 0.008922 0.587296
vt 0.191044 0.590505
vt 0.009264 0.573515
vt 0.191322 0.576592
vt 0.009592 0.559747
vt 0.191581 0.562690
vt 0.009910 0.545989
vt 0.191814 0.548792
vt 0.010219 0.532247
vt 0.192175 0.534896
vt 0.687050 0.697490
vt 0.689137 0.683532
vt 0.695465 0.670893
vt 0.705431 0.660806
vt 0.718052 0.654283
vt 0.732117 0.651963
vt 0.883751 0.651437
vt 0.897775 0.653559
vt 0.910483 0.659926
vt 0.920632 0.669926
vt 0.927231 0.682581
vt 0.929635 0.696703
vt 0.687050 0.046336
vt 0.689192 0.032316
vt 0.695577 0.019644
vt 0.705567 0.009568
vt 0.718187 0.003079
vt 0.732187 0.000813
vt 0.883674 0.000176
vt 0.897678 0.002273
vt 0.910382 0.008618
vt 0.920542 0.018608
vt 0.927161 0.031259
vt 0.929597 0.045410
vt 0.423198 0.366500
vt 0.376747 0.366795
vt 0.376791 0.356349
vt 0.423369 0.355780
vt 0.376912 0.345902
vt 0.423481 0.345002
vt 0.377029 0.335475
vt 0.423518 0.334160
vt 0.377095 0.325071
vt 0.423441 0.323264
vt 0.377095 0.314687
vt 0.423206 0.312332
vt 0.376350 0.554933
vt 0.422566 0.556002
vt 0.422494 0.566707
vt 0.375987 0.565291
vt 0.422309 0.577426
vt 0.375724 0.575637
vt 0.422027 0.588152
vt 0.375485 0.585965
vt 0.421637 0.598869
vt 0.375219 0.596273
vt 0.421111 0.609557
vt 0.374898 0.606563
vt 0.929442 0.619545
vt 0.927891 0.629306
vt 0.923397 0.638109
vt 0.916409 0.645086
vt 0.907613 0.649557
vt 0.897873 0.651085
vt 0.718763 0.651041
vt 0.709038 0.649535
vt 0.700235 0.645081
vt 0.693217 0.638103
vt 0.688675 0.629291
vt 0.687050 0.619456
vt 0.423869 0.044497
vt 0.424744 0.034727
vt 0.428621 0.025700
vt 0.435119 0.018308
vt 0.443604 0.013283
vt 0.453244 0.011125
vt 0.632449 0.000176
vt 0.642282 0.001065
vt 0.651393 0.004957
vt 0.658893 0.011486
vt 0.664051 0.020018
vt 0.666365 0.029758
s 0
usemtl Material
f 5/1/1 7/2/1 3/3/1 4/4/1
f 4/5/2 3/6/2 1/7/2 2/8/2
f 2/9/3 1/10/3 6/11/3 8/12/3
f 4/5/4 2/8/4 8/13/4 5/14/4
f 14/15/1 13/16/1 12/17/1 10/18/1
f 9/19/5 10/20/5 12/21/5 11/22/5
f 16/23/2 14/24/2 10/25/2 9/26/2
f 15/27/3 16/28/3 9/29/3 11/30/3
f 6/11/3 1/10/3 16/28/3 15/27/3
f 1/7/2 3/6/2 14/24/2 16/23/2
f 7/31/6 6/32/6 15/33/6 13/34/6
f 3/3/1 7/2/1 13/16/1 14/15/1
f 29/35/7 24/36/7 28/37/7 31/38/7
f 31/38/8 28/37/8 27/39/8 32/40/8
f 32/40/9 27/39/9 26/41/9 33/42/9
f 33/42/10 26/41/10 25/43/10 34/44/10
f 34/44/11 25/43/11 23/45/11 30/46/11
f 35/47/12 18/48/12 22/49/12 37/50/12
f 37/50/13 22/49/13 21/51/13 38/52/13
f 38/52/14 21/51/14 20/53/14 39/54/14
f 39/54/15 20/53/15 19/55/15 40/56/15
f 40/56/16 19/55/16 17/57/16 36/58/16
f 29/35/6 36/58/6 17/57/6 24/36/6
f 15/27/3 11/30/3 18/48/3 35/47/3
f 11/22/5 12/21/5 23/59/5 25/60/5 26/61/5 27/62/5 28/63/5 24/64/5 17/65/5 19/66/5 20/67/5 21/68/5 22/69/5 18/70/5
f 12/17/1 13/16/1 30/46/1 23/45/1
f 13/34/4 15/33/4 35/71/4 37/72/4 38/73/4 39/74/4 40/75/4 36/76/4 29/77/4 31/78/4 32/79/4 33/80/4 34/81/4 30/82/4
f 59/83/7 54/84/7 58/85/7 61/86/7
f 61/86/8 58/85/8 57/87/8 62/88/8
f 62/88/9 57/87/9 56/89/9 63/90/9
f 63/90/10 56/89/10 55/91/10 64/92/10
f 64/92/11 55/91/11 53/93/11 60/94/11
f 41/95/16 48/96/16 52/97/16 43/98/16
f 43/98/15 52/97/15 51/99/15 44/100/15
f 44/100/14 51/99/14 50/101/14 45/102/14
f 45/102/13 50/101/13 49/103/13 46/104/13
f 46/104/12 49/103/12 47/105/12 42/106/12
f 8/12/3 6/11/3 42/106/3 47/105/3
f 48/96/6 41/95/6 54/84/6 59/83/6
f 6/32/5 7/31/5 53/107/5 55/108/5 56/109/5 57/110/5 58/111/5 54/112/5 41/113/5 43/114/5 44/115/5 45/116/5 46/117/5 42/118/5
f 5/14/4 8/13/4 47/119/4 49/120/4 50/121/4 51/122/4 52/123/4 48/124/4 59/125/4 61/126/4 62/127/4 63/128/4 64/129/4 60/130/4
f 60/94/1 53/93/1 7/2/1 5/1/1
