# Blender 5.1.0
# www.blender.org
mtllib kettle.mtl
o Torus
v 1.481207 1.185812 -0.000000
v 1.460910 1.185812 -0.075751
v 1.405456 1.185812 -0.131204
v 1.329705 1.185812 -0.151502
v 1.253955 1.185812 -0.131204
v 1.199047 1.186240 -0.075751
v 1.180099 1.187238 -0.000000
v 1.199047 1.186240 0.075751
v 1.253955 1.185812 0.131204
v 1.329705 1.185812 0.151502
v 1.405456 1.185812 0.131204
v 1.460910 1.185812 0.075751
v 1.474726 1.086937 -0.000000
v 1.454603 1.089586 -0.075751
v 1.399624 1.096825 -0.131204
v 1.324521 1.106712 -0.151502
v 1.249418 1.116600 -0.131204
v 1.194439 1.123838 -0.075751
v 1.174315 1.126487 -0.000000
v 1.194439 1.123838 0.075751
v 1.249418 1.116600 0.131204
v 1.324521 1.106712 0.151502
v 1.399624 1.096825 0.131204
v 1.454603 1.089586 0.075751
v 1.455396 0.989754 -0.000000
v 1.435790 0.995008 -0.075751
v 1.382226 1.009360 -0.131204
v 1.309056 1.028966 -0.151502
v 1.235887 1.048572 -0.131204
v 1.182323 1.062924 -0.075751
v 1.162717 1.068177 -0.000000
v 1.182323 1.062924 0.075751
v 1.235887 1.048572 0.131204
v 1.309056 1.028966 0.151502
v 1.382226 1.009360 0.131204
v 1.435790 0.995008 0.075751
v 1.423545 0.895926 -0.000000
v 1.404793 0.903694 -0.075751
v 1.353560 0.924915 -0.131204
v 1.283576 0.953903 -0.151502
v 1.213591 0.982892 -0.131204
v 1.162359 1.004113 -0.075751
v 1.143607 1.011880 -0.000000
v 1.162359 1.004113 0.075751
v 1.213591 0.982892 0.131204
v 1.283576 0.953903 0.151502
v 1.353560 0.924915 0.131204
v 1.404793 0.903694 0.075751
v 1.379720 0.807058 -0.000000
v 1.362142 0.817206 -0.075751
v 1.314118 0.844933 -0.131204
v 1.248516 0.882808 -0.151502
v 1.182914 0.920684 -0.131204
v 1.134890 0.948411 -0.075751
v 1.117312 0.958559 -0.000000
v 1.134890 0.948411 0.075751
v 1.182914 0.920684 0.131204
v 1.248516 0.882808 0.151502
v 1.314118 0.844933 0.131204
v 1.362142 0.817206 0.075751
v 1.324671 0.724670 -0.000000
v 1.308568 0.737026 -0.075751
v 1.264574 0.770784 -0.131204
v 1.204476 0.816898 -0.151502
v 1.144379 0.863013 -0.131204
v 1.100385 0.896771 -0.075751
v 1.084282 0.909127 -0.000000
v 1.100385 0.896771 0.075751
v 1.144379 0.863013 0.131204
v 1.204476 0.816898 0.151502
v 1.264574 0.770784 0.131204
v 1.308568 0.737026 0.075751
v 1.259338 0.650173 -0.000000
v 1.244986 0.664525 -0.075751
v 1.205774 0.703736 -0.131204
v 1.152210 0.757300 -0.151502
v 1.098646 0.810864 -0.131204
v 1.059435 0.850076 -0.075751
v 1.045083 0.864428 -0.000000
v 1.059435 0.850076 0.075751
v 1.098646 0.810864 0.131204
v 1.152210 0.757300 0.151502
v 1.205774 0.703736 0.131204
v 1.244986 0.664525 0.075751
v 1.184841 0.584840 -0.000000
v 1.172485 0.600943 -0.075751
v 1.138727 0.644937 -0.131204
v 1.092613 0.705035 -0.151502
v 1.046498 0.765132 -0.131204
v 1.012740 0.809126 -0.075751
v 1.000384 0.825229 -0.000000
v 1.012740 0.809126 0.075751
v 1.046498 0.765132 0.131204
v 1.092613 0.705035 0.151502
v 1.138727 0.644937 0.131204
v 1.172485 0.600943 0.075751
v 1.102453 0.529790 -0.000000
v 1.092304 0.547368 -0.075751
v 1.064578 0.595393 -0.131204
v 1.026702 0.660995 -0.151502
v 0.988827 0.726597 -0.131204
v 0.961100 0.774621 -0.075751
v 0.950951 0.792199 -0.000000
v 0.961100 0.774621 0.075751
v 0.988827 0.726597 0.131204
v 1.026702 0.660995 0.151502
v 1.064578 0.595393 0.131204
v 1.092304 0.547368 0.075751
v 1.013585 0.485966 -0.000000
v 1.005817 0.504718 -0.075751
v 0.984596 0.555950 -0.131204
v 0.955608 0.625935 -0.151502
v 0.926619 0.695919 -0.131204
v 0.905398 0.747152 -0.075751
v 0.897631 0.765904 -0.000000
v 0.905398 0.747152 0.075751
v 0.926619 0.695919 0.131204
v 0.955608 0.625935 0.151502
v 0.984596 0.555950 0.131204
v 1.005817 0.504718 0.075751
v 0.919756 0.454115 -0.000000
v 0.914503 0.473721 -0.075751
v 0.900151 0.527285 -0.131204
v 0.880545 0.600455 -0.151502
v 0.860939 0.673624 -0.131204
v 0.846587 0.727188 -0.075751
v 0.841333 0.746794 -0.000000
v 0.846587 0.727188 0.075751
v 0.860939 0.673624 0.131204
v 0.880545 0.600455 0.151502
v 0.900151 0.527285 0.131204
v 0.914503 0.473721 0.075751
v 0.677080 1.935969 -0.000000
v 0.683326 1.916656 -0.075751
v 0.700389 1.863894 -0.131204
v 0.723699 1.791818 -0.151502
v 0.747009 1.719743 -0.131204
v 0.764072 1.666980 -0.075751
v 0.770318 1.647668 -0.000000
v 0.764072 1.666980 0.075751
v 0.747009 1.719743 0.131204
v 0.723699 1.791818 0.151502
v 0.700389 1.863894 0.131204
v 0.683326 1.916656 0.075751
v 0.776147 1.959319 -0.000000
v 0.779330 1.939344 -0.075751
v 0.788218 1.884794 -0.131204
v 0.800777 1.810328 -0.151502
v 0.813758 1.735910 -0.131204
v 0.823487 1.681455 -0.075751
v 0.827091 1.661528 -0.000000
v 0.823487 1.681455 0.075751
v 0.813758 1.735909 0.131204
v 0.800777 1.810328 0.151502
v 0.788218 1.884794 0.131204
v 0.779330 1.939344 0.075751
v 0.882682 1.961998 -0.000000
v 0.881983 1.942173 -0.075751
v 0.880704 1.887959 -0.131204
v 0.880365 1.813788 -0.151502
v 0.881493 1.739494 -0.131204
v 0.883134 1.685031 -0.075751
v 0.883888 1.665080 -0.000000
v 0.883134 1.685031 0.075751
v 0.881493 1.739494 0.131204
v 0.880365 1.813788 0.151502
v 0.880704 1.887959 0.131204
v 0.881983 1.942173 0.075751
v 0.990974 1.938119 -0.000000
v 0.986155 1.919668 -0.075751
v 0.973929 1.869416 -0.131204
v 0.960037 1.799156 -0.151502
v 0.948665 1.728183 -0.131204
v 0.941878 1.675986 -0.075751
v 0.939692 1.656793 -0.000000
v 0.941878 1.675986 0.075751
v 0.948665 1.728183 0.131204
v 0.960037 1.799156 0.151502
v 0.973929 1.869416 0.131204
v 0.986155 1.919668 0.075751
v 1.093562 1.887512 -0.000000
v 1.084725 1.872951 -0.075751
v 1.062854 1.829439 -0.131204
v 1.036399 1.766887 -0.151502
v 1.013061 1.701763 -0.131204
v 0.997953 1.653625 -0.075751
v 0.992925 1.636023 -0.000000
v 0.997953 1.653625 0.075751
v 1.013061 1.701763 0.131204
v 1.036399 1.766887 0.151502
v 1.062854 1.829439 0.131204
v 1.084725 1.872951 0.075751
v 1.184212 1.816416 -0.000000
v 1.172723 1.807065 -0.075751
v 1.143300 1.771207 -0.131204
v 1.106109 1.717373 -0.151502
v 1.072287 1.661313 -0.131204
v 1.049336 1.618345 -0.075751
v 1.041762 1.603077 -0.000000
v 1.049336 1.618345 0.075751
v 1.072287 1.661313 0.131204
v 1.106109 1.717373 0.151502
v 1.143300 1.771207 0.131204
v 1.172723 1.807065 0.075751
v 1.261452 1.740026 -0.000000
v 1.248163 1.729734 -0.075751
v 1.212706 1.698934 -0.131204
v 1.166721 1.654495 -0.151502
v 1.123977 1.608103 -0.131204
v 1.094168 1.571552 -0.075751
v 1.084480 1.559150 -0.000000
v 1.094168 1.571552 0.075751
v 1.123977 1.608103 0.131204
v 1.166721 1.654495 0.151502
v 1.212706 1.698934 0.131204
v 1.248163 1.729734 0.075751
v 1.326427 1.654443 -0.000000
v 1.311203 1.644753 -0.075751
v 1.270455 1.618394 -0.131204
v 1.217070 1.582188 -0.151502
v 1.166639 1.544873 -0.131204
v 1.131394 1.515877 -0.075751
v 1.119759 1.506145 -0.000000
v 1.131394 1.515877 0.075751
v 1.166639 1.544873 0.131204
v 1.217070 1.582188 0.151502
v 1.270455 1.618394 0.131204
v 1.311203 1.644753 0.075751
v 1.379949 1.565227 -0.000000
v 1.362731 1.556006 -0.075751
v 1.316870 1.532906 -0.131204
v 1.256750 1.503547 -0.151502
v 1.199745 1.474870 -0.131204
v 1.160218 1.453590 -0.075751
v 1.146876 1.446410 -0.000000
v 1.160218 1.453590 0.075751
v 1.199745 1.474870 0.131204
v 1.256750 1.503547 0.151502
v 1.316870 1.532906 0.131204
v 1.362731 1.556006 0.075751
v 1.423545 1.475698 -0.000000
v 1.404793 1.467931 -0.075751
v 1.353725 1.447010 -0.131204
v 1.286807 1.422601 -0.151502
v 1.223737 1.401390 -0.131204
v 1.180560 1.387173 -0.075751
v 1.165766 1.382443 -0.000000
v 1.180560 1.387173 0.075751
v 1.223737 1.401390 0.131204
v 1.286807 1.422601 0.151502
v 1.353725 1.447010 0.131204
v 1.404793 1.467931 0.075751
v 1.455396 1.381869 -0.000000
v 1.435790 1.376616 -0.075751
v 1.382226 1.362263 -0.131204
v 1.309197 1.342842 -0.151502
v 1.239835 1.327403 -0.131204
v 1.193065 1.319130 -0.075751
v 1.176945 1.316621 -0.000000
v 1.193065 1.319130 0.075751
v 1.239835 1.327403 0.131204
v 1.309197 1.342842 0.151502
v 1.382226 1.362263 0.131204
v 1.435790 1.376616 0.075751
v 1.474726 1.284686 -0.000000
v 1.454603 1.282037 -0.075751
v 1.399624 1.274799 -0.131204
v 1.324521 1.264912 -0.151502
v 1.249768 1.255366 -0.131204
v 1.198809 1.251598 -0.075751
v 1.181346 1.251008 -0.000000
v 1.198809 1.251598 0.075751
v 1.249768 1.255366 0.131204
v 1.324521 1.264912 0.151502
v 1.399624 1.274799 0.131204
v 1.454603 1.282037 0.075751
v 0.000000 -0.047163 -1.000000
v 0.000000 0.049988 -0.903031
v 0.195090 -0.047163 -0.980785
v 0.176173 0.049988 -0.885680
v 0.382683 -0.047163 -0.923880
v 0.345575 0.049988 -0.834292
v 0.555570 -0.047163 -0.831470
v 0.501697 0.049988 -0.750843
v 0.707107 -0.047163 -0.707107
v 0.638540 0.049988 -0.638540
v 0.831470 -0.047163 -0.555570
v 0.750843 0.049988 -0.501697
v 0.923880 -0.047163 -0.382683
v 0.834292 0.049988 -0.345575
v 0.980785 -0.047163 -0.195090
v 0.885680 0.049988 -0.176173
v 1.000000 -0.047163 0.000000
v 0.903031 0.049988 -0.000000
v 0.980785 -0.047163 0.195090
v 0.885680 0.049988 0.176173
v 0.923880 -0.047163 0.382683
v 0.834292 0.049988 0.345575
v 0.831470 -0.047163 0.555570
v 0.750843 0.049988 0.501697
v 0.707107 -0.047163 0.707107
v 0.638540 0.049988 0.638540
v 0.555570 -0.047163 0.831470
v 0.501697 0.049988 0.750843
v 0.382683 -0.047163 0.923880
v 0.345575 0.049988 0.834292
v 0.195090 -0.047163 0.980785
v 0.176173 0.049988 0.885680
v 0.000000 -0.047163 1.000000
v 0.000000 0.049988 0.903031
v -0.195090 -0.047163 0.980785
v -0.176173 0.049988 0.885680
v -0.382683 -0.047163 0.923880
v -0.345575 0.049988 0.834292
v -0.555570 -0.047163 0.831470
v -0.501697 0.049988 0.750843
v -0.707107 -0.047163 0.707107
v -0.638540 0.049988 0.638540
v -0.831470 -0.047163 0.555570
v -0.750843 0.049988 0.501697
v -0.923880 -0.047163 0.382683
v -0.834292 0.049988 0.345575
v -0.980785 -0.047163 0.195090
v -0.885680 0.049988 0.176173
v -1.000000 -0.047163 0.000000
v -0.903031 0.049988 -0.000000
v -0.980785 -0.047163 -0.195090
v -0.885680 0.049988 -0.176173
v -0.923880 -0.047163 -0.382683
v -0.834292 0.049988 -0.345575
v -0.831470 -0.047163 -0.555570
v -0.750843 0.049988 -0.501697
v -0.707107 -0.047163 -0.707107
v -0.638540 0.049988 -0.638540
v -0.555570 -0.047163 -0.831470
v -0.501697 0.049988 -0.750843
v -0.382683 -0.047163 -0.923880
v -0.345575 0.049988 -0.834292
v -0.195090 -0.047163 -0.980785
v -0.176173 0.049988 -0.885680
v 0.176173 0.102615 -0.885680
v 0.000000 0.102615 -0.903031
v 0.345575 0.102615 -0.834292
v 0.501697 0.102615 -0.750843
v 0.638540 0.102615 -0.638540
v 0.750843 0.102615 -0.501697
v 0.834292 0.102615 -0.345575
v 0.885680 0.102615 -0.176173
v 0.903031 0.102615 -0.000000
v 0.885680 0.102615 0.176173
v 0.834292 0.102615 0.345575
v 0.750843 0.102615 0.501697
v 0.638540 0.102615 0.638540
v 0.501697 0.102615 0.750843
v 0.345575 0.102615 0.834292
v 0.176173 0.102615 0.885680
v 0.000000 0.102615 0.903031
v -0.176173 0.102615 0.885680
v -0.345575 0.102615 0.834292
v -0.501697 0.102615 0.750843
v -0.638540 0.102615 0.638540
v -0.750843 0.102615 0.501697
v -0.834292 0.102615 0.345575
v -0.885680 0.102615 0.176173
v -0.903031 0.102615 -0.000000
v -0.885680 0.102615 -0.176173
v -0.834292 0.102615 -0.345575
v -0.750843 0.102615 -0.501697
v -0.638540 0.102615 -0.638540
v -0.501697 0.102615 -0.750843
v -0.345575 0.102615 -0.834292
v -0.176173 0.102615 -0.885680
v 0.154778 1.958604 -0.579711
v 0.020785 1.958604 -0.592908
v 0.283623 1.958604 -0.540627
v 0.402366 1.958604 -0.477157
v 0.506446 1.958604 -0.391741
v 0.591861 1.958604 -0.287662
v 0.655331 1.958604 -0.168918
v 0.694416 1.958604 -0.040074
v 0.707613 1.958604 0.093920
v 0.694416 1.958604 0.227913
v 0.655331 1.958604 0.356757
v 0.591861 1.958604 0.475501
v 0.506446 1.958604 0.579580
v 0.402366 1.958604 0.664996
v 0.283623 1.958604 0.728466
v 0.154778 1.958604 0.767550
v 0.020785 1.958604 0.780747
v -0.113209 1.958604 0.767550
v -0.242053 1.958604 0.728466
v -0.360796 1.958604 0.664996
v -0.464876 1.958604 0.579580
v -0.550292 1.958604 0.475501
v -0.613761 1.958604 0.356757
v -0.652846 1.958604 0.227913
v -0.666043 1.958604 0.093920
v -0.652846 1.958604 -0.040074
v -0.613761 1.958604 -0.168918
v -0.550292 1.958604 -0.287662
v -0.464876 1.958604 -0.391741
v -0.360796 1.958604 -0.477157
v -0.242053 1.958604 -0.540627
v -0.113209 1.958604 -0.579711
v 0.345030 1.056470 -0.832975
v 0.500905 1.056470 -0.749658
v -0.500905 1.056470 -0.749658
v -0.345030 1.056470 -0.832975
v 0.000000 1.056470 0.901606
v -0.175895 1.056470 0.884282
v 0.637531 1.056470 -0.637531
v -0.175895 1.056470 -0.884282
v -0.345030 1.056470 0.832975
v 0.749658 1.056470 -0.500905
v 0.000000 1.056470 -0.901606
v -0.500905 1.056470 0.749658
v 0.832975 1.056470 -0.345030
v -0.637531 1.056470 0.637531
v 0.884282 1.056470 -0.175895
v -0.749658 1.056470 0.500905
v 0.901606 1.056470 -0.000000
v -0.832975 1.056470 0.345030
v 0.884282 1.056470 0.175895
v -0.884282 1.056470 0.175895
v 0.832975 1.056470 0.345030
v -0.901606 1.056470 -0.000000
v 0.749658 1.056470 0.500905
v -0.884282 1.056470 -0.175895
v 0.637531 1.056470 0.637531
v -0.832975 1.056470 -0.345030
v 0.500905 1.056470 0.749658
v -0.749658 1.056470 -0.500905
v 0.345030 1.056470 0.832975
v 0.175895 1.056470 -0.884282
v -0.637531 1.056470 -0.637531
v 0.175895 1.056470 0.884282
v 0.307821 1.576821 -0.697605
v -0.430781 1.576821 -0.624859
v 0.006569 1.576821 0.816890
v 0.443919 1.576821 -0.624859
v -0.294683 1.576821 -0.697605
v -0.147008 1.576821 0.801764
v 0.563209 1.576821 -0.526959
v -0.147008 1.576821 -0.742402
v -0.294683 1.576821 0.756968
v 0.661109 1.576821 -0.407669
v 0.006569 1.576821 -0.757528
v -0.430781 1.576821 0.684222
v 0.733855 1.576821 -0.271571
v -0.550072 1.576821 0.586322
v 0.778652 1.576821 -0.123895
v -0.647972 1.576821 0.467031
v 0.793778 1.576821 0.029681
v -0.720718 1.576821 0.330933
v 0.778652 1.576821 0.183258
v -0.765514 1.576821 0.183258
v 0.733855 1.576821 0.330933
v -0.780640 1.576821 0.029681
v 0.661109 1.576821 0.467031
v -0.765514 1.576821 -0.123895
v 0.563209 1.576821 0.586322
v -0.720718 1.576821 -0.271571
v 0.443919 1.576821 0.684222
v -0.647972 1.576821 -0.407669
v 0.307821 1.576821 0.756968
v 0.160146 1.576821 -0.742402
v -0.550072 1.576821 -0.526959
v 0.160146 1.576821 0.801764
v 0.291465 1.778726 -0.587254
v -0.381975 1.778726 -0.520926
v 0.016790 1.778726 0.793628
v 0.415556 1.778726 -0.520926
v -0.257884 1.778726 -0.587254
v -0.123238 1.778726 0.779836
v 0.524322 1.778726 -0.431664
v -0.123238 1.778726 -0.628099
v -0.257884 1.778726 0.738991
v 0.613585 1.778726 -0.322897
v 0.016790 1.778726 -0.641890
v -0.381975 1.778726 0.672663
v 0.679913 1.778726 -0.198806
v -0.490742 1.778726 0.583401
v 0.720758 1.778726 -0.064159
v -0.580005 1.778726 0.474634
v 0.734549 1.778726 0.075869
v -0.646333 1.778726 0.350543
v 0.720758 1.778726 0.215896
v -0.687177 1.778726 0.215896
v 0.679913 1.778726 0.350543
v -0.700969 1.778726 0.075869
v 0.613585 1.778726 0.474634
v -0.687177 1.778726 -0.064159
v 0.524322 1.778726 0.583401
v -0.646333 1.778726 -0.198806
v 0.415556 1.778726 0.672663
v -0.580005 1.778726 -0.322897
v 0.291465 1.778726 0.738991
v 0.156818 1.778726 -0.628099
v -0.490742 1.778726 -0.431664
v 0.156818 1.778726 0.779836
v -0.974947 1.655981 -0.116749
vn 0.9640 -0.0632 -0.2583
vn 0.7063 -0.0463 -0.7063
vn 0.2588 -0.0170 -0.9658
vn -0.2588 0.0170 -0.9658
vn -0.7078 0.0492 -0.7047
vn -0.9646 0.0814 -0.2507
vn -0.9646 0.0814 0.2507
vn -0.7078 0.0492 0.7047
vn -0.2588 0.0170 0.9658
vn 0.2588 -0.0170 0.9658
vn 0.7063 -0.0463 0.7063
vn 0.9640 -0.0632 0.2583
vn 0.9475 -0.1885 -0.2583
vn 0.6943 -0.1381 -0.7063
vn 0.2544 -0.0506 -0.9658
vn -0.2544 0.0506 -0.9658
vn -0.6943 0.1381 -0.7063
vn -0.9475 0.1885 -0.2583
vn -0.9475 0.1885 0.2583
vn -0.6943 0.1381 0.7063
vn -0.2544 0.0506 0.9658
vn 0.2544 -0.0506 0.9658
vn 0.6943 -0.1381 0.7063
vn 0.9475 -0.1885 0.2583
vn 0.9148 -0.3105 -0.2583
vn 0.6703 -0.2275 -0.7064
vn 0.2456 -0.0834 -0.9658
vn -0.2456 0.0834 -0.9658
vn -0.6703 0.2275 -0.7063
vn -0.9148 0.3105 -0.2583
vn -0.9148 0.3105 0.2583
vn -0.6703 0.2275 0.7063
vn -0.2456 0.0834 0.9658
vn 0.2456 -0.0834 0.9658
vn 0.6703 -0.2275 0.7063
vn 0.9148 -0.3105 0.2583
vn 0.8664 -0.4273 -0.2583
vn 0.6349 -0.3131 -0.7063
vn 0.2326 -0.1147 -0.9658
vn -0.2326 0.1147 -0.9658
vn -0.6349 0.3131 -0.7063
vn -0.8664 0.4273 -0.2583
vn -0.8664 0.4273 0.2583
vn -0.6349 0.3131 0.7063
vn -0.2326 0.1147 0.9658
vn 0.2326 -0.1147 0.9658
vn 0.6349 -0.3131 0.7063
vn 0.8664 -0.4273 0.2583
vn 0.8033 -0.5367 -0.2583
vn 0.5886 -0.3933 -0.7063
vn 0.2156 -0.1441 -0.9658
vn -0.2156 0.1441 -0.9658
vn -0.5886 0.3933 -0.7063
vn -0.8033 0.5367 -0.2583
vn -0.8033 0.5367 0.2583
vn -0.5886 0.3933 0.7063
vn -0.2156 0.1441 0.9658
vn 0.2156 -0.1441 0.9658
vn 0.5886 -0.3933 0.7063
vn 0.8033 -0.5367 0.2583
vn 0.7263 -0.6370 -0.2583
vn 0.5322 -0.4667 -0.7063
vn 0.1950 -0.1710 -0.9658
vn -0.1950 0.1710 -0.9658
vn -0.5322 0.4667 -0.7063
vn -0.7263 0.6370 -0.2583
vn -0.7263 0.6370 0.2583
vn -0.5322 0.4667 0.7063
vn -0.1950 0.1710 0.9658
vn 0.1950 -0.1710 0.9658
vn 0.5322 -0.4667 0.7063
vn 0.7263 -0.6370 0.2583
vn 0.6370 -0.7263 -0.2583
vn 0.4667 -0.5322 -0.7063
vn 0.1710 -0.1950 -0.9658
vn -0.1710 0.1950 -0.9658
vn -0.4667 0.5322 -0.7063
vn -0.6370 0.7263 -0.2583
vn -0.6370 0.7263 0.2583
vn -0.4667 0.5322 0.7063
vn -0.1710 0.1950 0.9658
vn 0.1710 -0.1950 0.9658
vn 0.4667 -0.5322 0.7063
vn 0.6370 -0.7263 0.2583
vn 0.5367 -0.8033 -0.2583
vn 0.3933 -0.5886 -0.7063
vn 0.1441 -0.2156 -0.9658
vn -0.1441 0.2156 -0.9658
vn -0.3933 0.5886 -0.7063
vn -0.5367 0.8033 -0.2583
vn -0.5367 0.8033 0.2583
vn -0.3933 0.5886 0.7063
vn -0.1441 0.2156 0.9658
vn 0.1441 -0.2156 0.9658
vn 0.3933 -0.5886 0.7063
vn 0.5367 -0.8033 0.2583
vn 0.4273 -0.8664 -0.2583
vn 0.3131 -0.6349 -0.7063
vn 0.1147 -0.2326 -0.9658
vn -0.1147 0.2326 -0.9658
vn -0.3131 0.6349 -0.7063
vn -0.4273 0.8664 -0.2583
vn -0.4273 0.8664 0.2583
vn -0.3131 0.6349 0.7063
vn -0.1147 0.2326 0.9658
vn 0.1147 -0.2326 0.9658
vn 0.3131 -0.6349 0.7063
vn 0.4273 -0.8664 0.2583
vn 0.3105 -0.9148 -0.2583
vn 0.2275 -0.6703 -0.7063
vn 0.0834 -0.2456 -0.9658
vn -0.0834 0.2456 -0.9658
vn -0.2275 0.6703 -0.7063
vn -0.3105 0.9148 -0.2583
vn -0.3105 0.9148 0.2583
vn -0.2275 0.6703 0.7063
vn -0.0834 0.2456 0.9658
vn 0.0834 -0.2456 0.9658
vn 0.2275 -0.6703 0.7063
vn 0.3105 -0.9148 0.2583
vn -0.2219 0.9404 -0.2577
vn -0.1635 0.6896 -0.7055
vn -0.0604 0.2527 -0.9657
vn 0.0609 -0.2525 -0.9657
vn 0.1672 -0.6884 -0.7058
vn 0.2289 -0.9386 -0.2580
vn 0.2289 -0.9386 0.2580
vn 0.1672 -0.6884 0.7058
vn 0.0609 -0.2525 0.9657
vn -0.0604 0.2527 0.9657
vn -0.1635 0.6896 0.7055
vn -0.2219 0.9404 0.2577
vn -0.0255 0.9668 -0.2544
vn -0.0219 0.7130 -0.7008
vn -0.0101 0.2627 -0.9648
vn 0.0125 -0.2622 -0.9649
vn 0.0400 -0.7109 -0.7022
vn 0.0591 -0.9650 -0.2557
vn 0.0591 -0.9650 0.2557
vn 0.0400 -0.7109 0.7022
vn 0.0125 -0.2622 0.9649
vn -0.0101 0.2627 0.9648
vn -0.0219 0.7130 0.7008
vn -0.0255 0.9668 0.2544
vn 0.2067 0.9468 -0.2467
vn 0.1478 0.7109 -0.6876
vn 0.0510 0.2656 -0.9627
vn -0.0470 -0.2658 -0.9629
vn -0.1153 -0.7133 -0.6913
vn -0.1449 -0.9577 -0.2488
vn -0.1449 -0.9577 0.2488
vn -0.1153 -0.7133 0.6913
vn -0.0470 -0.2658 0.9629
vn 0.0510 0.2656 0.9627
vn 0.1478 0.7109 0.6876
vn 0.2067 0.9468 0.2467
vn 0.4239 0.8762 -0.2291
vn 0.3125 0.6759 -0.6675
vn 0.1131 0.2588 -0.9593
vn -0.1079 -0.2588 -0.9599
vn -0.2772 -0.6846 -0.6741
vn -0.3566 -0.9038 -0.2365
vn -0.3566 -0.9038 0.2365
vn -0.2772 -0.6846 0.6741
vn -0.1079 -0.2588 0.9599
vn 0.1131 0.2588 0.9593
vn 0.3125 0.6759 0.6675
vn 0.4239 0.8762 0.2291
vn 0.5959 0.7771 -0.2026
vn 0.4519 0.6133 -0.6479
vn 0.1718 0.2394 -0.9556
vn -0.1681 -0.2409 -0.9559
vn -0.4259 -0.6220 -0.6571
vn -0.5489 -0.8063 -0.2206
vn -0.5489 -0.8063 0.2206
vn -0.4259 -0.6220 0.6571
vn -0.1681 -0.2409 0.9559
vn 0.1718 0.2394 0.9556
vn 0.4519 0.6133 0.6479
vn 0.5959 0.7771 0.2026
vn 0.6947 0.6900 -0.2031
vn 0.5506 0.5331 -0.6425
vn 0.2177 0.2095 -0.9533
vn -0.2200 -0.2128 -0.9520
vn -0.5509 -0.5317 -0.6433
vn -0.7044 -0.6798 -0.2044
vn -0.7044 -0.6798 0.2044
vn -0.5509 -0.5317 0.6433
vn -0.2200 -0.2128 0.9520
vn 0.2177 0.2095 0.9533
vn 0.5506 0.5331 0.6425
vn 0.6947 0.6900 0.2031
vn 0.7795 0.5850 -0.2239
vn 0.6128 0.4472 -0.6515
vn 0.2474 0.1749 -0.9530
vn -0.2562 -0.1758 -0.9505
vn -0.6430 -0.4320 -0.6324
vn -0.8160 -0.5444 -0.1944
vn -0.8160 -0.5444 0.1944
vn -0.6430 -0.4320 0.6324
vn -0.2562 -0.1758 0.9505
vn 0.2474 0.1749 0.9530
vn 0.6128 0.4472 0.6515
vn 0.7795 0.5850 0.2239
vn 0.8359 0.4934 -0.2406
vn 0.6482 0.3644 -0.6687
vn 0.2622 0.1375 -0.9552
vn -0.2764 -0.1353 -0.9515
vn -0.7062 -0.3306 -0.6260
vn -0.8920 -0.4089 -0.1927
vn -0.8920 -0.4089 0.1927
vn -0.7062 -0.3306 0.6260
vn -0.2764 -0.1353 0.9515
vn 0.2622 0.1375 0.9552
vn 0.6482 0.3644 0.6687
vn 0.8359 0.4934 0.2406
vn 0.8712 0.4202 -0.2540
vn 0.6570 0.2980 -0.6925
vn 0.2621 0.1051 -0.9593
vn -0.2817 -0.0986 -0.9544
vn -0.7416 -0.2350 -0.6283
vn -0.9389 -0.2825 -0.1966
vn -0.9389 -0.2825 0.1966
vn -0.7416 -0.2350 0.6283
vn -0.2817 -0.0986 0.9544
vn 0.2621 0.1051 0.9593
vn 0.6570 0.2980 0.6925
vn 0.8712 0.4202 0.2540
vn 0.9148 0.3105 -0.2583
vn 0.6714 0.2269 -0.7055
vn 0.2549 0.0788 -0.9638
vn -0.2749 -0.0688 -0.9590
vn -0.7525 -0.1515 -0.6410
vn -0.9638 -0.1705 -0.2048
vn -0.9638 -0.1705 0.2048
vn -0.7525 -0.1515 0.6410
vn -0.2749 -0.0688 0.9590
vn 0.2549 0.0788 0.9638
vn 0.6714 0.2269 0.7055
vn 0.9148 0.3105 0.2583
vn 0.9475 0.1885 -0.2583
vn 0.6943 0.1381 -0.7063
vn 0.2547 0.0504 -0.9657
vn -0.2637 -0.0444 -0.9636
vn -0.7431 -0.0835 -0.6639
vn -0.9733 -0.0742 -0.2173
vn -0.9733 -0.0742 0.2173
vn -0.7431 -0.0835 0.6639
vn -0.2637 -0.0444 0.9636
vn 0.2547 0.0504 0.9657
vn 0.6943 0.1381 0.7063
vn 0.9475 0.1885 0.2583
vn 0.9640 0.0632 -0.2583
vn 0.7063 0.0463 -0.7063
vn 0.2588 0.0170 -0.9658
vn -0.2594 -0.0164 -0.9656
vn -0.7228 -0.0237 -0.6907
vn -0.9723 0.0076 -0.2337
vn -0.9723 0.0076 0.2337
vn -0.7228 -0.0237 0.6907
vn -0.2594 -0.0164 0.9656
vn 0.2588 0.0170 0.9658
vn 0.7063 0.0463 0.7063
vn 0.9640 0.0632 0.2583
vn 0.0695 0.7047 -0.7061
vn 0.2059 0.7047 -0.6789
vn 0.3344 0.7047 -0.6257
vn 0.4501 0.7047 -0.5484
vn 0.5484 0.7047 -0.4501
vn 0.6257 0.7047 -0.3344
vn 0.6789 0.7047 -0.2059
vn 0.7061 0.7047 -0.0695
vn 0.7061 0.7047 0.0695
vn 0.6789 0.7047 0.2059
vn 0.6257 0.7047 0.3344
vn 0.5484 0.7047 0.4501
vn 0.4501 0.7047 0.5484
vn 0.3344 0.7047 0.6257
vn 0.2059 0.7047 0.6789
vn 0.0695 0.7047 0.7061
vn -0.0695 0.7047 0.7061
vn -0.2059 0.7047 0.6789
vn -0.3344 0.7047 0.6257
vn -0.4501 0.7047 0.5484
vn -0.5484 0.7047 0.4501
vn -0.6257 0.7047 0.3344
vn -0.6789 0.7047 0.2059
vn -0.7061 0.7047 0.0695
vn -0.7061 0.7047 -0.0695
vn -0.6789 0.7047 -0.2059
vn -0.6257 0.7047 -0.3344
vn -0.5484 0.7047 -0.4501
vn -0.4501 0.7047 -0.5484
vn -0.3344 0.7047 -0.6257
vn 0.2903 -0.0000 -0.9569
vn -0.2059 0.7047 -0.6789
vn -0.0695 0.7047 -0.7061
vn -0.0000 -1.0000 -0.0000
vn 0.4574 0.2418 -0.8558
vn 0.8819 -0.0000 0.4714
vn -0.6344 -0.0000 0.7730
vn -0.6344 -0.0000 -0.7730
vn 0.9569 -0.0000 -0.2903
vn 0.0980 -0.0000 0.9952
vn -0.9952 -0.0000 -0.0980
vn 0.4714 -0.0000 -0.8819
vn 0.7730 -0.0000 0.6344
vn -0.7730 -0.0000 0.6344
vn -0.4714 -0.0000 -0.8819
vn 0.9952 -0.0000 -0.0980
vn -0.0980 -0.0000 0.9952
vn -0.9569 -0.0000 -0.2903
vn 0.6344 -0.0000 -0.7730
vn 0.6344 -0.0000 0.7730
vn -0.8819 -0.0000 0.4714
vn -0.2903 -0.0000 -0.9569
vn 0.9952 -0.0000 0.0980
vn -0.2903 -0.0000 0.9569
vn -0.8819 -0.0000 -0.4714
vn 0.7730 -0.0000 -0.6344
vn 0.4714 -0.0000 0.8819
vn -0.9569 -0.0000 0.2903
vn 0.0980 -0.0000 -0.9952
vn -0.0980 -0.0000 -0.9952
vn 0.9569 -0.0000 0.2903
vn -0.4714 -0.0000 0.8819
vn -0.7730 -0.0000 -0.6344
vn 0.8819 -0.0000 -0.4714
vn 0.2903 -0.0000 0.9569
vn -0.9952 -0.0000 0.0980
vn -0.0000 1.0000 -0.0000
vn -0.4551 0.2608 -0.8514
vn -0.0978 0.0732 0.9925
vn 0.6176 0.2284 -0.7526
vn -0.2800 0.2639 -0.9230
vn -0.2893 0.0813 0.9538
vn 0.7553 0.2126 -0.6199
vn -0.0946 0.2635 -0.9600
vn -0.4694 0.0927 0.8781
vn 0.8650 0.1950 -0.4623
vn -0.6307 0.1070 0.7686
vn 0.9420 0.1762 -0.2857
vn -0.7671 0.1237 0.6295
vn 0.9829 0.1569 -0.0968
vn -0.8730 0.1420 0.4666
vn 0.9857 0.1379 0.0971
vn -0.9444 0.1611 0.2865
vn 0.9500 0.1199 0.2882
vn -0.9789 0.1804 0.0964
vn 0.8772 0.1037 0.4689
vn -0.9753 0.1990 -0.0961
vn 0.7699 0.0899 0.6318
vn -0.9343 0.2163 -0.2834
vn 0.6324 0.0792 0.7706
vn -0.8580 0.2316 -0.4586
vn 0.4702 0.0720 0.8796
vn 0.0947 0.2596 -0.9611
vn -0.7496 0.2443 -0.6152
vn 0.2896 0.0685 0.9547
vn 0.2809 0.2523 -0.9260
vn -0.6136 0.2542 -0.7476
vn 0.0978 0.0689 0.9928
vn 0.0980 0.0015 0.9952
vn -0.6344 0.0015 -0.7730
vn 0.2903 0.0015 -0.9569
vn 0.2903 0.0015 0.9569
vn -0.7730 0.0015 -0.6344
vn 0.0980 0.0015 -0.9952
vn 0.4714 0.0015 0.8819
vn -0.8819 0.0015 -0.4714
vn 0.6344 0.0015 0.7730
vn -0.9569 0.0015 -0.2903
vn 0.7730 0.0015 0.6344
vn -0.9952 0.0015 -0.0980
vn 0.8819 0.0015 0.4714
vn -0.9952 0.0015 0.0980
vn 0.9569 0.0015 0.2903
vn -0.9569 0.0015 0.2903
vn 0.9952 0.0015 0.0980
vn -0.8819 0.0015 0.4714
vn 0.9952 0.0015 -0.0980
vn -0.7730 0.0015 0.6344
vn 0.9569 0.0015 -0.2903
vn -0.6344 0.0015 0.7730
vn 0.8819 0.0015 -0.4714
vn -0.4714 0.0015 0.8819
vn -0.0980 0.0015 -0.9952
vn 0.7730 0.0015 -0.6344
vn -0.2903 0.0015 0.9569
vn -0.2903 0.0015 -0.9569
vn 0.6344 0.0015 -0.7730
vn -0.0980 0.0015 0.9952
vn -0.4714 0.0015 -0.8819
vn 0.4714 0.0015 -0.8819
vn 0.0968 0.1587 0.9826
vn -0.6123 0.2615 -0.7461
vn 0.2803 0.2604 -0.9239
vn 0.2866 0.1585 0.9448
vn -0.7473 0.2559 -0.6133
vn 0.0945 0.2645 -0.9597
vn 0.4653 0.1604 0.8705
vn -0.8542 0.2487 -0.4566
vn 0.6258 0.1644 0.7625
vn -0.9289 0.2402 -0.2818
vn 0.7617 0.1703 0.6251
vn -0.9684 0.2306 -0.0954
vn 0.8679 0.1779 0.4639
vn -0.9708 0.2202 0.0956
vn 0.9401 0.1868 0.2852
vn -0.9357 0.2096 0.2838
vn 0.9757 0.1967 0.0961
vn -0.8643 0.1990 0.4620
vn 0.9736 0.2072 -0.0959
vn -0.7591 0.1889 0.6230
vn 0.9339 0.2179 -0.2833
vn -0.6241 0.1797 0.7604
vn 0.8586 0.2283 -0.4589
vn -0.4644 0.1718 0.8688
vn -0.0945 0.2668 -0.9591
vn 0.7508 0.2382 -0.6161
vn -0.2863 0.1655 0.9437
vn -0.2797 0.2670 -0.9222
vn 0.6147 0.2470 -0.7491
vn -0.0967 0.1611 0.9822
vn -0.4545 0.2652 -0.8503
vn 0.4559 0.2545 -0.8529
vn 0.0974 0.1090 0.9893
vn -0.5556 0.4828 -0.6770
vn 0.2547 0.4796 -0.8397
vn 0.2886 0.1081 0.9513
vn -0.6840 0.4659 -0.5613
vn 0.0853 0.4919 -0.8664
vn 0.4682 0.1159 0.8760
vn -0.7905 0.4435 -0.4225
vn 0.6288 0.1322 0.7662
vn -0.8703 0.4158 -0.2640
vn 0.7635 0.1561 0.6266
vn -0.9191 0.3834 -0.0905
vn 0.8664 0.1865 0.4631
vn -0.9333 0.3472 0.0919
vn 0.9331 0.2218 0.2831
vn -0.9103 0.3085 0.2761
vn 0.9609 0.2602 0.0946
vn -0.8495 0.2689 0.4540
vn 0.9494 0.2999 -0.0935
vn -0.7523 0.2300 0.6174
vn 0.9003 0.3389 -0.2731
vn -0.6224 0.1939 0.7583
vn 0.8173 0.3758 -0.4368
vn -0.4652 0.1623 0.8702
vn -0.0850 0.4984 -0.8628
vn 0.7054 0.4091 -0.5789
vn -0.2876 0.1368 0.9479
vn -0.2515 0.4991 -0.8292
vn 0.5703 0.4379 -0.6950
vn -0.0973 0.1188 0.9881
vn -0.4099 0.4938 -0.7669
vn 0.4182 0.4615 -0.7824
vn 0.4025 0.9146 -0.0396
vn -0.8185 0.0117 0.5745
vn -0.1099 -0.2029 -0.9730
vn 0.3544 0.9344 0.0349
vt 0.090060 0.830968
vt 0.090068 0.844259
vt 0.077718 0.844346
vt 0.077490 0.831072
vt 0.065184 0.844452
vt 0.065154 0.831279
vt 0.052842 0.844633
vt 0.052598 0.831611
vt 0.040222 0.844790
vt 0.040254 0.832032
vt 0.027694 0.844999
vt 0.027696 0.832394
vt 0.015040 0.845049
vt 0.015103 0.832254
vt 0.164829 0.831592
vt 0.164976 0.844315
vt 0.152289 0.844360
vt 0.152233 0.831810
vt 0.139849 0.844303
vt 0.139683 0.831571
vt 0.127405 0.844271
vt 0.127314 0.831265
vt 0.114788 0.844224
vt 0.114944 0.831073
vt 0.102437 0.844239
vt 0.102564 0.830967
vt 0.090072 0.857584
vt 0.077707 0.857610
vt 0.065291 0.857641
vt 0.052824 0.857618
vt 0.040467 0.857566
vt 0.027836 0.857512
vt 0.015140 0.857512
vt 0.165064 0.856713
vt 0.152423 0.856859
vt 0.139745 0.857030
vt 0.127294 0.857251
vt 0.114918 0.857354
vt 0.102400 0.857494
vt 0.090157 0.870916
vt 0.077823 0.870923
vt 0.065388 0.870827
vt 0.053168 0.870595
vt 0.040410 0.870317
vt 0.027964 0.870008
vt 0.015205 0.869901
vt 0.165059 0.869052
vt 0.152342 0.869291
vt 0.139833 0.869731
vt 0.127192 0.870191
vt 0.114889 0.870552
vt 0.102588 0.870788
vt 0.090236 0.884354
vt 0.077907 0.884298
vt 0.065633 0.884055
vt 0.053069 0.883581
vt 0.040635 0.882979
vt 0.027937 0.882401
vt 0.015287 0.882156
vt 0.165178 0.881198
vt 0.152466 0.881616
vt 0.139928 0.882370
vt 0.127302 0.883134
vt 0.114807 0.883752
vt 0.102560 0.884177
vt 0.090329 0.897931
vt 0.077993 0.897823
vt 0.065618 0.897353
vt 0.053126 0.896570
vt 0.040684 0.895544
vt 0.028071 0.894575
vt 0.015380 0.894087
vt 0.165264 0.893088
vt 0.152596 0.893764
vt 0.139868 0.894890
vt 0.127398 0.896077
vt 0.115062 0.897051
vt 0.102622 0.897677
vt 0.090373 0.911731
vt 0.078026 0.911531
vt 0.065618 0.910793
vt 0.053311 0.909502
vt 0.040527 0.908000
vt 0.027855 0.906491
vt 0.015151 0.905642
vt 0.165630 0.904592
vt 0.152935 0.905616
vt 0.140281 0.907308
vt 0.127572 0.909002
vt 0.115168 0.910449
vt 0.102689 0.911358
vt 0.090505 0.925829
vt 0.078027 0.925511
vt 0.065512 0.924367
vt 0.052914 0.922455
vt 0.040207 0.920179
vt 0.027407 0.918038
vt 0.014662 0.916764
vt 0.166258 0.915650
vt 0.153539 0.917128
vt 0.140772 0.919465
vt 0.128092 0.921927
vt 0.115471 0.923989
vt 0.103046 0.925346
vt 0.090639 0.940412
vt 0.077782 0.939851
vt 0.064949 0.938104
vt 0.052121 0.935350
vt 0.039369 0.932072
vt 0.026508 0.929124
vt 0.013801 0.927349
vt 0.167279 0.926171
vt 0.154609 0.928176
vt 0.141805 0.931336
vt 0.129104 0.934801
vt 0.116342 0.937762
vt 0.103445 0.939597
vt 0.090733 0.955511
vt 0.077014 0.954576
vt 0.063588 0.951958
vt 0.050390 0.948103
vt 0.037658 0.943559
vt 0.025044 0.939677
vt 0.012441 0.937407
vt 0.168828 0.936149
vt 0.156268 0.938694
vt 0.143718 0.942792
vt 0.131050 0.947534
vt 0.117898 0.951599
vt 0.104482 0.954440
vt 0.090867 0.970904
vt 0.075426 0.969772
vt 0.060614 0.965985
vt 0.046916 0.960485
vt 0.034526 0.954510
vt 0.022781 0.949640
vt 0.010654 0.946935
vt 0.170829 0.945622
vt 0.158746 0.948603
vt 0.147053 0.953678
vt 0.134737 0.959856
vt 0.121101 0.965571
vt 0.106309 0.969586
vt 0.089353 0.654222
vt 0.089413 0.669825
vt 0.075698 0.671208
vt 0.073240 0.655924
vt 0.062407 0.675052
vt 0.058020 0.661318
vt 0.049811 0.680947
vt 0.044540 0.669191
vt 0.037855 0.687922
vt 0.032900 0.677744
vt 0.026026 0.694336
vt 0.022137 0.685000
vt 0.013936 0.698675
vt 0.010654 0.689749
vt 0.168318 0.689143
vt 0.165109 0.698096
vt 0.152984 0.693856
vt 0.156798 0.684488
vt 0.141105 0.687533
vt 0.145982 0.677317
vt 0.129098 0.680648
vt 0.134279 0.668852
vt 0.116458 0.674848
vt 0.120740 0.661081
vt 0.103138 0.671104
vt 0.105479 0.655802
vt 0.089473 0.685596
vt 0.077028 0.686601
vt 0.064806 0.689298
vt 0.052850 0.693612
vt 0.040967 0.699057
vt 0.028870 0.704380
vt 0.016518 0.708003
vt 0.162599 0.707447
vt 0.150219 0.703923
vt 0.138081 0.698692
vt 0.126157 0.693336
vt 0.114168 0.689113
vt 0.101926 0.686507
vt 0.089534 0.701517
vt 0.077546 0.702140
vt 0.065863 0.703830
vt 0.054382 0.706850
vt 0.042795 0.710945
vt 0.030753 0.715169
vt 0.018258 0.717940
vt 0.160935 0.717402
vt 0.148419 0.714727
vt 0.136344 0.710594
vt 0.124726 0.706586
vt 0.113222 0.703653
vt 0.101526 0.702050
vt 0.089594 0.717611
vt 0.077613 0.717688
vt 0.066122 0.718527
vt 0.055052 0.720451
vt 0.043746 0.723456
vt 0.031817 0.726673
vt 0.019249 0.728598
vt 0.160023 0.728072
vt 0.147441 0.726240
vt 0.135487 0.723113
vt 0.124158 0.720192
vt 0.113073 0.718351
vt 0.101576 0.717598
vt 0.089653 0.733524
vt 0.077406 0.733185
vt 0.065906 0.733342
vt 0.054994 0.734458
vt 0.044068 0.736489
vt 0.032202 0.738845
vt 0.019612 0.740000
vt 0.159744 0.739481
vt 0.147145 0.738415
vt 0.135260 0.736148
vt 0.124319 0.734199
vt 0.113398 0.733164
vt 0.101897 0.733093
vt 0.089706 0.748448
vt 0.077169 0.748314
vt 0.065405 0.748238
vt 0.054536 0.748737
vt 0.043820 0.749995
vt 0.032023 0.751609
vt 0.019451 0.752103
vt 0.159991 0.751585
vt 0.147415 0.751178
vt 0.135605 0.749649
vt 0.124879 0.748472
vt 0.114005 0.748055
vt 0.102242 0.748220
vt 0.089757 0.763148
vt 0.076992 0.763117
vt 0.064926 0.762990
vt 0.053871 0.763150
vt 0.043124 0.763864
vt 0.031431 0.764816
vt 0.018880 0.764814
vt 0.160650 0.764292
vt 0.148098 0.764377
vt 0.136397 0.763510
vt 0.125644 0.762876
vt 0.114588 0.762800
vt 0.102523 0.763019
vt 0.089807 0.777350
vt 0.076910 0.777457
vt 0.064505 0.777499
vt 0.053070 0.777598
vt 0.042151 0.777942
vt 0.030544 0.778348
vt 0.018017 0.778015
vt 0.161601 0.777484
vt 0.149076 0.777896
vt 0.137466 0.777572
vt 0.126544 0.777310
vt 0.115109 0.777300
vt 0.102705 0.777356
vt 0.089856 0.790893
vt 0.076996 0.791038
vt 0.064463 0.791501
vt 0.052409 0.791817
vt 0.041131 0.792026
vt 0.029528 0.792067
vt 0.017024 0.791566
vt 0.162681 0.791020
vt 0.150180 0.791595
vt 0.138578 0.791634
vt 0.127301 0.791511
vt 0.115249 0.791294
vt 0.102715 0.790933
vt 0.089909 0.804272
vt 0.077324 0.804453
vt 0.064744 0.804826
vt 0.052189 0.805491
vt 0.040330 0.805878
vt 0.028597 0.805792
vt 0.016107 0.805285
vt 0.163679 0.804715
vt 0.151193 0.805293
vt 0.139466 0.805464
vt 0.127612 0.805166
vt 0.115065 0.804615
vt 0.102491 0.804348
vt 0.089971 0.817654
vt 0.077565 0.817792
vt 0.064914 0.818052
vt 0.052454 0.818582
vt 0.040027 0.819221
vt 0.027939 0.819310
vt 0.015485 0.818935
vt 0.164376 0.818328
vt 0.151925 0.818776
vt 0.139843 0.818786
vt 0.127430 0.818238
vt 0.115006 0.817841
vt 0.102367 0.817688
vt 0.715099 0.309313
vt 0.729064 0.292143
vt 0.753003 0.307991
vt 0.742551 0.327650
vt 0.779566 0.318872
vt 0.773131 0.340202
vt 0.807740 0.324364
vt 0.805585 0.346541
vt 0.836444 0.324254
vt 0.838655 0.346426
vt 0.864575 0.318546
vt 0.871067 0.339862
vt 0.891052 0.307461
vt 0.901574 0.327103
vt 0.914858 0.291422
vt 0.929011 0.308648
vt 0.935068 0.271050
vt 0.952459 0.285239
vt 0.950936 0.247131
vt 0.970505 0.257499
vt 0.961805 0.220569
vt 0.983291 0.226994
vt 0.967311 0.192396
vt 0.989346 0.194468
vt 0.967194 0.163690
vt 0.989346 0.161461
vt 0.961485 0.135559
vt 0.982798 0.129065
vt 0.950400 0.109082
vt 0.970054 0.098559
vt 0.934357 0.085287
vt 0.951667 0.070996
vt 0.914003 0.065051
vt 0.927969 0.047881
vt 0.890064 0.049203
vt 0.900516 0.029544
vt 0.863501 0.038322
vt 0.869936 0.016993
vt 0.835327 0.032831
vt 0.837483 0.010653
vt 0.806623 0.032941
vt 0.804413 0.010768
vt 0.778493 0.038648
vt 0.772001 0.017332
vt 0.752016 0.049733
vt 0.741493 0.030091
vt 0.728210 0.065771
vt 0.714056 0.048546
vt 0.707998 0.086145
vt 0.690607 0.071955
vt 0.692131 0.110064
vt 0.672561 0.099696
vt 0.681264 0.136625
vt 0.659778 0.130201
vt 0.675756 0.164798
vt 0.653721 0.162727
vt 0.675874 0.193504
vt 0.653721 0.195733
vt 0.681582 0.221635
vt 0.660269 0.228129
vt 0.692667 0.248112
vt 0.673013 0.258635
vt 0.466443 0.710193
vt 0.483339 0.735480
vt 0.475810 0.739555
vt 0.459854 0.715659
vt 0.708711 0.271907
vt 0.691401 0.286198
vt 0.831408 0.691358
vt 0.799545 0.691358
vt 0.768294 0.685142
vt 0.738856 0.672948
vt 0.712363 0.655246
vt 0.689833 0.632716
vt 0.672131 0.606223
vt 0.659937 0.576785
vt 0.653721 0.545534
vt 0.653721 0.513671
vt 0.659937 0.482421
vt 0.672131 0.452983
vt 0.689833 0.426490
vt 0.712363 0.403959
vt 0.738856 0.386257
vt 0.768294 0.374064
vt 0.799545 0.367848
vt 0.831408 0.367848
vt 0.862658 0.374064
vt 0.892096 0.386257
vt 0.918589 0.403959
vt 0.941120 0.426490
vt 0.958822 0.452983
vt 0.971015 0.482421
vt 0.977231 0.513671
vt 0.977231 0.545534
vt 0.971015 0.576785
vt 0.958822 0.606223
vt 0.941120 0.632716
vt 0.918589 0.655246
vt 0.892096 0.672948
vt 0.862658 0.685142
vt 0.260981 0.398715
vt 0.247159 0.384339
vt 0.264578 0.371699
vt 0.275623 0.383080
vt 0.226603 0.710193
vt 0.248107 0.688689
vt 0.253573 0.695279
vt 0.233249 0.715590
vt 0.273393 0.945426
vt 0.248107 0.928530
vt 0.253504 0.921883
vt 0.277390 0.937854
vt 0.494977 0.853643
vt 0.483339 0.881739
vt 0.475767 0.877743
vt 0.486771 0.851200
vt 0.331317 0.654222
vt 0.361729 0.654222
vt 0.360934 0.662747
vt 0.332201 0.662738
vt 0.198069 0.853643
vt 0.192136 0.823815
vt 0.200652 0.822932
vt 0.206249 0.851114
vt 0.419653 0.945426
vt 0.391556 0.957064
vt 0.389028 0.948884
vt 0.415577 0.937896
vt 0.444939 0.688689
vt 0.439542 0.695336
vt 0.209707 0.735480
vt 0.217279 0.739476
vt 0.301490 0.957064
vt 0.303933 0.948858
vt 0.500910 0.823815
vt 0.492385 0.823021
vt 0.301490 0.660155
vt 0.304018 0.668335
vt 0.209707 0.881739
vt 0.217237 0.877664
vt 0.444939 0.928530
vt 0.439473 0.921940
vt 0.419653 0.671793
vt 0.415656 0.679365
vt 0.198069 0.763576
vt 0.206275 0.766019
vt 0.331317 0.962997
vt 0.332112 0.954472
vt 0.500910 0.793404
vt 0.492394 0.794287
vt 0.273393 0.671793
vt 0.277469 0.679323
vt 0.226603 0.907026
vt 0.233193 0.901560
vt 0.466444 0.907026
vt 0.459797 0.901629
vt 0.391556 0.660155
vt 0.389114 0.668361
vt 0.192136 0.793404
vt 0.200661 0.794198
vt 0.361729 0.962997
vt 0.360845 0.954481
vt 0.494977 0.763576
vt 0.486797 0.766105
vt 0.875917 0.834705
vt 0.871647 0.856169
vt 0.863273 0.876388
vt 0.851114 0.894584
vt 0.835640 0.910058
vt 0.817443 0.922217
vt 0.797225 0.930591
vt 0.775761 0.934861
vt 0.753877 0.934861
vt 0.732413 0.930591
vt 0.712194 0.922217
vt 0.693998 0.910058
vt 0.678524 0.894584
vt 0.666365 0.876388
vt 0.657990 0.856169
vt 0.653721 0.834705
vt 0.653721 0.812821
vt 0.657990 0.791357
vt 0.666365 0.771138
vt 0.678523 0.752942
vt 0.693998 0.737468
vt 0.712194 0.725309
vt 0.732413 0.716935
vt 0.753877 0.712665
vt 0.775761 0.712665
vt 0.797225 0.716935
vt 0.817443 0.725309
vt 0.835640 0.737468
vt 0.851114 0.752942
vt 0.863273 0.771138
vt 0.871647 0.791357
vt 0.875917 0.812821
vt 0.226173 0.309261
vt 0.230600 0.289775
vt 0.251304 0.296111
vt 0.247737 0.311675
vt 0.416483 0.276364
vt 0.423449 0.294646
vt 0.404142 0.300372
vt 0.398660 0.285969
vt 0.277340 0.410066
vt 0.288656 0.392013
vt 0.225639 0.329228
vt 0.247264 0.327682
vt 0.406032 0.259767
vt 0.390463 0.272859
vt 0.295592 0.417947
vt 0.303160 0.398165
vt 0.229131 0.348895
vt 0.250113 0.343443
vt 0.392513 0.245478
vt 0.379850 0.261537
vt 0.315010 0.422065
vt 0.318564 0.401320
vt 0.376445 0.234042
vt 0.367219 0.252444
vt 0.334830 0.422285
vt 0.334260 0.401378
vt 0.358441 0.225903
vt 0.353041 0.245947
vt 0.354282 0.418631
vt 0.349646 0.398371
vt 0.339216 0.221379
vt 0.337855 0.242330
vt 0.372623 0.411277
vt 0.364139 0.392447
vt 0.319590 0.220717
vt 0.322240 0.241791
vt 0.389169 0.400533
vt 0.377195 0.383861
vt 0.300530 0.224930
vt 0.306792 0.244409
vt 0.403302 0.386824
vt 0.388323 0.372957
vt 0.281368 0.231723
vt 0.292015 0.249833
vt 0.414492 0.370675
vt 0.397110 0.360164
vt 0.264617 0.241689
vt 0.278591 0.258040
vt 0.422306 0.352700
vt 0.403233 0.345969
vt 0.250209 0.255280
vt 0.267045 0.268751
vt 0.426419 0.333580
vt 0.406471 0.330905
vt 0.236408 0.367509
vt 0.255960 0.358311
vt 0.238716 0.271538
vt 0.257827 0.281610
vt 0.426702 0.313977
vt 0.406714 0.315532
vt 0.619923 0.229302
vt 0.632414 0.290346
vt 0.510601 0.307431
vt 0.503474 0.269957
vt 0.022083 0.232994
vt 0.044704 0.177087
vt 0.157158 0.231786
vt 0.143098 0.264844
vt 0.078212 0.517644
vt 0.045078 0.467150
vt 0.153439 0.404565
vt 0.172244 0.435199
vt 0.632414 0.352782
vt 0.509284 0.345513
vt 0.077727 0.126495
vt 0.177344 0.201911
vt 0.022335 0.411308
vt 0.140921 0.370998
vt 0.620009 0.413831
vt 0.500540 0.382502
vt 0.119981 0.083131
vt 0.202966 0.176331
vt 0.595798 0.471100
vt 0.484671 0.416881
vt 0.169954 0.048672
vt 0.233142 0.156027
vt 0.560822 0.522341
vt 0.462373 0.447277
vt 0.225844 0.024504
vt 0.266866 0.141848
vt 0.516540 0.565570
vt 0.434621 0.472526
vt 0.285578 0.011676
vt 0.302902 0.135059
vt 0.464766 0.599152
vt 0.402590 0.491707
vt 0.346692 0.010653
vt 0.339820 0.134739
vt 0.407579 0.621861
vt 0.367595 0.504162
vt 0.407064 0.021590
vt 0.376140 0.141781
vt 0.347236 0.632915
vt 0.331027 0.509511
vt 0.464307 0.044197
vt 0.410560 0.155889
vt 0.286078 0.631990
vt 0.294304 0.507650
vt 0.516155 0.077695
vt 0.441717 0.176608
vt 0.226444 0.619221
vt 0.258816 0.498749
vt 0.560527 0.120860
vt 0.468310 0.203222
vt 0.010762 0.352220
vt 0.135199 0.335690
vt 0.170578 0.595188
vt 0.225875 0.483233
vt 0.595606 0.172057
vt 0.489196 0.234748
vt 0.010654 0.292117
vt 0.135663 0.299887
vt 0.120556 0.560877
vt 0.196673 0.461762
vt 0.449211 0.312151
vt 0.445189 0.287549
vt 0.214150 0.260798
vt 0.204454 0.283070
vt 0.211461 0.377693
vt 0.224344 0.398283
vt 0.449001 0.337071
vt 0.227931 0.240766
vt 0.202708 0.355017
vt 0.443509 0.361540
vt 0.245322 0.223678
vt 0.433161 0.384407
vt 0.265675 0.210030
vt 0.418485 0.404715
vt 0.400143 0.421673
vt 0.311501 0.195776
vt 0.378912 0.434656
vt 0.336409 0.196547
vt 0.355652 0.443212
vt 0.360851 0.201656
vt 0.331275 0.447062
vt 0.383898 0.211327
vt 0.306713 0.446106
vt 0.404656 0.225326
vt 0.282894 0.440422
vt 0.422280 0.243175
vt 0.198229 0.331102
vt 0.260701 0.430258
vt 0.436011 0.264201
vt 0.199139 0.306790
vt 0.240949 0.416027
vt 0.288833 0.204308
vt 0.600440 0.726243
vt 0.575504 0.765352
vt 0.552142 0.745801
vt 0.522217 0.654222
vt 0.522217 0.759462
s 0
usemtl Material
f 1/1/1 13/2/1 14/3/1 2/4/1
f 2/4/2 14/3/2 15/5/2 3/6/2
f 3/6/3 15/5/3 16/7/3 4/8/3
f 4/8/4 16/7/4 17/9/4 5/10/4
f 5/10/5 17/9/5 18/11/5 6/12/5
f 6/12/6 18/11/6 19/13/6 7/14/6
f 7/15/7 19/16/7 20/17/7 8/18/7
f 8/18/8 20/17/8 21/19/8 9/20/8
f 9/20/9 21/19/9 22/21/9 10/22/9
f 10/22/10 22/21/10 23/23/10 11/24/10
f 11/24/11 23/23/11 24/25/11 12/26/11
f 12/26/12 24/25/12 13/2/12 1/1/12
f 13/2/13 25/27/13 26/28/13 14/3/13
f 14/3/14 26/28/14 27/29/14 15/5/14
f 15/5/15 27/29/15 28/30/15 16/7/15
f 16/7/16 28/30/16 29/31/16 17/9/16
f 17/9/17 29/31/17 30/32/17 18/11/17
f 18/11/18 30/32/18 31/33/18 19/13/18
f 19/16/19 31/34/19 32/35/19 20/17/19
f 20/17/20 32/35/20 33/36/20 21/19/20
f 21/19/21 33/36/21 34/37/21 22/21/21
f 22/21/22 34/37/22 35/38/22 23/23/22
f 23/23/23 35/38/23 36/39/23 24/25/23
f 24/25/24 36/39/24 25/27/24 13/2/24
f 25/27/25 37/40/25 38/41/25 26/28/25
f 26/28/26 38/41/26 39/42/26 27/29/26
f 27/29/27 39/42/27 40/43/27 28/30/27
f 28/30/28 40/43/28 41/44/28 29/31/28
f 29/31/29 41/44/29 42/45/29 30/32/29
f 30/32/30 42/45/30 43/46/30 31/33/30
f 31/34/31 43/47/31 44/48/31 32/35/31
f 32/35/32 44/48/32 45/49/32 33/36/32
f 33/36/33 45/49/33 46/50/33 34/37/33
f 34/37/34 46/50/34 47/51/34 35/38/34
f 35/38/35 47/51/35 48/52/35 36/39/35
f 36/39/36 48/52/36 37/40/36 25/27/36
f 37/40/37 49/53/37 50/54/37 38/41/37
f 38/41/38 50/54/38 51/55/38 39/42/38
f 39/42/39 51/55/39 52/56/39 40/43/39
f 40/43/40 52/56/40 53/57/40 41/44/40
f 41/44/41 53/57/41 54/58/41 42/45/41
f 42/45/42 54/58/42 55/59/42 43/46/42
f 43/47/43 55/60/43 56/61/43 44/48/43
f 44/48/44 56/61/44 57/62/44 45/49/44
f 45/49/45 57/62/45 58/63/45 46/50/45
f 46/50/46 58/63/46 59/64/46 47/51/46
f 47/51/47 59/64/47 60/65/47 48/52/47
f 48/52/48 60/65/48 49/53/48 37/40/48
f 49/53/49 61/66/49 62/67/49 50/54/49
f 50/54/50 62/67/50 63/68/50 51/55/50
f 51/55/51 63/68/51 64/69/51 52/56/51
f 52/56/52 64/69/52 65/70/52 53/57/52
f 53/57/53 65/70/53 66/71/53 54/58/53
f 54/58/54 66/71/54 67/72/54 55/59/54
f 55/60/55 67/73/55 68/74/55 56/61/55
f 56/61/56 68/74/56 69/75/56 57/62/56
f 57/62/57 69/75/57 70/76/57 58/63/57
f 58/63/58 70/76/58 71/77/58 59/64/58
f 59/64/59 71/77/59 72/78/59 60/65/59
f 60/65/60 72/78/60 61/66/60 49/53/60
f 61/66/61 73/79/61 74/80/61 62/67/61
f 62/67/62 74/80/62 75/81/62 63/68/62
f 63/68/63 75/81/63 76/82/63 64/69/63
f 64/69/64 76/82/64 77/83/64 65/70/64
f 65/70/65 77/83/65 78/84/65 66/71/65
f 66/71/66 78/84/66 79/85/66 67/72/66
f 67/73/67 79/86/67 80/87/67 68/74/67
f 68/74/68 80/87/68 81/88/68 69/75/68
f 69/75/69 81/88/69 82/89/69 70/76/69
f 70/76/70 82/89/70 83/90/70 71/77/70
f 71/77/71 83/90/71 84/91/71 72/78/71
f 72/78/72 84/91/72 73/79/72 61/66/72
f 73/79/73 85/92/73 86/93/73 74/80/73
f 74/80/74 86/93/74 87/94/74 75/81/74
f 75/81/75 87/94/75 88/95/75 76/82/75
f 76/82/76 88/95/76 89/96/76 77/83/76
f 77/83/77 89/96/77 90/97/77 78/84/77
f 78/84/78 90/97/78 91/98/78 79/85/78
f 79/86/79 91/99/79 92/100/79 80/87/79
f 80/87/80 92/100/80 93/101/80 81/88/80
f 81/88/81 93/101/81 94/102/81 82/89/81
f 82/89/82 94/102/82 95/103/82 83/90/82
f 83/90/83 95/103/83 96/104/83 84/91/83
f 84/91/84 96/104/84 85/92/84 73/79/84
f 85/92/85 97/105/85 98/106/85 86/93/85
f 86/93/86 98/106/86 99/107/86 87/94/86
f 87/94/87 99/107/87 100/108/87 88/95/87
f 88/95/88 100/108/88 101/109/88 89/96/88
f 89/96/89 101/109/89 102/110/89 90/97/89
f 90/97/90 102/110/90 103/111/90 91/98/90
f 91/99/91 103/112/91 104/113/91 92/100/91
f 92/100/92 104/113/92 105/114/92 93/101/92
f 93/101/93 105/114/93 106/115/93 94/102/93
f 94/102/94 106/115/94 107/116/94 95/103/94
f 95/103/95 107/116/95 108/117/95 96/104/95
f 96/104/96 108/117/96 97/105/96 85/92/96
f 97/105/97 109/118/97 110/119/97 98/106/97
f 98/106/98 110/119/98 111/120/98 99/107/98
f 99/107/99 111/120/99 112/121/99 100/108/99
f 100/108/100 112/121/100 113/122/100 101/109/100
f 101/109/101 113/122/101 114/123/101 102/110/101
f 102/110/102 114/123/102 115/124/102 103/111/102
f 103/112/103 115/125/103 116/126/103 104/113/103
f 104/113/104 116/126/104 117/127/104 105/114/104
f 105/114/105 117/127/105 118/128/105 106/115/105
f 106/115/106 118/128/106 119/129/106 107/116/106
f 107/116/107 119/129/107 120/130/107 108/117/107
f 108/117/108 120/130/108 109/118/108 97/105/108
f 109/118/109 121/131/109 122/132/109 110/119/109
f 110/119/110 122/132/110 123/133/110 111/120/110
f 111/120/111 123/133/111 124/134/111 112/121/111
f 112/121/112 124/134/112 125/135/112 113/122/112
f 113/122/113 125/135/113 126/136/113 114/123/113
f 114/123/114 126/136/114 127/137/114 115/124/114
f 115/125/115 127/138/115 128/139/115 116/126/115
f 116/126/116 128/139/116 129/140/116 117/127/116
f 117/127/117 129/140/117 130/141/117 118/128/117
f 118/128/118 130/141/118 131/142/118 119/129/118
f 119/129/119 131/142/119 132/143/119 120/130/119
f 120/130/120 132/143/120 121/131/120 109/118/120
f 133/144/121 145/145/121 146/146/121 134/147/121
f 134/147/122 146/146/122 147/148/122 135/149/122
f 135/149/123 147/148/123 148/150/123 136/151/123
f 136/151/124 148/150/124 149/152/124 137/153/124
f 137/153/125 149/152/125 150/154/125 138/155/125
f 138/155/126 150/154/126 151/156/126 139/157/126
f 139/158/127 151/159/127 152/160/127 140/161/127
f 140/161/128 152/160/128 153/162/128 141/163/128
f 141/163/129 153/162/129 154/164/129 142/165/129
f 142/165/130 154/164/130 155/166/130 143/167/130
f 143/167/131 155/166/131 156/168/131 144/169/131
f 144/169/132 156/168/132 145/145/132 133/144/132
f 145/145/133 157/170/133 158/171/133 146/146/133
f 146/146/134 158/171/134 159/172/134 147/148/134
f 147/148/135 159/172/135 160/173/135 148/150/135
f 148/150/136 160/173/136 161/174/136 149/152/136
f 149/152/137 161/174/137 162/175/137 150/154/137
f 150/154/138 162/175/138 163/176/138 151/156/138
f 151/159/139 163/177/139 164/178/139 152/160/139
f 152/160/140 164/178/140 165/179/140 153/162/140
f 153/162/141 165/179/141 166/180/141 154/164/141
f 154/164/142 166/180/142 167/181/142 155/166/142
f 155/166/143 167/181/143 168/182/143 156/168/143
f 156/168/144 168/182/144 157/170/144 145/145/144
f 157/170/145 169/183/145 170/184/145 158/171/145
f 158/171/146 170/184/146 171/185/146 159/172/146
f 159/172/147 171/185/147 172/186/147 160/173/147
f 160/173/148 172/186/148 173/187/148 161/174/148
f 161/174/149 173/187/149 174/188/149 162/175/149
f 162/175/150 174/188/150 175/189/150 163/176/150
f 163/177/151 175/190/151 176/191/151 164/178/151
f 164/178/152 176/191/152 177/192/152 165/179/152
f 165/179/153 177/192/153 178/193/153 166/180/153
f 166/180/154 178/193/154 179/194/154 167/181/154
f 167/181/155 179/194/155 180/195/155 168/182/155
f 168/182/156 180/195/156 169/183/156 157/170/156
f 169/183/157 181/196/157 182/197/157 170/184/157
f 170/184/158 182/197/158 183/198/158 171/185/158
f 171/185/159 183/198/159 184/199/159 172/186/159
f 172/186/160 184/199/160 185/200/160 173/187/160
f 173/187/161 185/200/161 186/201/161 174/188/161
f 174/188/162 186/201/162 187/202/162 175/189/162
f 175/190/163 187/203/163 188/204/163 176/191/163
f 176/191/164 188/204/164 189/205/164 177/192/164
f 177/192/165 189/205/165 190/206/165 178/193/165
f 178/193/166 190/206/166 191/207/166 179/194/166
f 179/194/167 191/207/167 192/208/167 180/195/167
f 180/195/168 192/208/168 181/196/168 169/183/168
f 181/196/169 193/209/169 194/210/169 182/197/169
f 182/197/170 194/210/170 195/211/170 183/198/170
f 183/198/171 195/211/171 196/212/171 184/199/171
f 184/199/172 196/212/172 197/213/172 185/200/172
f 185/200/173 197/213/173 198/214/173 186/201/173
f 186/201/174 198/214/174 199/215/174 187/202/174
f 187/203/175 199/216/175 200/217/175 188/204/175
f 188/204/176 200/217/176 201/218/176 189/205/176
f 189/205/177 201/218/177 202/219/177 190/206/177
f 190/206/178 202/219/178 203/220/178 191/207/178
f 191/207/179 203/220/179 204/221/179 192/208/179
f 192/208/180 204/221/180 193/209/180 181/196/180
f 193/209/181 205/222/181 206/223/181 194/210/181
f 194/210/182 206/223/182 207/224/182 195/211/182
f 195/211/183 207/224/183 208/225/183 196/212/183
f 196/212/184 208/225/184 209/226/184 197/213/184
f 197/213/185 209/226/185 210/227/185 198/214/185
f 198/214/186 210/227/186 211/228/186 199/215/186
f 199/216/187 211/229/187 212/230/187 200/217/187
f 200/217/188 212/230/188 213/231/188 201/218/188
f 201/218/189 213/231/189 214/232/189 202/219/189
f 202/219/190 214/232/190 215/233/190 203/220/190
f 203/220/191 215/233/191 216/234/191 204/221/191
f 204/221/192 216/234/192 205/222/192 193/209/192
f 205/222/193 217/235/193 218/236/193 206/223/193
f 206/223/194 218/236/194 219/237/194 207/224/194
f 207/224/195 219/237/195 220/238/195 208/225/195
f 208/225/196 220/238/196 221/239/196 209/226/196
f 209/226/197 221/239/197 222/240/197 210/227/197
f 210/227/198 222/240/198 223/241/198 211/228/198
f 211/229/199 223/242/199 224/243/199 212/230/199
f 212/230/200 224/243/200 225/244/200 213/231/200
f 213/231/201 225/244/201 226/245/201 214/232/201
f 214/232/202 226/245/202 227/246/202 215/233/202
f 215/233/203 227/246/203 228/247/203 216/234/203
f 216/234/204 228/247/204 217/235/204 205/222/204
f 217/235/205 229/248/205 230/249/205 218/236/205
f 218/236/206 230/249/206 231/250/206 219/237/206
f 219/237/207 231/250/207 232/251/207 220/238/207
f 220/238/208 232/251/208 233/252/208 221/239/208
f 221/239/209 233/252/209 234/253/209 222/240/209
f 222/240/210 234/253/210 235/254/210 223/241/210
f 223/242/211 235/255/211 236/256/211 224/243/211
f 224/243/212 236/256/212 237/257/212 225/244/212
f 225/244/213 237/257/213 238/258/213 226/245/213
f 226/245/214 238/258/214 239/259/214 227/246/214
f 227/246/215 239/259/215 240/260/215 228/247/215
f 228/247/216 240/260/216 229/248/216 217/235/216
f 229/248/217 241/261/217 242/262/217 230/249/217
f 230/249/218 242/262/218 243/263/218 231/250/218
f 231/250/219 243/263/219 244/264/219 232/251/219
f 232/251/220 244/264/220 245/265/220 233/252/220
f 233/252/221 245/265/221 246/266/221 234/253/221
f 234/253/222 246/266/222 247/267/222 235/254/222
f 235/255/223 247/268/223 248/269/223 236/256/223
f 236/256/224 248/269/224 249/270/224 237/257/224
f 237/257/225 249/270/225 250/271/225 238/258/225
f 238/258/226 250/271/226 251/272/226 239/259/226
f 239/259/227 251/272/227 252/273/227 240/260/227
f 240/260/228 252/273/228 241/261/228 229/248/228
f 241/261/229 253/274/229 254/275/229 242/262/229
f 242/262/230 254/275/230 255/276/230 243/263/230
f 243/263/231 255/276/231 256/277/231 244/264/231
f 244/264/232 256/277/232 257/278/232 245/265/232
f 245/265/233 257/278/233 258/279/233 246/266/233
f 246/266/234 258/279/234 259/280/234 247/267/234
f 247/268/235 259/281/235 260/282/235 248/269/235
f 248/269/236 260/282/236 261/283/236 249/270/236
f 249/270/237 261/283/237 262/284/237 250/271/237
f 250/271/238 262/284/238 263/285/238 251/272/238
f 251/272/239 263/285/239 264/286/239 252/273/239
f 252/273/240 264/286/240 253/274/240 241/261/240
f 253/274/241 265/287/241 266/288/241 254/275/241
f 254/275/242 266/288/242 267/289/242 255/276/242
f 255/276/243 267/289/243 268/290/243 256/277/243
f 256/277/244 268/290/244 269/291/244 257/278/244
f 257/278/245 269/291/245 270/292/245 258/279/245
f 258/279/246 270/292/246 271/293/246 259/280/246
f 259/281/247 271/294/247 272/295/247 260/282/247
f 260/282/248 272/295/248 273/296/248 261/283/248
f 261/283/249 273/296/249 274/297/249 262/284/249
f 262/284/250 274/297/250 275/298/250 263/285/250
f 263/285/251 275/298/251 276/299/251 264/286/251
f 264/286/252 276/299/252 265/287/252 253/274/252
f 265/287/253 1/1/253 2/4/253 266/288/253
f 266/288/254 2/4/254 3/6/254 267/289/254
f 267/289/255 3/6/255 4/8/255 268/290/255
f 268/290/256 4/8/256 5/10/256 269/291/256
f 269/291/257 5/10/257 6/12/257 270/292/257
f 270/292/258 6/12/258 7/14/258 271/293/258
f 271/294/259 7/15/259 8/18/259 272/295/259
f 272/295/260 8/18/260 9/20/260 273/296/260
f 273/296/261 9/20/261 10/22/261 274/297/261
f 274/297/262 10/22/262 11/24/262 275/298/262
f 275/298/263 11/24/263 12/26/263 276/299/263
f 276/299/264 12/26/264 1/1/264 265/287/264
f 277/300/265 278/301/265 280/302/265 279/303/265
f 279/303/266 280/302/266 282/304/266 281/305/266
f 281/305/267 282/304/267 284/306/267 283/307/267
f 283/307/268 284/306/268 286/308/268 285/309/268
f 285/309/269 286/308/269 288/310/269 287/311/269
f 287/311/270 288/310/270 290/312/270 289/313/270
f 289/313/271 290/312/271 292/314/271 291/315/271
f 291/315/272 292/314/272 294/316/272 293/317/272
f 293/317/273 294/316/273 296/318/273 295/319/273
f 295/319/274 296/318/274 298/320/274 297/321/274
f 297/321/275 298/320/275 300/322/275 299/323/275
f 299/323/276 300/322/276 302/324/276 301/325/276
f 301/325/277 302/324/277 304/326/277 303/327/277
f 303/327/278 304/326/278 306/328/278 305/329/278
f 305/329/279 306/328/279 308/330/279 307/331/279
f 307/331/280 308/330/280 310/332/280 309/333/280
f 309/333/281 310/332/281 312/334/281 311/335/281
f 311/335/282 312/334/282 314/336/282 313/337/282
f 313/337/283 314/336/283 316/338/283 315/339/283
f 315/339/284 316/338/284 318/340/284 317/341/284
f 317/341/285 318/340/285 320/342/285 319/343/285
f 319/343/286 320/342/286 322/344/286 321/345/286
f 321/345/287 322/344/287 324/346/287 323/347/287
f 323/347/288 324/346/288 326/348/288 325/349/288
f 325/349/289 326/348/289 328/350/289 327/351/289
f 327/351/290 328/350/290 330/352/290 329/353/290
f 329/353/291 330/352/291 332/354/291 331/355/291
f 331/355/292 332/354/292 334/356/292 333/357/292
f 333/357/293 334/356/293 336/358/293 335/359/293
f 335/359/294 336/358/294 338/360/294 337/361/294
f 282/362/295 280/363/295 341/364/295 343/365/295
f 337/361/296 338/360/296 340/366/296 339/367/296
f 339/367/297 340/366/297 278/301/297 277/300/297
f 277/368/298 279/369/298 281/370/298 283/371/298 285/372/298 287/373/298 289/374/298 291/375/298 293/376/298 295/377/298 297/378/298 299/379/298 301/380/298 303/381/298 305/382/298 307/383/298 309/384/298 311/385/298 313/386/298 315/387/298 317/388/298 319/389/298 321/390/298 323/391/298 325/392/298 327/393/298 329/394/298 331/395/298 333/396/298 335/397/298 337/398/298 339/399/298
f 472/400/299 469/401/299 375/402/299 376/403/299
f 300/404/300 298/405/300 351/406/300 352/407/300
f 318/408/301 316/409/301 360/410/301 361/411/301
f 336/412/302 334/413/302 369/414/302 370/415/302
f 292/416/303 290/417/303 347/418/303 348/419/303
f 310/420/304 308/421/304 356/422/304 357/423/304
f 328/424/305 326/425/305 365/426/305 366/427/305
f 284/428/306 282/362/306 343/365/306 344/429/306
f 302/430/307 300/404/307 352/407/307 353/431/307
f 320/432/308 318/408/308 361/411/308 362/433/308
f 338/434/309 336/412/309 370/415/309 371/435/309
f 294/436/310 292/416/310 348/419/310 349/437/310
f 312/438/311 310/420/311 357/423/311 358/439/311
f 330/440/312 328/424/312 366/427/312 367/441/312
f 286/442/313 284/428/313 344/429/313 345/443/313
f 304/444/314 302/430/314 353/431/314 354/445/314
f 322/446/315 320/432/315 362/433/315 363/447/315
f 340/448/316 338/434/316 371/435/316 372/449/316
f 296/450/317 294/436/317 349/437/317 350/451/317
f 314/452/318 312/438/318 358/439/318 359/453/318
f 332/454/319 330/440/319 367/441/319 368/455/319
f 288/456/320 286/442/320 345/443/320 346/457/320
f 306/458/321 304/444/321 354/445/321 355/459/321
f 324/460/322 322/446/322 363/447/322 364/461/322
f 280/363/323 278/462/323 342/463/323 341/364/323
f 278/462/324 340/448/324 372/449/324 342/463/324
f 298/405/325 296/450/325 350/451/325 351/406/325
f 316/409/326 314/452/326 359/453/326 360/410/326
f 334/413/327 332/454/327 368/455/327 369/414/327
f 290/417/328 288/456/328 346/457/328 347/418/328
f 308/421/329 306/458/329 355/459/329 356/422/329
f 326/425/330 324/460/330 364/461/330 365/426/330
f 373/464/331 374/465/331 404/466/331 403/467/331 402/468/331 401/469/331 400/470/331 399/471/331 398/472/331 397/473/331 396/474/331 395/475/331 394/476/331 393/477/331 392/478/331 391/479/331 390/480/331 389/481/331 388/482/331 387/483/331 386/484/331 385/485/331 384/486/331 383/487/331 382/488/331 381/489/331 380/490/331 379/491/331 378/492/331 377/493/331 376/494/331 375/495/331
f 473/496/332 470/497/332 402/498/332 403/499/332
f 474/500/333 471/501/333 389/502/333 390/503/333
f 475/504/334 472/400/334 376/403/334 377/505/334
f 476/506/335 473/496/335 403/499/335 404/507/335
f 477/508/336 474/500/336 390/503/336 391/509/336
f 478/510/337 475/504/337 377/505/337 378/511/337
f 479/512/338 476/506/338 404/507/338 374/513/338
f 480/514/339 477/508/339 391/509/339 392/515/339
f 481/516/340 478/510/340 378/511/340 379/517/340
f 482/518/341 480/514/341 392/515/341 393/519/341
f 483/520/342 481/516/342 379/517/342 380/521/342
f 484/522/343 482/518/343 393/519/343 394/523/343
f 485/524/344 483/520/344 380/521/344 381/525/344
f 486/526/345 484/522/345 394/523/345 395/527/345
f 487/528/346 485/524/346 381/525/346 382/529/346
f 488/530/347 486/526/347 395/527/347 396/531/347
f 489/532/348 487/528/348 382/529/348 383/533/348
f 490/534/349 488/530/349 396/531/349 397/535/349
f 491/536/350 489/532/350 383/533/350 384/537/350
f 492/538/351 490/534/351 397/535/351 398/539/351
f 493/540/352 491/536/352 384/537/352 385/541/352
f 494/542/353 492/538/353 398/539/353 399/543/353
f 495/544/354 493/540/354 385/541/354 386/545/354
f 496/546/355 494/542/355 399/543/355 400/547/355
f 497/548/356 495/544/356 386/545/356 387/549/356
f 498/550/357 479/512/357 374/513/357 373/551/357
f 499/552/358 496/546/358 400/547/358 401/553/358
f 500/554/359 497/548/359 387/549/359 388/555/359
f 469/401/360 498/550/360 373/551/360 375/402/360
f 470/497/361 499/552/361 401/553/361 402/498/361
f 471/501/362 500/554/362 388/555/362 389/502/362
f 357/556/363 356/557/363 436/558/363 409/559/363
f 370/560/364 369/561/364 435/562/364 407/563/364
f 343/564/365 341/565/365 434/566/365 405/567/365
f 356/557/366 355/568/366 433/569/366 436/558/366
f 369/561/367 368/570/367 432/571/367 435/562/367
f 341/565/368 342/572/368 415/573/368 434/566/368
f 355/568/369 354/574/369 431/575/369 433/569/369
f 368/570/370 367/576/370 430/577/370 432/571/370
f 354/574/371 353/578/371 429/579/371 431/575/371
f 367/576/372 366/580/372 428/581/372 430/577/372
f 353/578/373 352/582/373 427/583/373 429/579/373
f 366/580/374 365/584/374 426/585/374 428/581/374
f 352/582/375 351/586/375 425/587/375 427/583/375
f 365/584/376 364/588/376 424/589/376 426/585/376
f 351/586/377 350/590/377 423/591/377 425/587/377
f 364/588/378 363/592/378 422/593/378 424/589/378
f 350/590/379 349/594/379 421/595/379 423/591/379
f 363/592/380 362/596/380 420/597/380 422/593/380
f 349/594/381 348/598/381 419/599/381 421/595/381
f 362/596/382 361/600/382 418/601/382 420/597/382
f 348/598/383 347/602/383 417/603/383 419/599/383
f 361/600/384 360/604/384 416/605/384 418/601/384
f 347/602/385 346/606/385 414/607/385 417/603/385
f 360/604/386 359/608/386 413/609/386 416/605/386
f 342/572/387 372/610/387 412/611/387 415/573/387
f 346/606/388 345/612/388 411/613/388 414/607/388
f 359/608/389 358/614/389 410/615/389 413/609/389
f 372/610/390 371/616/390 408/617/390 412/611/390
f 345/612/391 344/618/391 406/619/391 411/613/391
f 358/614/392 357/556/392 409/559/392 410/615/392
f 371/616/393 370/560/393 407/563/393 408/617/393
f 344/618/394 343/564/394 405/567/394 406/619/394
f 409/559/395 436/558/395 468/620/395 439/621/395
f 407/563/396 435/562/396 467/622/396 438/623/396
f 405/567/397 434/566/397 466/624/397 437/625/397
f 436/558/398 433/569/398 465/626/398 468/620/398
f 435/562/399 432/571/399 464/627/399 467/622/399
f 434/566/400 415/573/400 447/628/400 466/624/400
f 433/569/401 431/575/401 463/629/401 465/626/401
f 432/571/402 430/577/402 462/630/402 464/627/402
f 431/575/403 429/579/403 461/631/403 463/629/403
f 430/577/404 428/581/404 460/632/404 462/630/404
f 429/579/405 427/583/405 459/633/405 461/631/405
f 428/581/406 426/585/406 460/632/406
f 427/583/407 425/587/407 457/634/407 459/633/407
f 426/585/408 424/589/408 456/635/408
f 425/587/409 423/591/409 455/636/409 457/634/409
f 424/589/410 422/593/410 454/637/410 456/635/410
f 423/591/411 421/595/411 453/638/411 455/636/411
f 422/593/412 420/597/412 452/639/412 454/637/412
f 421/595/413 419/599/413 451/640/413 453/638/413
f 420/597/414 418/601/414 450/641/414 452/639/414
f 419/599/415 417/603/415 449/642/415 451/640/415
f 418/601/416 416/605/416 448/643/416 450/641/416
f 417/603/417 414/607/417 446/644/417 449/642/417
f 416/605/418 413/609/418 445/645/418 448/643/418
f 415/573/419 412/611/419 444/646/419 447/628/419
f 414/607/420 411/613/420 443/647/420 446/644/420
f 413/609/421 410/615/421 442/648/421 445/645/421
f 412/611/422 408/617/422 441/649/422 444/646/422
f 411/613/423 406/619/423 440/650/423 443/647/423
f 410/615/424 409/559/424 439/621/424 442/648/424
f 408/617/425 407/563/425 438/623/425 441/649/425
f 406/619/426 405/567/426 437/625/426 440/650/426
f 439/621/427 468/620/427 500/554/427 471/501/427
f 438/623/428 467/622/428 499/552/428 470/497/428
f 437/625/429 466/624/429 498/550/429 469/401/429
f 468/620/430 465/626/430 497/548/430 500/554/430
f 467/622/431 464/627/431 496/546/431 499/552/431
f 466/624/432 447/628/432 479/512/432 498/550/432
f 465/626/433 463/629/433 495/544/433 497/548/433
f 464/627/434 462/630/434 494/542/434 496/546/434
f 463/629/435 461/631/435 493/540/435 495/544/435
f 462/630/436 460/632/436 492/538/436 494/542/436
f 461/631/437 459/633/437 491/536/437 493/540/437
f 460/632/438 458/651/438 490/534/438 492/538/438
f 459/633/439 457/634/439 489/532/439 491/536/439
f 458/651/440 456/635/440 488/530/440 490/534/440
f 457/634/441 455/636/441 487/528/441 489/532/441
f 456/635/442 454/637/442 486/526/442 488/530/442
f 455/636/443 453/638/443 485/524/443 487/528/443
f 454/637/444 452/639/444 484/522/444 486/526/444
f 453/638/445 451/640/445 483/520/445 485/524/445
f 452/639/446 450/641/446 482/518/446 484/522/446
f 451/640/447 449/642/447 481/516/447 483/520/447
f 450/641/448 448/643/448 480/514/448 482/518/448
f 449/642/449 446/644/449 478/510/449 481/516/449
f 448/643/450 445/645/450 477/508/450 480/514/450
f 447/628/451 444/646/451 476/506/451 479/512/451
f 446/644/452 443/647/452 475/504/452 478/510/452
f 445/645/453 442/648/453 474/500/453 477/508/453
f 444/646/454 441/649/454 473/496/454 476/506/454
f 443/647/455 440/650/455 472/400/455 475/504/455
f 442/648/456 439/621/456 471/501/456 474/500/456
f 441/649/457 438/623/457 470/497/457 473/496/457
f 440/650/458 437/625/458 469/401/458 472/400/458
f 456/652/459 458/653/459 501/654/459
f 426/655/460 456/652/460 501/654/460
f 460/656/461 426/655/461 501/654/461
f 458/653/462 460/656/462 501/654/462
