# Blender 5.1.0
# www.blender.org
mtllib bettercounter.mtl
o Cube
v 8.582138 0.623400 -1.000000
v 8.582138 -0.623400 -1.000000
v 8.582138 0.623400 1.000000
v 8.582138 -0.623400 1.000000
v -8.582138 0.623400 -1.000000
v -8.582138 -0.623400 -1.000000
v -8.582138 0.623400 1.000000
v -8.582138 -0.623400 1.000000
vn -0.0000 -0.0000 1.0000
vn -1.0000 -0.0000 -0.0000
vn -0.0000 -1.0000 -0.0000
vn 1.0000 -0.0000 -0.0000
vn -0.0000 -0.0000 -1.0000
vt 0.375000 0.750000
vt 0.625000 0.750000
vt 0.625000 1.000000
vt 0.375000 1.000000
vt 0.375000 0.000000
vt 0.625000 0.000000
vt 0.625000 0.250000
vt 0.375000 0.250000
vt 0.125000 0.500000
vt 0.375000 0.500000
vt 0.125000 0.750000
vt 0.625000 0.500000
s 0
usemtl Material
f 4/1/1 3/2/1 7/3/1 8/4/1
f 8/5/2 7/6/2 5/7/2 6/8/2
f 6/9/3 2/10/3 4/1/3 8/11/3
f 2/10/4 1/12/4 3/2/4 4/1/4
f 6/8/5 5/7/5 1/12/5 2/10/5
o Cube.001
v -8.770969 0.509702 1.444358
v -8.770969 0.844595 1.444358
v -8.770969 0.509702 -1.473129
v -8.770969 0.844595 -1.473129
v 8.888571 0.509702 1.444358
v 8.888571 0.844595 1.444358
v 8.888571 0.509702 -1.473129
v 8.888571 0.844595 -1.473129
vn -1.0000 -0.0000 -0.0000
vn -0.0000 -0.0000 -1.0000
vn 1.0000 -0.0000 -0.0000
vn -0.0000 -0.0000 1.0000
vn -0.0000 -1.0000 -0.0000
vn -0.0000 1.0000 -0.0000
vt 0.375000 0.000000
vt 0.625000 0.000000
vt 0.625000 0.250000
vt 0.375000 0.250000
vt 0.625000 0.500000
vt 0.375000 0.500000
vt 0.625000 0.750000
vt 0.375000 0.750000
vt 0.625000 1.000000
vt 0.375000 1.000000
vt 0.125000 0.500000
vt 0.125000 0.750000
vt 0.875000 0.500000
vt 0.875000 0.750000
s 0
usemtl Material.001
f 9/13/6 10/14/6 12/15/6 11/16/6
f 11/16/7 12/15/7 16/17/7 15/18/7
f 15/18/8 16/17/8 14/19/8 13/20/8
f 13/20/9 14/19/9 10/21/9 9/22/9
f 11/23/10 15/18/10 13/20/10 9/24/10
f 16/17/11 12/25/11 10/26/11 14/19/11
