# Blender 5.1.0
# www.blender.org
mtllib bettercup.mtl
o Cylinder
v 0.000000 -1.000000 -1.000000
v 0.000000 1.000000 -0.899090
v 0.195090 -1.000000 -0.980785
v 0.175404 1.000000 -0.881814
v 0.382683 -1.000000 -0.923880
v 0.344067 1.000000 -0.830651
v 0.555570 -1.000000 -0.831470
v 0.499508 1.000000 -0.747566
v 0.707107 -1.000000 -0.707107
v 0.635752 1.000000 -0.635752
v 0.831470 -1.000000 -0.555570
v 0.747566 1.000000 -0.499508
v 0.923880 -1.000000 -0.382683
v 0.830651 1.000000 -0.344067
v 0.980785 -1.000000 -0.195090
v 0.881814 1.000000 -0.175404
v 1.000000 -1.000000 0.000000
v 0.899090 1.000000 0.000000
v 0.980785 -1.000000 0.195090
v 0.881814 1.000000 0.175404
v 0.923880 -1.000000 0.382683
v 0.830651 1.000000 0.344067
v 0.831470 -1.000000 0.555570
v 0.747566 1.000000 0.499508
v 0.707107 -1.000000 0.707107
v 0.635752 1.000000 0.635752
v 0.555570 -1.000000 0.831470
v 0.499508 1.000000 0.747566
v 0.382683 -1.000000 0.923880
v 0.344067 1.000000 0.830651
v 0.195090 -1.000000 0.980785
v 0.175404 1.000000 0.881814
v 0.000000 -1.000000 1.000000
v 0.000000 1.000000 0.899090
v -0.195090 -1.000000 0.980785
v -0.175404 1.000000 0.881814
v -0.382683 -1.000000 0.923880
v -0.344067 1.000000 0.830651
v -0.555570 -1.000000 0.831470
v -0.499508 1.000000 0.747566
v -0.707107 -1.000000 0.707107
v -0.635752 1.000000 0.635752
v -0.831470 -1.000000 0.555570
v -0.747566 1.000000 0.499508
v -0.923880 -1.000000 0.382683
v -0.830651 1.000000 0.344067
v -0.980785 -1.000000 0.195090
v -0.881814 1.000000 0.175404
v -1.000000 -1.000000 0.000000
v -0.899090 1.000000 0.000000
v -0.980785 -1.000000 -0.195090
v -0.881814 1.000000 -0.175404
v -0.923880 -1.000000 -0.382683
v -0.830651 1.000000 -0.344067
v -0.831470 -1.000000 -0.555570
v -0.747566 1.000000 -0.499508
v -0.707107 -1.000000 -0.707107
v -0.635752 1.000000 -0.635752
v -0.555570 -1.000000 -0.831470
v -0.499508 1.000000 -0.747566
v -0.382683 -1.000000 -0.923880
v -0.344067 1.000000 -0.830651
v -0.195090 -1.000000 -0.980785
v -0.175404 1.000000 -0.881814
v 0.195090 1.000000 -0.980785
v 0.000000 1.000000 -1.000000
v 0.382683 1.000000 -0.923880
v 0.555570 1.000000 -0.831470
v 0.707107 1.000000 -0.707107
v 0.831470 1.000000 -0.555570
v 0.923880 1.000000 -0.382683
v 0.980785 1.000000 -0.195090
v 1.000000 1.000000 0.000000
v 0.980785 1.000000 0.195090
v 0.923880 1.000000 0.382683
v 0.831470 1.000000 0.555570
v 0.707107 1.000000 0.707107
v 0.555570 1.000000 0.831470
v 0.382683 1.000000 0.923880
v 0.195090 1.000000 0.980785
v 0.000000 1.000000 1.000000
v -0.195090 1.000000 0.980785
v -0.382683 1.000000 0.923880
v -0.555570 1.000000 0.831470
v -0.707107 1.000000 0.707107
v -0.831470 1.000000 0.555570
v -0.923880 1.000000 0.382683
v -0.980785 1.000000 0.195090
v -1.000000 1.000000 0.000000
v -0.980785 1.000000 -0.195090
v -0.923880 1.000000 -0.382683
v -0.831470 1.000000 -0.555570
v -0.707107 1.000000 -0.707107
v -0.555570 1.000000 -0.831470
v -0.382683 1.000000 -0.923880
v -0.195090 1.000000 -0.980785
v 0.175404 1.000000 -0.881814
v 0.000000 1.000000 -0.899090
v 0.344067 1.000000 -0.830651
v 0.499508 1.000000 -0.747566
v 0.635752 1.000000 -0.635752
v 0.747566 1.000000 -0.499508
v 0.830651 1.000000 -0.344067
v 0.881814 1.000000 -0.175404
v 0.899090 1.000000 0.000000
v 0.881814 1.000000 0.175404
v 0.830651 1.000000 0.344067
v 0.747566 1.000000 0.499508
v 0.635752 1.000000 0.635752
v 0.499508 1.000000 0.747566
v 0.344067 1.000000 0.830651
v 0.175404 1.000000 0.881814
v 0.000000 1.000000 0.899090
v -0.175404 1.000000 0.881814
v -0.344067 1.000000 0.830651
v -0.499508 1.000000 0.747566
v -0.635752 1.000000 0.635752
v -0.747566 1.000000 0.499508
v -0.830651 1.000000 0.344067
v -0.881814 1.000000 0.175404
v -0.899090 1.000000 0.000000
v -0.881814 1.000000 -0.175404
v -0.830651 1.000000 -0.344067
v -0.747566 1.000000 -0.499508
v -0.635752 1.000000 -0.635752
v -0.499508 1.000000 -0.747566
v -0.344067 1.000000 -0.830651
v -0.175404 1.000000 -0.881814
v 0.175404 1.000000 -0.881814
v 0.000000 1.000000 -0.899090
v 0.344067 1.000000 -0.830651
v 0.499508 1.000000 -0.747566
v 0.635752 1.000000 -0.635752
v 0.747566 1.000000 -0.499508
v 0.830651 1.000000 -0.344067
v 0.881814 1.000000 -0.175404
v 0.899090 1.000000 0.000000
v 0.881814 1.000000 0.175404
v 0.830651 1.000000 0.344067
v 0.747566 1.000000 0.499508
v 0.635752 1.000000 0.635752
v 0.499508 1.000000 0.747566
v 0.344067 1.000000 0.830651
v 0.175404 1.000000 0.881814
v 0.000000 1.000000 0.899090
v -0.175404 1.000000 0.881814
v -0.344067 1.000000 0.830651
v -0.499508 1.000000 0.747566
v -0.635752 1.000000 0.635752
v -0.747566 1.000000 0.499508
v -0.830651 1.000000 0.344067
v -0.881814 1.000000 0.175404
v -0.899090 1.000000 0.000000
v -0.881814 1.000000 -0.175404
v -0.830651 1.000000 -0.344067
v -0.747566 1.000000 -0.499508
v -0.635752 1.000000 -0.635752
v -0.499508 1.000000 -0.747566
v -0.344067 1.000000 -0.830651
v -0.175404 1.000000 -0.881814
v 0.175404 -0.896732 -0.881814
v -0.000000 -0.896732 -0.899090
v 0.344067 -0.896732 -0.830651
v 0.499507 -0.896732 -0.747566
v 0.635752 -0.896732 -0.635752
v 0.747566 -0.896732 -0.499508
v 0.830651 -0.896732 -0.344067
v 0.881814 -0.896732 -0.175404
v 0.899090 -0.896732 0.000000
v 0.881814 -0.896732 0.175404
v 0.830651 -0.896732 0.344067
v 0.747566 -0.896732 0.499508
v 0.635752 -0.896732 0.635752
v 0.499507 -0.896732 0.747566
v 0.344067 -0.896732 0.830651
v 0.175404 -0.896732 0.881814
v -0.000000 -0.896732 0.899090
v -0.175404 -0.896732 0.881814
v -0.344067 -0.896732 0.830651
v -0.499508 -0.896732 0.747566
v -0.635753 -0.896732 0.635752
v -0.747566 -0.896732 0.499508
v -0.830651 -0.896732 0.344067
v -0.881814 -0.896732 0.175404
v -0.899090 -0.896732 0.000000
v -0.881814 -0.896732 -0.175404
v -0.830651 -0.896732 -0.344067
v -0.747566 -0.896732 -0.499508
v -0.635753 -0.896732 -0.635752
v -0.499508 -0.896732 -0.747566
v -0.344067 -0.896732 -0.830651
v -0.175404 -0.896732 -0.881814
v 1.828775 -0.033803 0.000000
v 1.818519 -0.033803 -0.038278
v 1.790497 -0.033803 -0.066300
v 1.752219 -0.033803 -0.076556
v 1.713941 -0.033803 -0.066300
v 1.685919 -0.033803 -0.038278
v 1.675663 -0.033803 0.000000
v 1.685919 -0.033803 0.038278
v 1.713941 -0.033803 0.066300
v 1.752219 -0.033803 0.076556
v 1.790497 -0.033803 0.066300
v 1.818519 -0.033803 0.038278
v 1.715953 -0.454862 0.000000
v 1.707070 -0.449733 -0.038278
v 1.682803 -0.435723 -0.066299
v 1.649654 -0.416584 -0.076556
v 1.616504 -0.397445 -0.066299
v 1.592236 -0.383434 -0.038278
v 1.583354 -0.378306 0.000000
v 1.592236 -0.383434 0.038278
v 1.616504 -0.397445 0.066300
v 1.649654 -0.416584 0.076556
v 1.682803 -0.435723 0.066300
v 1.707070 -0.449733 0.038278
v 1.407717 -0.763098 0.000000
v 1.402588 -0.754216 -0.038278
v 1.388578 -0.729948 -0.066299
v 1.369439 -0.696798 -0.076556
v 1.350300 -0.663649 -0.066299
v 1.336289 -0.639381 -0.038278
v 1.331161 -0.630499 0.000000
v 1.336289 -0.639381 0.038278
v 1.350300 -0.663649 0.066300
v 1.369439 -0.696798 0.076556
v 1.388578 -0.729948 0.066300
v 1.402588 -0.754216 0.038278
v 0.986658 -0.875920 0.000000
v 0.986658 -0.865664 -0.038278
v 0.986658 -0.837642 -0.066299
v 0.986658 -0.799364 -0.076556
v 0.986658 -0.761086 -0.066299
v 0.986658 -0.733065 -0.038278
v 0.986658 -0.722808 0.000000
v 0.986658 -0.733065 0.038278
v 0.986658 -0.761086 0.066300
v 0.986658 -0.799364 0.076556
v 0.986658 -0.837642 0.066300
v 0.986658 -0.865664 0.038278
v 0.986658 0.808314 0.000000
v 0.986658 0.798057 -0.038278
v 0.986658 0.770036 -0.066300
v 0.986658 0.731758 -0.076556
v 0.986658 0.693480 -0.066299
v 0.986658 0.665458 -0.038278
v 0.986658 0.655202 0.000000
v 0.986658 0.665458 0.038278
v 0.986658 0.693480 0.066299
v 0.986658 0.731758 0.076556
v 0.986658 0.770036 0.066299
v 0.986658 0.798057 0.038278
v 1.407717 0.695492 0.000000
v 1.402588 0.686609 -0.038278
v 1.388578 0.662342 -0.066300
v 1.369439 0.629192 -0.076556
v 1.350300 0.596042 -0.066300
v 1.336289 0.571775 -0.038278
v 1.331161 0.562893 0.000000
v 1.336289 0.571775 0.038278
v 1.350300 0.596042 0.066299
v 1.369439 0.629192 0.076556
v 1.388578 0.662342 0.066299
v 1.402588 0.686609 0.038278
v 1.715953 0.387255 0.000000
v 1.707070 0.382127 -0.038278
v 1.682803 0.368116 -0.066300
v 1.649654 0.348977 -0.076556
v 1.616504 0.329838 -0.066300
v 1.592236 0.315828 -0.038278
v 1.583354 0.310699 0.000000
v 1.592236 0.315828 0.038278
v 1.616504 0.329838 0.066300
v 1.649654 0.348977 0.076556
v 1.682803 0.368116 0.066300
v 1.707070 0.382127 0.038278
vn -0.0000 -0.0000 -1.0000
vn 0.1951 -0.0000 -0.9808
vn 0.3827 -0.0000 -0.9239
vn 0.5556 -0.0000 -0.8315
vn 0.7071 -0.0000 -0.7071
vn 0.8315 -0.0000 -0.5556
vn 0.9239 -0.0000 -0.3827
vn 0.9808 -0.0000 -0.1951
vn 1.0000 -0.0000 -0.0000
vn 0.9808 -0.0000 0.1951
vn 0.9239 -0.0000 0.3827
vn 0.8315 -0.0000 0.5556
vn 0.7071 -0.0000 0.7071
vn 0.5556 -0.0000 0.8315
vn 0.3827 -0.0000 0.9239
vn 0.1951 -0.0000 0.9808
vn -0.0000 -0.0000 1.0000
vn -0.1951 -0.0000 0.9808
vn -0.3827 -0.0000 0.9239
vn -0.5556 -0.0000 0.8315
vn -0.7071 -0.0000 0.7071
vn -0.8315 -0.0000 0.5556
vn -0.9239 -0.0000 0.3827
vn -0.9808 -0.0000 0.1951
vn -1.0000 -0.0000 -0.0000
vn -0.9808 -0.0000 -0.1951
vn -0.9239 -0.0000 -0.3827
vn -0.8315 -0.0000 -0.5556
vn -0.7071 -0.0000 -0.7071
vn -0.5556 -0.0000 -0.8315
vn -0.3827 -0.0000 -0.9239
vn -0.0000 1.0000 -0.0000
vn -0.1951 -0.0000 -0.9808
vn -0.0000 -1.0000 -0.0000
vn 0.8660 -0.5000 -0.0000
vn 0.7586 -0.4380 -0.4823
vn 0.8760 -0.0000 -0.4823
vn 0.4598 -0.2655 -0.8474
vn 0.5309 -0.0000 -0.8474
vn 0.0373 -0.0215 -0.9991
vn 0.0431 -0.0000 -0.9991
vn -0.4039 0.2332 -0.8846
vn -0.4664 -0.0000 -0.8846
vn -0.7400 0.4273 -0.5194
vn -0.8545 -0.0000 -0.5194
vn -0.8660 0.5000 -0.0000
vn -0.7400 0.4273 0.5194
vn -0.8545 -0.0000 0.5194
vn -0.4039 0.2332 0.8846
vn -0.4664 -0.0000 0.8846
vn 0.0373 -0.0215 0.9991
vn 0.0431 -0.0000 0.9991
vn 0.4598 -0.2655 0.8474
vn 0.5309 -0.0000 0.8474
vn 0.7586 -0.4380 0.4823
vn 0.8760 -0.0000 0.4823
vn 0.5000 -0.8660 -0.0000
vn 0.4380 -0.7586 -0.4823
vn 0.2655 -0.4598 -0.8474
vn 0.0215 -0.0373 -0.9991
vn -0.2332 0.4039 -0.8846
vn -0.4273 0.7400 -0.5194
vn -0.5000 0.8660 -0.0000
vn -0.4273 0.7400 0.5194
vn -0.2332 0.4039 0.8846
vn 0.0215 -0.0373 0.9991
vn 0.2655 -0.4598 0.8474
vn 0.4380 -0.7586 0.4823
vn 0.2588 -0.9659 -0.0000
vn 0.2285 -0.8528 -0.4696
vn 0.1408 -0.5256 -0.8390
vn 0.0115 -0.0431 -0.9990
vn -0.1240 0.4628 -0.8778
vn -0.2232 0.8329 -0.5063
vn -0.2588 0.9659 -0.0000
vn -0.2232 0.8329 0.5063
vn -0.1240 0.4628 0.8778
vn 0.0115 -0.0431 0.9990
vn 0.1408 -0.5256 0.8390
vn 0.2285 -0.8528 0.4696
vn 0.2588 0.9659 -0.0000
vn 0.5000 0.8660 -0.0000
vn 0.4380 0.7586 -0.4823
vn 0.2285 0.8528 -0.4696
vn 0.2655 0.4598 -0.8474
vn 0.1408 0.5256 -0.8390
vn 0.0215 0.0373 -0.9991
vn 0.0115 0.0431 -0.9990
vn -0.2332 -0.4039 -0.8846
vn -0.1240 -0.4628 -0.8778
vn -0.4273 -0.7400 -0.5194
vn -0.2232 -0.8329 -0.5063
vn -0.5000 -0.8660 -0.0000
vn -0.2588 -0.9659 -0.0000
vn -0.4273 -0.7400 0.5194
vn -0.2232 -0.8329 0.5063
vn -0.2332 -0.4039 0.8846
vn -0.1240 -0.4628 0.8778
vn 0.0215 0.0373 0.9991
vn 0.0115 0.0431 0.9990
vn 0.2655 0.4598 0.8474
vn 0.1408 0.5256 0.8390
vn 0.4380 0.7586 0.4823
vn 0.2285 0.8528 0.4696
vn 0.8660 0.5000 -0.0000
vn 0.7586 0.4380 -0.4823
vn 0.4598 0.2655 -0.8474
vn 0.0373 0.0215 -0.9991
vn -0.4039 -0.2332 -0.8846
vn -0.7400 -0.4273 -0.5194
vn -0.8660 -0.5000 -0.0000
vn -0.7400 -0.4273 0.5194
vn -0.4039 -0.2332 0.8846
vn 0.0373 0.0215 0.9991
vn 0.4598 0.2655 0.8474
vn 0.7586 0.4380 0.4823
vt 0.010471 0.613942
vt 0.303755 0.613964
vt 0.303749 0.642725
vt 0.010478 0.642675
vt 0.303733 0.671488
vt 0.010488 0.671407
vt 0.303710 0.700251
vt 0.010500 0.700138
vt 0.303686 0.729016
vt 0.010514 0.728868
vt 0.303668 0.757782
vt 0.010525 0.757596
vt 0.303665 0.786549
vt 0.010525 0.786323
vt 0.303697 0.815318
vt 0.010499 0.815048
vt 0.303795 0.844086
vt 0.010421 0.843773
vt 0.304014 0.872853
vt 0.010243 0.872500
vt 0.303582 0.901627
vt 0.010053 0.901216
vt 0.303464 0.930382
vt 0.010163 0.929955
vt 0.010603 0.010053
vt 0.303904 0.010480
vt 0.304014 0.039219
vt 0.010485 0.038807
vt 0.303824 0.067935
vt 0.010053 0.067582
vt 0.303646 0.096661
vt 0.010272 0.096348
vt 0.303568 0.125386
vt 0.010370 0.125117
vt 0.303542 0.154112
vt 0.010401 0.153886
vt 0.303542 0.182839
vt 0.010399 0.182653
vt 0.303553 0.211567
vt 0.010381 0.211419
vt 0.303566 0.240297
vt 0.010357 0.240184
vt 0.303579 0.269028
vt 0.010334 0.268947
vt 0.303589 0.297760
vt 0.010318 0.297710
vt 0.303596 0.326493
vt 0.010312 0.326471
vt 0.303600 0.355228
vt 0.010317 0.355230
vt 0.303605 0.383965
vt 0.010334 0.383987
vt 0.303613 0.412704
vt 0.010360 0.412742
vt 0.303628 0.441447
vt 0.010390 0.441494
vt 0.303649 0.470192
vt 0.010417 0.470243
vt 0.303677 0.498941
vt 0.010439 0.498988
vt 0.303707 0.527693
vt 0.010454 0.527731
vt 0.303733 0.556448
vt 0.010462 0.556470
vt 0.902025 0.494397
vt 0.905813 0.520216
vt 0.905357 0.520256
vt 0.901180 0.494645
vt 0.303750 0.585205
vt 0.010466 0.585207
vt 0.865404 0.730652
vt 0.885732 0.750980
vt 0.901703 0.774882
vt 0.912704 0.801441
vt 0.918312 0.829636
vt 0.918312 0.858383
vt 0.912704 0.886578
vt 0.901703 0.913137
vt 0.885732 0.937039
vt 0.865404 0.957367
vt 0.841502 0.973338
vt 0.814943 0.984339
vt 0.786748 0.989947
vt 0.758001 0.989947
vt 0.729806 0.984339
vt 0.703247 0.973338
vt 0.679345 0.957367
vt 0.659017 0.937039
vt 0.643046 0.913137
vt 0.632045 0.886578
vt 0.626437 0.858383
vt 0.626437 0.829636
vt 0.632045 0.801441
vt 0.643046 0.774882
vt 0.659017 0.750980
vt 0.679345 0.730652
vt 0.703247 0.714681
vt 0.729806 0.703680
vt 0.758001 0.698072
vt 0.786748 0.698072
vt 0.814943 0.703680
vt 0.841502 0.714681
vt 0.708281 0.646751
vt 0.732180 0.657341
vt 0.727511 0.671575
vt 0.700999 0.659646
vt 0.757797 0.662880
vt 0.756103 0.677966
vt 0.783828 0.662739
vt 0.785078 0.677560
vt 0.809669 0.658911
vt 0.813685 0.673075
vt 0.833707 0.648768
vt 0.840408 0.662018
vt 0.856020 0.635247
vt 0.865060 0.646937
vt 0.874972 0.617247
vt 0.886163 0.626888
vt 0.889875 0.595752
vt 0.902759 0.603152
vt 0.900791 0.571920
vt 0.915216 0.576584
vt 0.905429 0.546216
vt 0.920609 0.547811
vt 0.920609 0.519041
vt 0.916143 0.490347
vt 0.891503 0.470484
vt 0.904898 0.463851
vt 0.878178 0.448196
vt 0.890395 0.438589
vt 0.859876 0.429616
vt 0.869529 0.418316
vt 0.838835 0.414185
vt 0.846269 0.401345
vt 0.814988 0.403322
vt 0.819557 0.388901
vt 0.789310 0.398757
vt 0.790845 0.383969
vt 0.763284 0.398238
vt 0.762227 0.383465
vt 0.737462 0.402036
vt 0.733480 0.387868
vt 0.713452 0.412230
vt 0.706756 0.398972
vt 0.691113 0.425712
vt 0.682082 0.414017
vt 0.672155 0.443707
vt 0.660961 0.434066
vt 0.657256 0.465206
vt 0.644354 0.457827
vt 0.646367 0.489055
vt 0.631948 0.484507
vt 0.641863 0.514749
vt 0.627068 0.513163
vt 0.641303 0.540811
vt 0.626437 0.541592
vt 0.644926 0.566569
vt 0.629578 0.570881
vt 0.654765 0.590837
vt 0.641616 0.597738
vt 0.668773 0.612931
vt 0.657144 0.622081
vt 0.686780 0.631870
vt 0.677172 0.643096
vt 0.859592 0.430042
vt 0.877497 0.448736
vt 0.877074 0.448983
vt 0.859216 0.430393
vt 0.647145 0.489280
vt 0.642316 0.514800
vt 0.891095 0.470706
vt 0.641763 0.540766
vt 0.708702 0.646035
vt 0.732294 0.656855
vt 0.645757 0.566322
vt 0.757821 0.662249
vt 0.655175 0.590628
vt 0.838422 0.414908
vt 0.783786 0.662282
vt 0.669430 0.612431
vt 0.814762 0.404103
vt 0.809424 0.658062
vt 0.687364 0.631194
vt 0.789259 0.399211
vt 0.833496 0.648363
vt 0.763325 0.398690
vt 0.855524 0.634586
vt 0.737706 0.402886
vt 0.874298 0.616660
vt 0.713664 0.412635
vt 0.889145 0.595340
vt 0.691606 0.426370
vt 0.900002 0.571698
vt 0.672830 0.444293
vt 0.904786 0.546187
vt 0.657986 0.465617
vt 0.325544 0.141827
vt 0.325239 0.115994
vt 0.603284 0.113393
vt 0.603582 0.139249
vt 0.732573 0.656023
vt 0.757841 0.661619
vt 0.646532 0.566118
vt 0.655727 0.590292
vt 0.838028 0.415640
vt 0.783745 0.661823
vt 0.670061 0.611896
vt 0.814720 0.404614
vt 0.809168 0.657218
vt 0.687938 0.630512
vt 0.789205 0.399666
vt 0.833127 0.647605
vt 0.709098 0.645304
vt 0.763367 0.399144
vt 0.854993 0.633950
vt 0.737950 0.403734
vt 0.873616 0.616084
vt 0.713878 0.413040
vt 0.888412 0.594936
vt 0.692133 0.427001
vt 0.899487 0.571659
vt 0.673512 0.444870
vt 0.904336 0.546135
vt 0.658720 0.466020
vt 0.904901 0.520295
vt 0.647656 0.489322
vt 0.900339 0.494899
vt 0.642771 0.514854
vt 0.890629 0.470916
vt 0.642224 0.540718
vt 0.979431 0.154187
vt 0.974388 0.179537
vt 0.964497 0.203416
vt 0.950138 0.224906
vt 0.931862 0.243182
vt 0.910371 0.257542
vt 0.886492 0.267433
vt 0.861143 0.272475
vt 0.835296 0.272475
vt 0.809947 0.267433
vt 0.786068 0.257542
vt 0.764577 0.243182
vt 0.746301 0.224906
vt 0.731942 0.203416
vt 0.722051 0.179537
vt 0.717008 0.154187
vt 0.717008 0.128341
vt 0.722051 0.102991
vt 0.731942 0.079112
vt 0.746301 0.057622
vt 0.764577 0.039346
vt 0.786068 0.024986
vt 0.809947 0.015095
vt 0.835296 0.010053
vt 0.861143 0.010053
vt 0.886492 0.015095
vt 0.910371 0.024986
vt 0.931862 0.039346
vt 0.950138 0.057622
vt 0.964497 0.079112
vt 0.974388 0.102991
vt 0.979431 0.128341
vt 0.327458 0.630505
vt 0.327689 0.604822
vt 0.605832 0.606729
vt 0.605603 0.632739
vt 0.328187 0.502124
vt 0.328206 0.476449
vt 0.606331 0.476622
vt 0.606317 0.502644
vt 0.325851 0.167647
vt 0.603893 0.165118
vt 0.327183 0.656196
vt 0.605330 0.658742
vt 0.326156 0.193453
vt 0.604208 0.191000
vt 0.326863 0.681896
vt 0.605018 0.684732
vt 0.326455 0.219245
vt 0.604518 0.216898
vt 0.326512 0.707611
vt 0.604595 0.710706
vt 0.326744 0.245021
vt 0.604818 0.242811
vt 0.326117 0.733344
vt 0.604217 0.736661
vt 0.327019 0.270783
vt 0.605102 0.268740
vt 0.325679 0.759093
vt 0.603818 0.762599
vt 0.327274 0.296530
vt 0.605365 0.294683
vt 0.325198 0.784867
vt 0.603376 0.788510
vt 0.327505 0.322263
vt 0.605602 0.320641
vt 0.324685 0.810651
vt 0.603017 0.814411
vt 0.327708 0.347985
vt 0.605811 0.346613
vt 0.324120 0.836469
vt 0.602431 0.840272
vt 0.327880 0.373694
vt 0.605988 0.372596
vt 0.324252 0.038431
vt 0.324120 0.012576
vt 0.602423 0.010053
vt 0.602574 0.035889
vt 0.328127 0.527798
vt 0.606261 0.528667
vt 0.328019 0.399394
vt 0.606130 0.398591
vt 0.324614 0.064296
vt 0.602777 0.061714
vt 0.328024 0.553470
vt 0.606162 0.554690
vt 0.328120 0.425086
vt 0.606236 0.424594
vt 0.324934 0.090150
vt 0.603010 0.087549
vt 0.327878 0.579144
vt 0.606019 0.580711
vt 0.328183 0.450770
vt 0.606303 0.450605
vt 0.661746 0.186703
vt 0.661708 0.128992
vt 0.667484 0.128986
vt 0.667544 0.186703
vt 0.673223 0.128999
vt 0.673248 0.186703
vt 0.678853 0.128994
vt 0.678961 0.186671
vt 0.684552 0.128952
vt 0.684674 0.186629
vt 0.690300 0.128918
vt 0.690431 0.186601
vt 0.696079 0.128895
vt 0.696230 0.186589
vt 0.627159 0.186808
vt 0.627179 0.129042
vt 0.632978 0.129053
vt 0.632959 0.186798
vt 0.638726 0.129077
vt 0.638768 0.186792
vt 0.644496 0.129069
vt 0.644480 0.186751
vt 0.650193 0.129026
vt 0.650192 0.186719
vt 0.655931 0.129000
vt 0.655947 0.186703
vt 0.661609 0.071000
vt 0.667281 0.071024
vt 0.672939 0.071159
vt 0.678582 0.071348
vt 0.684226 0.071486
vt 0.689947 0.071616
vt 0.695746 0.071712
vt 0.627501 0.071727
vt 0.633301 0.071639
vt 0.638998 0.071502
vt 0.644610 0.071343
vt 0.650257 0.071159
vt 0.655917 0.071027
vt 0.661736 0.010053
vt 0.667842 0.010536
vt 0.673848 0.011761
vt 0.679693 0.013478
vt 0.685383 0.015290
vt 0.691101 0.016690
vt 0.696902 0.017313
vt 0.626437 0.017173
vt 0.632239 0.016564
vt 0.638007 0.015190
vt 0.643769 0.013425
vt 0.649619 0.011725
vt 0.655629 0.010518
vt 0.661609 0.363359
vt 0.661735 0.302400
vt 0.667409 0.302382
vt 0.667715 0.362893
vt 0.673071 0.302252
vt 0.673723 0.361685
vt 0.678719 0.302070
vt 0.679572 0.359985
vt 0.684332 0.301912
vt 0.685333 0.358220
vt 0.690031 0.301779
vt 0.691100 0.356846
vt 0.695831 0.301695
vt 0.696902 0.356236
vt 0.626451 0.356089
vt 0.627641 0.301700
vt 0.633440 0.301797
vt 0.632252 0.356715
vt 0.639161 0.301928
vt 0.637969 0.358118
vt 0.644806 0.302068
vt 0.643657 0.359932
vt 0.650449 0.302257
vt 0.649500 0.361652
vt 0.656061 0.302375
vt 0.655505 0.362877
vt 0.661655 0.244409
vt 0.667449 0.244407
vt 0.673184 0.244389
vt 0.678880 0.244351
vt 0.684648 0.244348
vt 0.690448 0.244354
vt 0.696247 0.244367
vt 0.627291 0.244520
vt 0.633070 0.244497
vt 0.638817 0.244463
vt 0.644516 0.244424
vt 0.650146 0.244422
vt 0.655880 0.244408
s 1
usemtl Material
f 1/1/1 66/2/1 65/3/2 3/4/2
f 3/4/2 65/3/2 67/5/3 5/6/3
f 5/6/3 67/5/3 68/7/4 7/8/4
f 7/8/4 68/7/4 69/9/5 9/10/5
f 9/10/5 69/9/5 70/11/6 11/12/6
f 11/12/6 70/11/6 71/13/7 13/14/7
f 13/14/7 71/13/7 72/15/8 15/16/8
f 15/16/8 72/15/8 73/17/9 17/18/9
f 17/18/9 73/17/9 74/19/10 19/20/10
f 19/20/10 74/19/10 75/21/11 21/22/11
f 21/22/11 75/21/11 76/23/12 23/24/12
f 23/25/12 76/26/12 77/27/13 25/28/13
f 25/28/13 77/27/13 78/29/14 27/30/14
f 27/30/14 78/29/14 79/31/15 29/32/15
f 29/32/15 79/31/15 80/33/16 31/34/16
f 31/34/16 80/33/16 81/35/17 33/36/17
f 33/36/17 81/35/17 82/37/18 35/38/18
f 35/38/18 82/37/18 83/39/19 37/40/19
f 37/40/19 83/39/19 84/41/20 39/42/20
f 39/42/20 84/41/20 85/43/21 41/44/21
f 41/44/21 85/43/21 86/45/22 43/46/22
f 43/46/22 86/45/22 87/47/23 45/48/23
f 45/48/23 87/47/23 88/49/24 47/50/24
f 47/50/24 88/49/24 89/51/25 49/52/25
f 49/52/25 89/51/25 90/53/26 51/54/26
f 51/54/26 90/53/26 91/55/27 53/56/27
f 53/56/27 91/55/27 92/57/28 55/58/28
f 55/58/28 92/57/28 93/59/29 57/60/29
f 57/60/29 93/59/29 94/61/30 59/62/30
f 59/62/30 94/61/30 95/63/31 61/64/31
f 26/65/32 24/66/32 108/67/32 109/68/32
f 61/64/31 95/63/31 96/69/33 63/70/33
f 63/70/33 96/69/33 66/2/1 1/1/1
f 1/71/34 3/72/34 5/73/34 7/74/34 9/75/34 11/76/34 13/77/34 15/78/34 17/79/34 19/80/34 21/81/34 23/82/34 25/83/34 27/84/34 29/85/34 31/86/34 33/87/34 35/88/34 37/89/34 39/90/34 41/91/34 43/92/34 45/93/34 47/94/34 49/95/34 51/96/34 53/97/34 55/98/34 57/99/34 59/100/34 61/101/34 63/102/34
f 2/103/32 4/104/32 65/105/32 66/106/32
f 4/104/32 6/107/32 67/108/32 65/105/32
f 6/107/32 8/109/32 68/110/32 67/108/32
f 8/109/32 10/111/32 69/112/32 68/110/32
f 10/111/32 12/113/32 70/114/32 69/112/32
f 12/113/32 14/115/32 71/116/32 70/114/32
f 14/115/32 16/117/32 72/118/32 71/116/32
f 16/117/32 18/119/32 73/120/32 72/118/32
f 18/119/32 20/121/32 74/122/32 73/120/32
f 20/121/32 22/123/32 75/124/32 74/122/32
f 22/123/32 24/66/32 76/125/32 75/124/32
f 24/66/32 26/65/32 77/126/32 76/125/32
f 26/65/32 28/127/32 78/128/32 77/126/32
f 28/127/32 30/129/32 79/130/32 78/128/32
f 30/129/32 32/131/32 80/132/32 79/130/32
f 32/131/32 34/133/32 81/134/32 80/132/32
f 34/133/32 36/135/32 82/136/32 81/134/32
f 36/135/32 38/137/32 83/138/32 82/136/32
f 38/137/32 40/139/32 84/140/32 83/138/32
f 40/139/32 42/141/32 85/142/32 84/140/32
f 42/141/32 44/143/32 86/144/32 85/142/32
f 44/143/32 46/145/32 87/146/32 86/144/32
f 46/145/32 48/147/32 88/148/32 87/146/32
f 48/147/32 50/149/32 89/150/32 88/148/32
f 50/149/32 52/151/32 90/152/32 89/150/32
f 52/151/32 54/153/32 91/154/32 90/152/32
f 54/153/32 56/155/32 92/156/32 91/154/32
f 56/155/32 58/157/32 93/158/32 92/156/32
f 58/157/32 60/159/32 94/160/32 93/158/32
f 60/159/32 62/161/32 95/162/32 94/160/32
f 62/161/32 64/163/32 96/164/32 95/162/32
f 64/163/32 2/103/32 66/106/32 96/164/32
f 112/165/32 111/166/32 143/167/32 144/168/32
f 54/153/32 52/151/32 122/169/32 123/170/32
f 28/127/32 26/65/32 109/68/32 110/171/32
f 56/155/32 54/153/32 123/170/32 124/172/32
f 30/129/32 28/127/32 110/171/32 111/166/32
f 4/104/32 2/103/32 98/173/32 97/174/32
f 58/157/32 56/155/32 124/172/32 125/175/32
f 32/131/32 30/129/32 111/166/32 112/165/32
f 6/107/32 4/104/32 97/174/32 99/176/32
f 60/159/32 58/157/32 125/175/32 126/177/32
f 34/133/32 32/131/32 112/165/32 113/178/32
f 8/109/32 6/107/32 99/176/32 100/179/32
f 62/161/32 60/159/32 126/177/32 127/180/32
f 36/135/32 34/133/32 113/178/32 114/181/32
f 10/111/32 8/109/32 100/179/32 101/182/32
f 64/163/32 62/161/32 127/180/32 128/183/32
f 38/137/32 36/135/32 114/181/32 115/184/32
f 12/113/32 10/111/32 101/182/32 102/185/32
f 2/103/32 64/163/32 128/183/32 98/173/32
f 40/139/32 38/137/32 115/184/32 116/186/32
f 14/115/32 12/113/32 102/185/32 103/187/32
f 42/141/32 40/139/32 116/186/32 117/188/32
f 16/117/32 14/115/32 103/187/32 104/189/32
f 44/143/32 42/141/32 117/188/32 118/190/32
f 18/119/32 16/117/32 104/189/32 105/191/32
f 46/145/32 44/143/32 118/190/32 119/192/32
f 20/121/32 18/119/32 105/191/32 106/193/32
f 48/147/32 46/145/32 119/192/32 120/194/32
f 22/123/32 20/121/32 106/193/32 107/195/32
f 50/149/32 48/147/32 120/194/32 121/196/32
f 24/66/32 22/123/32 107/195/32 108/67/32
f 52/151/32 50/149/32 121/196/32 122/169/32
f 147/197/3 146/198/2 178/199/2 179/200/3
f 99/176/32 97/174/32 129/201/32 131/202/32
f 126/177/32 125/175/32 157/203/32 158/204/32
f 113/178/32 112/165/32 144/168/32 145/205/32
f 100/179/32 99/176/32 131/202/32 132/206/32
f 127/180/32 126/177/32 158/204/32 159/207/32
f 114/181/32 113/178/32 145/205/32 146/208/32
f 101/182/32 100/179/32 132/206/32 133/209/32
f 128/183/32 127/180/32 159/207/32 160/210/32
f 115/184/32 114/181/32 146/208/32 147/211/32
f 102/185/32 101/182/32 133/209/32 134/212/32
f 98/173/32 128/183/32 160/210/32 130/213/32
f 116/186/32 115/184/32 147/211/32 148/214/32
f 103/187/32 102/185/32 134/212/32 135/215/32
f 117/188/32 116/186/32 148/214/32 149/216/32
f 104/189/32 103/187/32 135/215/32 136/217/32
f 118/190/32 117/188/32 149/216/32 150/218/32
f 105/191/32 104/189/32 136/217/32 137/219/32
f 119/192/32 118/190/32 150/218/32 151/220/32
f 106/193/32 105/191/32 137/219/32 138/221/32
f 120/194/32 119/192/32 151/220/32 152/222/32
f 107/195/32 106/193/32 138/221/32 139/223/32
f 121/196/32 120/194/32 152/222/32 153/224/32
f 108/67/32 107/195/32 139/223/32 140/225/32
f 122/169/32 121/196/32 153/224/32 154/226/32
f 109/68/32 108/67/32 140/225/32 141/227/32
f 123/170/32 122/169/32 154/226/32 155/228/32
f 110/171/32 109/68/32 141/227/32 142/229/32
f 124/172/32 123/170/32 155/228/32 156/230/32
f 111/166/32 110/171/32 142/229/32 143/167/32
f 97/174/32 98/173/32 130/213/32 129/201/32
f 125/175/32 124/172/32 156/230/32 157/203/32
f 161/231/32 162/232/32 192/233/32 191/234/32 190/235/32 189/236/32 188/237/32 187/238/32 186/239/32 185/240/32 184/241/32 183/242/32 182/243/32 181/244/32 180/245/32 179/246/32 178/247/32 177/248/32 176/249/32 175/250/32 174/251/32 173/252/32 172/253/32 171/254/32 170/255/32 169/256/32 168/257/32 167/258/32 166/259/32 165/260/32 164/261/32 163/262/32
f 134/263/22 133/264/21 165/265/21 166/266/22
f 130/267/17 160/268/16 192/269/16 162/270/17
f 148/271/4 147/197/3 179/200/3 180/272/4
f 135/273/23 134/263/22 166/266/22 167/274/23
f 149/275/5 148/271/4 180/272/4 181/276/5
f 136/277/24 135/273/23 167/274/23 168/278/24
f 150/279/6 149/275/5 181/276/5 182/280/6
f 137/281/25 136/277/24 168/278/24 169/282/25
f 151/283/7 150/279/6 182/280/6 183/284/7
f 138/285/26 137/281/25 169/282/25 170/286/26
f 152/287/8 151/283/7 183/284/7 184/288/8
f 139/289/27 138/285/26 170/286/26 171/290/27
f 153/291/9 152/287/8 184/288/8 185/292/9
f 140/293/28 139/289/27 171/290/27 172/294/28
f 154/295/10 153/291/9 185/292/9 186/296/10
f 141/297/29 140/293/28 172/294/28 173/298/29
f 155/299/11 154/295/10 186/296/10 187/300/11
f 142/301/30 141/297/29 173/298/29 174/302/30
f 156/303/12 155/299/11 187/300/11 188/304/12
f 143/305/31 142/306/30 174/307/30 175/308/31
f 129/309/18 130/267/17 162/270/17 161/310/18
f 157/311/13 156/303/12 188/304/12 189/312/13
f 144/313/33 143/305/31 175/308/31 176/314/33
f 131/315/19 129/309/18 161/310/18 163/316/19
f 158/317/14 157/311/13 189/312/13 190/318/14
f 145/319/1 144/313/33 176/314/33 177/320/1
f 132/321/20 131/315/19 163/316/19 164/322/20
f 159/323/15 158/317/14 190/318/14 191/324/15
f 146/198/2 145/319/1 177/320/1 178/199/2
f 133/264/21 132/321/20 164/322/20 165/265/21
f 160/268/16 159/323/15 191/324/15 192/269/16
f 193/325/9 205/326/35 206/327/36 194/328/37
f 194/328/37 206/327/36 207/329/38 195/330/39
f 195/330/39 207/329/38 208/331/40 196/332/41
f 196/332/41 208/331/40 209/333/42 197/334/43
f 197/334/43 209/333/42 210/335/44 198/336/45
f 198/336/45 210/335/44 211/337/46 199/338/25
f 199/339/25 211/340/46 212/341/47 200/342/48
f 200/342/48 212/341/47 213/343/49 201/344/50
f 201/344/50 213/343/49 214/345/51 202/346/52
f 202/346/52 214/345/51 215/347/53 203/348/54
f 203/348/54 215/347/53 216/349/55 204/350/56
f 204/350/56 216/349/55 205/326/35 193/325/9
f 205/326/35 217/351/57 218/352/58 206/327/36
f 206/327/36 218/352/58 219/353/59 207/329/38
f 207/329/38 219/353/59 220/354/60 208/331/40
f 208/331/40 220/354/60 221/355/61 209/333/42
f 209/333/42 221/355/61 222/356/62 210/335/44
f 210/335/44 222/356/62 223/357/63 211/337/46
f 211/340/46 223/358/63 224/359/64 212/341/47
f 212/341/47 224/359/64 225/360/65 213/343/49
f 213/343/49 225/360/65 226/361/66 214/345/51
f 214/345/51 226/361/66 227/362/67 215/347/53
f 215/347/53 227/362/67 228/363/68 216/349/55
f 216/349/55 228/363/68 217/351/57 205/326/35
f 217/351/57 229/364/69 230/365/70 218/352/58
f 218/352/58 230/365/70 231/366/71 219/353/59
f 219/353/59 231/366/71 232/367/72 220/354/60
f 220/354/60 232/367/72 233/368/73 221/355/61
f 221/355/61 233/368/73 234/369/74 222/356/62
f 222/356/62 234/369/74 235/370/75 223/357/63
f 223/358/63 235/371/75 236/372/76 224/359/64
f 224/359/64 236/372/76 237/373/77 225/360/65
f 225/360/65 237/373/77 238/374/78 226/361/66
f 226/361/66 238/374/78 239/375/79 227/362/67
f 227/362/67 239/375/79 240/376/80 228/363/68
f 228/363/68 240/376/80 229/364/69 217/351/57
f 241/377/81 253/378/82 254/379/83 242/380/84
f 242/380/84 254/379/83 255/381/85 243/382/86
f 243/382/86 255/381/85 256/383/87 244/384/88
f 244/384/88 256/383/87 257/385/89 245/386/90
f 245/386/90 257/385/89 258/387/91 246/388/92
f 246/388/92 258/387/91 259/389/93 247/390/94
f 247/391/94 259/392/93 260/393/95 248/394/96
f 248/394/96 260/393/95 261/395/97 249/396/98
f 249/396/98 261/395/97 262/397/99 250/398/100
f 250/398/100 262/397/99 263/399/101 251/400/102
f 251/400/102 263/399/101 264/401/103 252/402/104
f 252/402/104 264/401/103 253/378/82 241/377/81
f 253/378/82 265/403/105 266/404/106 254/379/83
f 254/379/83 266/404/106 267/405/107 255/381/85
f 255/381/85 267/405/107 268/406/108 256/383/87
f 256/383/87 268/406/108 269/407/109 257/385/89
f 257/385/89 269/407/109 270/408/110 258/387/91
f 258/387/91 270/408/110 271/409/111 259/389/93
f 259/392/93 271/410/111 272/411/112 260/393/95
f 260/393/95 272/411/112 273/412/113 261/395/97
f 261/395/97 273/412/113 274/413/114 262/397/99
f 262/397/99 274/413/114 275/414/115 263/399/101
f 263/399/101 275/414/115 276/415/116 264/401/103
f 264/401/103 276/415/116 265/403/105 253/378/82
f 265/403/105 193/325/9 194/328/37 266/404/106
f 266/404/106 194/328/37 195/330/39 267/405/107
f 267/405/107 195/330/39 196/332/41 268/406/108
f 268/406/108 196/332/41 197/334/43 269/407/109
f 269/407/109 197/334/43 198/336/45 270/408/110
f 270/408/110 198/336/45 199/338/25 271/409/111
f 271/410/111 199/339/25 200/342/48 272/411/112
f 272/411/112 200/342/48 201/344/50 273/412/113
f 273/412/113 201/344/50 202/346/52 274/413/114
f 274/413/114 202/346/52 203/348/54 275/414/115
f 275/414/115 203/348/54 204/350/56 276/415/116
f 276/415/116 204/350/56 193/325/9 265/403/105
o Cylinder.001
v 0.175404 0.883567 -0.881814
v -0.000000 0.883567 -0.899090
v 0.344067 0.883567 -0.830651
v 0.499507 0.883567 -0.747566
v 0.635752 0.883567 -0.635752
v 0.747566 0.883567 -0.499508
v 0.830651 0.883567 -0.344067
v 0.881814 0.883567 -0.175404
v 0.899090 0.883567 0.000000
v 0.881814 0.883567 0.175404
v 0.830651 0.883567 0.344067
v 0.747566 0.883567 0.499508
v 0.635752 0.883567 0.635752
v 0.499507 0.883567 0.747566
v 0.344067 0.883567 0.830651
v 0.175404 0.883567 0.881814
v -0.000000 0.883567 0.899090
v -0.175404 0.883567 0.881814
v -0.344067 0.883567 0.830651
v -0.499508 0.883567 0.747566
v -0.635753 0.883567 0.635752
v -0.747566 0.883567 0.499508
v -0.830651 0.883567 0.344067
v -0.881814 0.883567 0.175404
v -0.899090 0.883567 0.000000
v -0.881814 0.883567 -0.175404
v -0.830651 0.883567 -0.344067
v -0.747566 0.883567 -0.499508
v -0.635753 0.883567 -0.635752
v -0.499508 0.883567 -0.747566
v -0.344067 0.883567 -0.830651
v -0.175404 0.883567 -0.881814
vn -0.0000 1.0000 -0.0000
vt 0.937323 0.392720
vt 0.927436 0.393694
vt 0.917548 0.392720
vt 0.908041 0.389836
vt 0.899278 0.385152
vt 0.891598 0.378849
vt 0.885295 0.371169
vt 0.880612 0.362407
vt 0.877727 0.352899
vt 0.876754 0.343012
vt 0.877727 0.333124
vt 0.880612 0.323617
vt 0.885295 0.314854
vt 0.891598 0.307174
vt 0.899278 0.300871
vt 0.908041 0.296188
vt 0.917548 0.293303
vt 0.927436 0.292330
vt 0.937323 0.293303
vt 0.946831 0.296188
vt 0.955593 0.300871
vt 0.963273 0.307174
vt 0.969576 0.314854
vt 0.974260 0.323617
vt 0.977144 0.333124
vt 0.978118 0.343012
vt 0.977144 0.352899
vt 0.974260 0.362407
vt 0.969576 0.371169
vt 0.963273 0.378849
vt 0.955593 0.385152
vt 0.946831 0.389836
s 1
usemtl Material.001
f 277/416/117 278/417/117 308/418/117 307/419/117 306/420/117 305/421/117 304/422/117 303/423/117 302/424/117 301/425/117 300/426/117 299/427/117 298/428/117 297/429/117 296/430/117 295/431/117 294/432/117 293/433/117 292/434/117 291/435/117 290/436/117 289/437/117 288/438/117 287/439/117 286/440/117 285/441/117 284/442/117 283/443/117 282/444/117 281/445/117 280/446/117 279/447/117
