# File produced by Open Asset Import Library (http://www.assimp.sf.net)
# (assimp v3.1.172307092)

mtllib chair.mtl

# vertex positions
v 3.000000 1.000000 -3.000000
v 3.000000 1.000000 3.000000
v -3.000000 1.000000 3.000000
v -3.000000 1.000000 -3.000000
v -3.000000 -6.000000 4.000000
v -3.000000 1.000000 4.000000
v -4.000000 1.000000 4.000000
v -4.000000 -6.000000 4.000000
v -4.000000 1.000000 3.000000
v -4.000000 -6.000000 3.000000
v -3.000000 -6.000000 3.000000
v 4.000000 1.000000 -3.000000
v 4.000000 1.000000 3.000000
v -3.000000 -6.000000 -3.000000
v -4.000000 1.000000 -3.000000
v -4.000000 -6.000000 -3.000000
v -4.000000 1.000000 -4.000000
v -4.000000 -6.000000 -4.000000
v -3.000000 -6.000000 -4.000000
v -3.000000 1.000000 -4.000000
v 4.000000 -6.000000 -3.000000
v 3.000000 -6.000000 -3.000000
v 3.000000 1.000000 -4.000000
v 3.000000 -6.000000 -4.000000
v 4.000000 -6.000000 -4.000000
v 4.000000 1.000000 -4.000000
v 3.000000 1.000000 4.000000
v 4.000000 -6.000000 4.000000
v 4.000000 1.000000 4.000000
v 3.000000 -6.000000 4.000000
v 3.000000 -6.000000 3.000000
v 4.000000 -6.000000 3.000000
v -4.000000 2.000000 4.000000
v -3.000000 2.000000 4.000000
v -3.000000 8.000000 5.000000
v -4.000000 8.000000 5.000000
v -3.000000 2.000000 -4.000000
v -4.000000 2.000000 -4.000000
v -4.000000 2.000000 -3.000000
v -3.000000 2.000000 -3.000000
v 4.000000 2.000000 -4.000000
v 3.000000 2.000000 -4.000000
v 3.000000 2.000000 -3.000000
v 4.000000 2.000000 -3.000000
v 4.000000 2.000000 4.000000
v 4.000000 2.000000 3.000000
v 4.000000 8.000000 4.000000
v 4.000000 8.000000 5.000000
v 3.000000 2.000000 4.000000
v 3.000000 2.000000 3.000000
v -3.000000 2.000000 3.000000
v -4.000000 2.000000 3.000000
v 3.000000 12.000000 4.000000
v -3.000000 12.000000 4.000000
v -3.000000 12.000000 5.000000
v 3.000000 12.000000 5.000000
v 3.000000 8.000000 5.000000
v 4.000000 12.000000 5.000000
v 3.000000 8.000000 4.000000
v -3.000000 8.000000 4.000000
v -4.000000 8.000000 4.000000
v -4.000000 12.000000 5.000000
v -4.000000 12.000000 4.000000
v 4.000000 12.000000 4.000000

# UV coordinates
vt 0.452424 0.210011
vt 0.272415 0.210011
vt 0.272415 0.030002
vt 0.452424 0.030002
vt 0.423922 0.787846
vt 0.423922 0.997857
vt 0.393921 0.997857
vt 0.393921 0.787846
vt 0.090605 0.787846
vt 0.090605 0.997857
vt 0.060603 0.997857
vt 0.060603 0.787846
vt 0.575430 0.787846
vt 0.575430 0.817848
vt 0.545429 0.817848
vt 0.545429 0.787846
vt 0.060303 0.787846
vt 0.060303 0.997857
vt 0.030302 0.997857
vt 0.030302 0.787846
vt 0.181510 0.787846
vt 0.181510 0.997857
vt 0.151508 0.997857
vt 0.151508 0.787846
vt 0.452424 0.240013
vt 0.272415 0.240013
vt 0.272414 0.787846
vt 0.272414 0.997857
vt 0.242413 0.997857
vt 0.242413 0.787846
vt 0.120906 0.787846
vt 0.120906 0.997857
vt 0.090905 0.997857
vt 0.090905 0.787846
vt 0.696637 0.787846
vt 0.696637 0.817848
vt 0.666635 0.817848
vt 0.666635 0.787846
vt 0.393621 0.787846
vt 0.393621 0.997857
vt 0.363619 0.997857
vt 0.363619 0.787846
vt 0.333018 0.787846
vt 0.333018 0.997857
vt 0.303016 0.997857
vt 0.303016 0.787846
vt 0.272415 0.000000
vt 0.452424 0.000000
vt 0.363319 0.787846
vt 0.363319 0.997857
vt 0.333318 0.997857
vt 0.333318 0.787846
vt 0.151208 0.787846
vt 0.151208 0.997857
vt 0.121206 0.997857
vt 0.121206 0.787846
vt 0.666335 0.787846
vt 0.666335 0.817848
vt 0.636334 0.817848
vt 0.636334 0.787846
vt 0.211811 0.787846
vt 0.211811 0.997857
vt 0.181810 0.997857
vt 0.181810 0.787846
vt 0.454224 0.787846
vt 0.454224 0.997857
vt 0.424222 0.997857
vt 0.424222 0.787846
vt 0.242413 0.030002
vt 0.242413 0.210011
vt 0.242113 0.787846
vt 0.242113 0.997857
vt 0.212111 0.997857
vt 0.212111 0.787846
vt 0.999666 0.242417
vt 0.999666 0.452429
vt 0.969664 0.452429
vt 0.969664 0.242417
vt 0.545129 0.787846
vt 0.545129 0.817848
vt 0.515127 0.817848
vt 0.515127 0.787846
vt 0.030002 0.787846
vt 0.030002 0.997857
vt 0.000000 0.997857
vt 0.000000 0.787846
vt 0.302716 0.787846
vt 0.302716 0.997857
vt 0.272714 0.997857
vt 0.272714 0.787846
vt 0.482426 0.030002
vt 0.482426 0.210011
vt 0.454524 0.787846
vt 0.484526 0.787846
vt 0.484526 0.817848
vt 0.454524 0.817848
vt 0.606032 0.817848
vt 0.606032 0.787846
vt 0.636034 0.787846
vt 0.636034 0.817848
vt 0.575730 0.787846
vt 0.605732 0.787846
vt 0.605732 0.817848
vt 0.575730 0.817848
vt 0.484826 0.787846
vt 0.514827 0.787846
vt 0.514827 0.817848
vt 0.484826 0.817848
vt 0.787331 0.000006
vt 0.787330 0.030007
vt 0.604840 0.030001
vt 0.604841 0.000000
vt 0.210011 0.000000
vt 0.240013 0.000000
vt 0.240013 0.030002
vt 0.210011 0.030002
vt 0.000000 0.000000
vt 0.030002 0.000000
vt 0.030002 0.030002
vt 0.000000 0.030002
vt 0.666349 0.272419
vt 0.696351 0.272419
vt 0.666348 0.452429
vt 0.636346 0.452429
vt 0.210011 0.240013
vt 0.030002 0.240013
vt 0.030002 0.210011
vt 0.210011 0.210011
vt 0.240013 0.210011
vt 0.000000 0.210011
vt 0.909061 0.452428
vt 0.909061 0.272419
vt 0.939062 0.272419
vt 0.939063 0.452428
vt 0.817328 0.210016
vt 0.817327 0.240017
vt 0.787326 0.240017
vt 0.787326 0.210015
vt 0.817332 0.030008
vt 0.817332 0.000007
vt 0.604833 0.210015
vt 0.604833 0.240017
vt 0.484826 0.240017
vt 0.484826 0.210015
vt 0.000000 0.242418
vt 0.030002 0.242417
vt 0.030007 0.424911
vt 0.000005 0.424911
vt 0.272422 0.782446
vt 0.242421 0.782446
vt 0.272421 0.602436
vt 0.302423 0.602436
vt 0.603043 0.452423
vt 0.603044 0.482425
vt 0.423033 0.512433
vt 0.423032 0.482430
vt 0.242419 0.242417
vt 0.272421 0.242417
vt 0.302422 0.422427
vt 0.272421 0.422427
vt 0.210017 0.242418
vt 0.240019 0.242418
vt 0.240018 0.424910
vt 0.210017 0.424910
vt 0.939362 0.452428
vt 0.939363 0.272419
vt 0.969364 0.272419
vt 0.969364 0.452428
vt 0.969364 0.482430
vt 0.939362 0.482430
vt 0.939363 0.242417
vt 0.969364 0.242417
vt 0.633045 0.482424
vt 0.633045 0.452423
vt 0.604833 0.000003
vt 0.604833 0.030005
vt 0.484826 0.030005
vt 0.484826 0.000003
vt 0.633045 0.272418
vt 0.603044 0.272418
vt 0.603045 0.242417
vt 0.633045 0.242418
vt 0.906361 0.242417
vt 0.906361 0.272419
vt 0.876359 0.272419
vt 0.876359 0.242417
vt 0.696351 0.242417
vt 0.666349 0.242417
vt 0.240018 0.544917
vt 0.210017 0.544917
vt 0.909061 0.482430
vt 0.939062 0.482430
vt 0.909061 0.242417
vt 0.939062 0.242417
vt 0.030007 0.544917
vt 0.303024 0.512437
vt 0.303023 0.482435
vt 0.666347 0.572436
vt 0.636346 0.572436
vt 0.000006 0.544917

# vertex normals
vn -0.000000 -1.000000 -0.000000
vn 0.000000 0.000000 1.000000
vn -1.000000 -0.000000 -0.000000
vn 1.000000 0.000000 0.000000
vn -0.000000 -0.000000 -1.000000
vn 0.000000 1.000000 0.000000
vn 0.000000 -0.164399 0.986394
vn 0.000000 0.164399 -0.986394

# Mesh
g RoadKillOut
usemtl DefaultMaterial
f 4/4/1 1/1/1 2/2/1
f 2/2/1 3/3/1 4/4/1
f 8/8/2 5/5/2 6/6/2
f 6/6/2 7/7/2 8/8/2
f 10/12/3 8/9/3 7/10/3
f 7/10/3 9/11/3 10/12/3
f 8/16/1 10/13/1 11/14/1
f 11/14/1 5/15/1 8/16/1
f 5/20/4 11/17/4 3/18/4
f 3/18/4 6/19/4 5/20/4
f 11/24/5 10/21/5 9/22/5
f 9/22/5 3/23/5 11/24/5
f 2/2/1 1/1/1 12/25/1
f 12/25/1 13/26/1 2/2/1
f 16/30/2 14/27/2 4/28/2
f 4/28/2 15/29/2 16/30/2
f 18/34/3 16/31/3 15/32/3
f 15/32/3 17/33/3 18/34/3
f 16/38/1 18/35/1 19/36/1
f 19/36/1 14/37/1 16/38/1
f 14/42/4 19/39/4 20/40/4
f 20/40/4 4/41/4 14/42/4
f 19/46/5 18/43/5 17/44/5
f 17/44/5 20/45/5 19/46/5
f 4/4/1 3/3/1 9/47/1
f 9/47/1 15/48/1 4/4/1
f 22/52/2 21/49/2 12/50/2
f 12/50/2 1/51/2 22/52/2
f 24/56/3 22/53/3 1/54/3
f 1/54/3 23/55/3 24/56/3
f 22/60/1 24/57/1 25/58/1
f 25/58/1 21/59/1 22/60/1
f 21/64/4 25/61/4 26/62/4
f 26/62/4 12/63/4 21/64/4
f 25/68/5 24/65/5 23/66/5
f 23/66/5 26/67/5 25/68/5
f 27/70/1 6/69/1 3/3/1
f 3/3/1 2/2/1 27/70/1
f 30/74/2 28/71/2 29/72/2
f 29/72/2 27/73/2 30/74/2
f 31/78/3 30/75/3 27/76/3
f 27/76/3 2/77/3 31/78/3
f 30/82/1 31/79/1 32/80/1
f 32/80/1 28/81/1 30/82/1
f 28/86/4 32/83/4 13/84/4
f 13/84/4 29/85/4 28/86/4
f 32/90/5 31/87/5 2/88/5
f 2/88/5 13/89/5 32/90/5
f 1/1/1 4/4/1 20/91/1
f 20/91/1 23/92/1 1/1/1
f 29/96/6 13/93/6 2/94/6
f 2/94/6 27/95/6 29/96/6
f 12/100/6 26/97/6 23/98/6
f 23/98/6 1/99/6 12/100/6
f 4/104/6 20/101/6 17/102/6
f 17/102/6 15/103/6 4/104/6
f 6/108/6 3/105/6 9/106/6
f 9/106/6 7/107/6 6/108/6
f 36/112/7 33/109/7 34/110/7
f 34/110/7 35/111/7 36/112/7
f 40/116/6 37/113/6 38/114/6
f 38/114/6 39/115/6 40/116/6
f 44/120/6 41/117/6 42/118/6
f 42/118/6 43/119/6 44/120/6
f 48/124/4 45/121/4 46/122/4
f 46/122/4 47/123/4 48/124/4
f 37/113/6 40/116/6 43/119/6
f 43/119/6 42/118/6 37/113/6
f 51/128/6 34/125/6 49/126/6
f 49/126/6 50/127/6 51/128/6
f 52/129/6 51/128/6 40/116/6
f 40/116/6 39/115/6 52/129/6
f 44/120/6 43/119/6 50/127/6
f 50/127/6 46/130/6 44/120/6
f 50/127/6 43/119/6 40/116/6
f 40/116/6 51/128/6 50/127/6
f 56/134/6 53/131/6 54/132/6
f 54/132/6 55/133/6 56/134/6
f 49/138/2 27/135/2 29/136/2
f 29/136/2 45/137/2 49/138/2
f 7/140/2 6/139/2 34/110/2
f 34/110/2 33/109/2 7/140/2
f 56/144/2 57/141/2 48/142/2
f 48/142/2 58/143/2 56/144/2
f 47/148/8 46/145/8 50/146/8
f 50/146/8 59/147/8 47/148/8
f 35/152/4 34/149/4 51/150/4
f 51/150/4 60/151/4 35/152/4
f 57/141/7 49/138/7 45/137/7
f 45/137/7 48/142/7 57/141/7
f 34/110/2 6/139/2 27/135/2
f 27/135/2 49/138/2 34/110/2
f 61/156/3 52/153/3 33/154/3
f 33/154/3 36/155/3 61/156/3
f 59/160/3 50/157/3 49/158/3
f 49/158/3 57/159/3 59/160/3
f 60/164/8 51/161/8 52/162/8
f 52/162/8 61/163/8 60/164/8
f 42/168/5 23/165/5 20/166/5
f 20/166/5 37/167/5 42/168/5
f 26/170/5 23/165/5 42/168/5
f 42/168/5 41/169/5 26/170/5
f 20/166/5 17/171/5 38/172/5
f 38/172/5 37/167/5 20/166/5
f 9/174/3 7/173/3 33/154/3
f 33/154/3 52/153/3 9/174/3
f 62/178/2 36/175/2 35/176/2
f 35/176/2 55/177/2 62/178/2
f 17/182/3 15/179/3 39/180/3
f 39/180/3 38/181/3 17/182/3
f 39/180/3 15/179/3 9/174/3
f 9/174/3 52/153/3 39/180/3
f 12/186/4 26/183/4 41/184/4
f 41/184/4 44/185/4 12/186/4
f 46/122/4 13/187/4 12/186/4
f 12/186/4 44/185/4 46/122/4
f 29/188/4 13/187/4 46/122/4
f 46/122/4 45/121/4 29/188/4
f 54/190/5 60/164/5 61/163/5
f 61/163/5 63/189/5 54/190/5
f 58/192/6 64/191/6 53/131/6
f 53/131/6 56/134/6 58/192/6
f 55/133/6 54/132/6 63/193/6
f 63/193/6 62/194/6 55/133/6
f 59/147/5 60/164/5 54/190/5
f 54/190/5 53/195/5 59/147/5
f 63/197/3 61/156/3 36/155/3
f 36/155/3 62/196/3 63/197/3
f 35/176/2 57/141/2 56/144/2
f 56/144/2 55/177/2 35/176/2
f 58/199/4 48/124/4 47/123/4
f 47/123/4 64/198/4 58/199/4
f 64/200/5 47/148/5 59/147/5
f 59/147/5 53/195/5 64/200/5
f 35/152/1 60/151/1 59/160/1
f 59/160/1 57/159/1 35/152/1
