# File produced by Open Asset Import Library (http://www.assimp.sf.net)
# (assimp v3.1.172307092)

mtllib counter.mtl

# vertex positions
v 1.000000 1.000000 12.037353
v -1.000000 1.000000 12.037353
v -1.000000 1.000000 -12.037353
v 1.000000 1.000000 -12.037353
v 1.000000 -1.000000 -12.037353
v -1.000000 -1.000000 -12.037353
v -1.000000 -1.000000 12.037353
v 1.000000 -1.000000 12.037353
v -2.138219 1.386958 -12.359732
v -2.138219 0.947584 -12.359732
v -2.138219 0.947584 12.359732
v -2.138219 1.386958 12.359732
v 2.138219 0.947584 12.359732
v 2.138219 1.386958 12.359732
v 2.138219 0.947584 -12.359732
v 2.138219 1.386958 -12.359732

# UV coordinates
vt 0.003947 0.446539
vt 0.000000 0.345964
vt 0.767888 0.345964
vt 0.771835 0.446539
vt 0.905105 0.752287
vt 0.905105 0.832386
vt 0.825006 0.832386
vt 0.825006 0.752287
vt 0.767888 0.549126
vt 0.771834 0.649700
vt 0.003947 0.649700
vt 0.000000 0.549125
vt 0.003947 0.751281
vt 0.000000 0.650706
vt 0.767888 0.650706
vt 0.771835 0.751281
vt 0.007894 0.547114
vt 0.775781 0.547114
vt 0.824205 0.832386
vt 0.744106 0.832386
vt 0.744106 0.752287
vt 0.824205 0.752287
vt 0.737355 0.752287
vt 0.740423 0.799976
vt 0.375121 0.799976
vt 0.372053 0.752287
vt 0.925991 0.752792
vt 0.945877 0.752287
vt 0.945877 0.903841
vt 0.925991 0.904346
vt 0.003068 0.799976
vt 0.000000 0.752287
vt 0.365301 0.752287
vt 0.368369 0.799976
vt 0.925792 0.903841
vt 0.905906 0.904346
vt 0.905906 0.752792
vt 0.925792 0.752287
vt 0.000000 0.171270
vt 0.000000 0.000000
vt 0.990003 0.000000
vt 0.990003 0.171270
vt 0.000000 0.344252
vt 0.000000 0.172982
vt 0.990003 0.172982
vt 0.990003 0.344252

# vertex normals
vn -0.000000 -1.000000 -0.000000
vn 0.000000 0.000000 1.000000
vn 1.000000 0.000000 0.000000
vn 0.000000 1.000000 0.000000
vn -1.000000 -0.000000 -0.000000
vn -0.000000 -0.000000 -1.000000

# Mesh
g RoadKillOut
usemtl DefaultMaterial
f 4/4/1 1/1/1 2/2/1
f 2/2/1 3/3/1 4/4/1
f 6/8/2 5/5/2 4/6/2
f 4/6/2 3/7/2 6/8/2
f 7/12/3 6/9/3 3/10/3
f 3/10/3 2/11/3 7/12/3
f 6/16/4 7/13/4 8/14/4
f 8/14/4 5/15/4 6/16/4
f 5/18/5 8/17/5 1/1/5
f 1/1/5 4/4/5 5/18/5
f 8/22/6 7/19/6 2/20/6
f 2/20/6 1/21/6 8/22/6
f 12/26/5 9/23/5 10/24/5
f 10/24/5 11/25/5 12/26/5
f 14/30/2 12/27/2 11/28/2
f 11/28/2 13/29/2 14/30/2
f 16/34/3 14/31/3 13/32/3
f 13/32/3 15/33/3 16/34/3
f 9/38/6 16/35/6 15/36/6
f 15/36/6 10/37/6 9/38/6
f 9/42/4 12/39/4 14/40/4
f 14/40/4 16/41/4 9/42/4
f 15/46/1 13/43/1 11/44/1
f 11/44/1 10/45/1 15/46/1
