# Blender 5.1.0
# www.blender.org
mtllib jar.mtl
o Cube
v 0.557420 1.000000 -0.557420
v 1.000000 -1.000000 -1.000000
v 0.557420 1.000000 0.557420
v 1.000000 -1.000000 1.000000
v -0.557420 1.000000 -0.557420
v -1.000000 -1.000000 -1.000000
v -0.557420 1.000000 0.557420
v -1.000000 -1.000000 1.000000
v 1.000000 1.000000 1.000000
v -1.000000 1.000000 1.000000
v 1.000000 1.000000 -1.000000
v -1.000000 1.000000 -1.000000
v 0.557420 1.307390 0.557420
v -0.557420 1.307390 0.557420
v 0.557420 1.307390 -0.557420
v -0.557420 1.307390 -0.557420
vn -0.0000 -0.0000 -1.0000
vn -0.0000 -0.0000 1.0000
vn -1.0000 -0.0000 -0.0000
vn -0.0000 -1.0000 -0.0000
vn 1.0000 -0.0000 -0.0000
vn -0.0000 1.0000 -0.0000
vt 0.680323 0.555323
vt 0.819677 0.555323
vt 0.375000 0.750000
vt 0.625000 0.750000
vt 0.625000 1.000000
vt 0.375000 1.000000
vt 0.375000 0.000000
vt 0.625000 0.000000
vt 0.625000 0.250000
vt 0.375000 0.250000
vt 0.125000 0.500000
vt 0.375000 0.500000
vt 0.125000 0.750000
vt 0.625000 0.500000
vt 0.680323 0.694677
vt 0.819677 0.694677
vt 0.875000 0.750000
vt 0.875000 0.500000
s 0
usemtl Material
f 1/1/1 5/2/1 16/2/1 15/1/1
f 4/3/2 9/4/2 10/5/2 8/6/2
f 8/7/3 10/8/3 12/9/3 6/10/3
f 6/11/4 2/12/4 4/3/4 8/13/4
f 2/12/5 11/14/5 9/4/5 4/3/5
f 6/10/1 12/9/1 11/14/1 2/12/1
f 3/15/6 7/16/6 10/17/6 9/4/6
f 1/1/6 3/15/6 9/4/6 11/14/6
f 7/16/6 5/2/6 12/18/6 10/17/6
f 5/2/6 1/1/6 11/14/6 12/18/6
f 3/15/5 1/1/5 15/1/5 13/15/5
f 5/2/3 7/16/3 14/16/3 16/2/3
f 7/16/2 3/15/2 13/15/2 14/16/2
o Cylinder
v 0.000000 1.014975 -1.000000
v 0.000000 1.460642 -1.000000
v 0.707107 1.014975 -0.707107
v 0.707107 1.460642 -0.707107
v 1.000000 1.014975 0.000000
v 1.000000 1.460642 0.000000
v 0.707107 1.014975 0.707107
v 0.707107 1.460642 0.707107
v 0.000000 1.014975 1.000000
v 0.000000 1.460642 1.000000
v -0.707107 1.014975 0.707107
v -0.707107 1.460642 0.707107
v -1.000000 1.014975 0.000000
v -1.000000 1.460642 0.000000
v -0.707107 1.014975 -0.707107
v -0.707107 1.460642 -0.707107
vn 0.3827 -0.0000 -0.9239
vn 0.9239 -0.0000 -0.3827
vn 0.9239 -0.0000 0.3827
vn 0.3827 -0.0000 0.9239
vn -0.3827 -0.0000 0.9239
vn -0.9239 -0.0000 0.3827
vn -0.0000 1.0000 -0.0000
vn -0.9239 -0.0000 -0.3827
vn -0.3827 -0.0000 -0.9239
vt 1.000000 0.500000
vt 1.000000 1.000000
vt 0.875000 1.000000
vt 0.875000 0.500000
vt 0.750000 1.000000
vt 0.750000 0.500000
vt 0.625000 1.000000
vt 0.625000 0.500000
vt 0.500000 1.000000
vt 0.500000 0.500000
vt 0.375000 1.000000
vt 0.375000 0.500000
vt 0.250000 1.000000
vt 0.250000 0.500000
vt 0.419706 0.419706
vt 0.250000 0.490000
vt 0.080294 0.419706
vt 0.010000 0.250000
vt 0.080294 0.080294
vt 0.250000 0.010000
vt 0.419706 0.080294
vt 0.490000 0.250000
vt 0.125000 1.000000
vt 0.125000 0.500000
vt 0.000000 1.000000
vt 0.000000 0.500000
s 0
usemtl Material.001
f 17/19/7 18/20/7 20/21/7 19/22/7
f 19/22/8 20/21/8 22/23/8 21/24/8
f 21/24/9 22/23/9 24/25/9 23/26/9
f 23/26/10 24/25/10 26/27/10 25/28/10
f 25/28/11 26/27/11 28/29/11 27/30/11
f 27/30/12 28/29/12 30/31/12 29/32/12
f 20/33/13 18/34/13 32/35/13 30/36/13 28/37/13 26/38/13 24/39/13 22/40/13
f 29/32/14 30/31/14 32/41/14 31/42/14
f 31/42/15 32/41/15 18/43/15 17/44/15
o Cube.001
v -0.860880 -0.942236 0.886498
v -0.860880 0.783330 0.886498
v -0.860880 -0.942236 -0.839068
v -0.860880 0.783330 -0.839068
v 0.864686 -0.942236 0.886498
v 0.864686 0.783330 0.886498
v 0.864686 -0.942236 -0.839068
v 0.864686 0.783330 -0.839068
vn -1.0000 -0.0000 -0.0000
vn -0.0000 -0.0000 -1.0000
vn 1.0000 -0.0000 -0.0000
vn -0.0000 -0.0000 1.0000
vn -0.0000 -1.0000 -0.0000
vn -0.0000 1.0000 -0.0000
vt 0.375000 0.000000
vt 0.625000 0.000000
vt 0.625000 0.250000
vt 0.375000 0.250000
vt 0.625000 0.500000
vt 0.375000 0.500000
vt 0.625000 0.750000
vt 0.375000 0.750000
vt 0.625000 1.000000
vt 0.375000 1.000000
vt 0.125000 0.500000
vt 0.125000 0.750000
vt 0.875000 0.500000
vt 0.875000 0.750000
s 0
usemtl Material.002
f 33/45/16 34/46/16 36/47/16 35/48/16
f 35/48/17 36/47/17 40/49/17 39/50/17
f 39/50/18 40/49/18 38/51/18 37/52/18
f 37/52/19 38/51/19 34/53/19 33/54/19
f 35/55/20 39/50/20 37/52/20 33/56/20
f 40/49/21 36/57/21 34/58/21 38/51/21
