# Blender 5.1.0
# www.blender.org
mtllib roof2.mtl
o Cube.001
v -7.095344 0.136814 1.000000
v -7.095344 0.827027 1.000000
v -7.095344 0.136814 0.450553
v -7.095344 0.827027 0.450553
v -3.966379 0.136814 1.000000
v -3.966379 0.827027 1.000000
v -3.966379 0.136814 0.450553
v -3.966379 0.827027 0.450553
v -3.515218 0.136814 1.000000
v -3.515218 0.827027 1.000000
v -3.515218 0.136814 0.450553
v -3.515218 0.827027 0.450553
v 0.631168 0.136814 1.000000
v 0.631168 0.827027 1.000000
v 0.631168 0.136814 0.450553
v 0.631168 0.827027 0.450553
v -3.441894 0.136814 1.802228
v -3.441894 0.827027 1.802228
v -3.991341 0.136814 1.802228
v -3.991341 0.827027 1.802228
v -3.441894 0.136814 -10.236706
v -3.441894 0.827027 -10.236706
v -3.991341 0.136814 -10.236706
v -3.991341 0.827027 -10.236706
v -7.037738 0.136814 1.802228
v -7.037738 0.827027 1.802228
v -7.587185 0.136814 1.802228
v -7.587185 0.827027 1.802228
v -7.037738 0.136814 -10.195713
v -7.037738 0.827027 -10.195713
v -7.587185 0.136814 -10.195713
v -7.587185 0.827027 -10.195713
v -10.608265 0.136814 1.000000
v -10.608265 0.827027 1.000000
v -10.608265 0.136814 0.450553
v -10.608265 0.827027 0.450553
v -7.479300 0.136814 1.000000
v -7.479300 0.827027 1.000000
v -7.479300 0.136814 0.450553
v -7.479300 0.827027 0.450553
v -10.555738 0.136814 1.802228
v -10.555738 0.827027 1.802228
v -11.105186 0.136814 1.802228
v -11.105186 0.827027 1.802228
v -10.555738 0.136814 -10.196436
v -10.555738 0.827027 -10.196436
v -11.105186 0.136814 -10.196436
v -11.105186 0.827027 -10.196436
v 0.003949 0.136814 1.802228
v 0.003949 0.827027 1.802228
v -0.545498 0.136814 1.802228
v -0.545498 0.827027 1.802228
v 0.003949 0.136814 -10.228294
v 0.003949 0.827027 -10.228294
v -0.545499 0.136814 -10.228294
v -0.545499 0.827027 -10.228294
v -14.795229 0.136814 1.000000
v -14.795229 0.827027 1.000000
v -14.795229 0.136814 0.450553
v -14.795229 0.827027 0.450553
v -10.932197 0.136814 1.000000
v -10.932197 0.827027 1.000000
v -10.932197 0.136814 0.450553
v -10.932197 0.827027 0.450553
v -13.823082 0.136814 1.802228
v -13.823082 0.827027 1.802228
v -14.372528 0.136814 1.802228
v -14.372528 0.827027 1.802228
v -13.823082 0.136814 -10.079641
v -13.823082 0.827027 -10.079641
v -14.372528 0.136814 -10.079641
v -14.372528 0.827027 -10.079641
v -14.795229 0.136814 -2.094796
v -14.795229 0.827027 -2.094796
v -14.795229 0.136814 -2.644243
v -14.795229 0.827027 -2.644243
v 0.590596 0.136814 -2.094796
v 0.590596 0.827027 -2.094796
v 0.590596 0.136814 -2.644243
v 0.590596 0.827027 -2.644243
v -14.795229 0.136814 -5.638880
v -14.795229 0.827027 -5.638880
v -14.795229 0.136814 -6.188327
v -14.795229 0.827027 -6.188327
v 0.590596 0.136814 -5.638880
v 0.590596 0.827027 -5.638880
v 0.590596 0.136814 -6.188327
v 0.590596 0.827027 -6.188327
v -14.795229 0.136814 -8.680202
v -14.795229 0.827027 -8.680202
v -14.795229 0.136814 -9.229650
v -14.795229 0.827027 -9.229650
v 0.590596 0.136814 -8.680202
v 0.590596 0.827027 -8.680202
v 0.590596 0.136814 -9.229650
v 0.590596 0.827027 -9.229650
vn -1.0000 -0.0000 -0.0000
vn -0.0000 -0.0000 -1.0000
vn 1.0000 -0.0000 -0.0000
vn -0.0000 -0.0000 1.0000
vn -0.0000 -1.0000 -0.0000
vn -0.0000 1.0000 -0.0000
vt 0.375000 0.000000
vt 0.625000 0.000000
vt 0.625000 0.250000
vt 0.375000 0.250000
vt 0.625000 0.500000
vt 0.375000 0.500000
vt 0.625000 0.750000
vt 0.375000 0.750000
vt 0.625000 1.000000
vt 0.375000 1.000000
vt 0.125000 0.500000
vt 0.125000 0.750000
vt 0.875000 0.500000
vt 0.875000 0.750000
s 0
usemtl Material.003
f 1/1/1 2/2/1 4/3/1 3/4/1
f 3/4/2 4/3/2 8/5/2 7/6/2
f 7/6/3 8/5/3 6/7/3 5/8/3
f 5/8/4 6/7/4 2/9/4 1/10/4
f 3/11/5 7/6/5 5/8/5 1/12/5
f 8/5/6 4/13/6 2/14/6 6/7/6
f 9/1/1 10/2/1 12/3/1 11/4/1
f 11/4/2 12/3/2 16/5/2 15/6/2
f 15/6/3 16/5/3 14/7/3 13/8/3
f 13/8/4 14/7/4 10/9/4 9/10/4
f 11/11/5 15/6/5 13/8/5 9/12/5
f 16/5/6 12/13/6 10/14/6 14/7/6
f 17/1/4 18/2/4 20/3/4 19/4/4
f 19/4/1 20/3/1 24/5/1 23/6/1
f 23/6/2 24/5/2 22/7/2 21/8/2
f 21/8/3 22/7/3 18/9/3 17/10/3
f 19/11/5 23/6/5 21/8/5 17/12/5
f 24/5/6 20/13/6 18/14/6 22/7/6
f 25/1/4 26/2/4 28/3/4 27/4/4
f 27/4/1 28/3/1 32/5/1 31/6/1
f 31/6/2 32/5/2 30/7/2 29/8/2
f 29/8/3 30/7/3 26/9/3 25/10/3
f 27/11/5 31/6/5 29/8/5 25/12/5
f 32/5/6 28/13/6 26/14/6 30/7/6
f 33/1/1 34/2/1 36/3/1 35/4/1
f 35/4/2 36/3/2 40/5/2 39/6/2
f 39/6/3 40/5/3 38/7/3 37/8/3
f 37/8/4 38/7/4 34/9/4 33/10/4
f 35/11/5 39/6/5 37/8/5 33/12/5
f 40/5/6 36/13/6 34/14/6 38/7/6
f 41/1/4 42/2/4 44/3/4 43/4/4
f 43/4/1 44/3/1 48/5/1 47/6/1
f 47/6/2 48/5/2 46/7/2 45/8/2
f 45/8/3 46/7/3 42/9/3 41/10/3
f 43/11/5 47/6/5 45/8/5 41/12/5
f 48/5/6 44/13/6 42/14/6 46/7/6
f 49/1/4 50/2/4 52/3/4 51/4/4
f 51/4/1 52/3/1 56/5/1 55/6/1
f 55/6/2 56/5/2 54/7/2 53/8/2
f 53/8/3 54/7/3 50/9/3 49/10/3
f 51/11/5 55/6/5 53/8/5 49/12/5
f 56/5/6 52/13/6 50/14/6 54/7/6
f 57/1/1 58/2/1 60/3/1 59/4/1
f 59/4/2 60/3/2 64/5/2 63/6/2
f 63/6/3 64/5/3 62/7/3 61/8/3
f 61/8/4 62/7/4 58/9/4 57/10/4
f 59/11/5 63/6/5 61/8/5 57/12/5
f 64/5/6 60/13/6 58/14/6 62/7/6
f 65/1/4 66/2/4 68/3/4 67/4/4
f 67/4/1 68/3/1 72/5/1 71/6/1
f 71/6/2 72/5/2 70/7/2 69/8/2
f 69/8/3 70/7/3 66/9/3 65/10/3
f 67/11/5 71/6/5 69/8/5 65/12/5
f 72/5/6 68/13/6 66/14/6 70/7/6
f 73/1/1 74/2/1 76/3/1 75/4/1
f 75/4/2 76/3/2 80/5/2 79/6/2
f 79/6/3 80/5/3 78/7/3 77/8/3
f 77/8/4 78/7/4 74/9/4 73/10/4
f 75/11/5 79/6/5 77/8/5 73/12/5
f 80/5/6 76/13/6 74/14/6 78/7/6
f 81/1/1 82/2/1 84/3/1 83/4/1
f 83/4/2 84/3/2 88/5/2 87/6/2
f 87/6/3 88/5/3 86/7/3 85/8/3
f 85/8/4 86/7/4 82/9/4 81/10/4
f 83/11/5 87/6/5 85/8/5 81/12/5
f 88/5/6 84/13/6 82/14/6 86/7/6
f 89/1/1 90/2/1 92/3/1 91/4/1
f 91/4/2 92/3/2 96/5/2 95/6/2
f 95/6/3 96/5/3 94/7/3 93/8/3
f 93/8/4 94/7/4 90/9/4 89/10/4
f 91/11/5 95/6/5 93/8/5 89/12/5
f 96/5/6 92/13/6 90/14/6 94/7/6
