# Blender 5.1.0
# www.blender.org
mtllib roof.mtl
o Cube
v 0.000000 0.001689 1.000000
v 0.000000 0.195448 1.000000
v 0.000000 0.001689 -12.272692
v 0.000000 0.195448 -12.272692
v 1.000000 0.001689 1.000000
v 1.000000 0.195448 1.000000
v 1.000000 0.001689 -12.272692
v 1.000000 0.195448 -12.272692
v 3.605028 -2.172415 -12.271092
v 3.605028 -2.366174 -12.271092
v 3.605028 -2.366174 1.001600
v 3.605028 -2.172415 1.001600
v -1.000000 0.001689 1.000000
v -1.000000 0.195448 1.000000
v -1.000000 0.001689 -12.272692
v -1.000000 0.195448 -12.272692
v -3.605028 -2.172415 -12.271092
v -3.605028 -2.366174 -12.271092
v -3.605028 -2.366174 1.001600
v -3.605028 -2.172415 1.001600
vn -1.0000 -0.0000 -0.0000
vn -0.0000 -0.0000 -1.0000
vn -0.6726 -0.7400 -0.0000
vn -0.0000 -0.0000 1.0000
vn -0.0000 -1.0000 -0.0000
vn -0.0000 1.0000 -0.0000
vn 1.0000 -0.0000 -0.0000
vn 0.6726 0.7400 -0.0000
vn 0.0006 -0.0000 -1.0000
vn -0.0006 -0.0000 1.0000
vn 0.6726 -0.7400 -0.0000
vn -0.6726 0.7400 -0.0000
vn -0.0006 -0.0000 -1.0000
vn 0.0006 -0.0000 1.0000
vt 0.375000 0.000000
vt 0.625000 0.000000
vt 0.625000 0.250000
vt 0.375000 0.250000
vt 0.625000 0.500000
vt 0.375000 0.500000
vt 0.375000 0.750000
vt 0.625000 0.750000
vt 0.625000 1.000000
vt 0.375000 1.000000
vt 0.125000 0.500000
vt 0.125000 0.750000
vt 0.875000 0.500000
vt 0.875000 0.750000
s 0
usemtl Material.001
f 1/1/1 2/2/1 4/3/1 3/4/1
f 3/4/2 4/3/2 8/5/2 7/6/2
f 5/7/3 7/6/3 10/6/3 11/7/3
f 5/7/4 6/8/4 2/9/4 1/10/4
f 3/11/5 7/6/5 5/7/5 1/12/5
f 8/5/6 4/13/6 2/14/6 6/8/6
f 10/6/7 9/5/7 12/8/7 11/7/7
f 8/5/8 6/8/8 12/8/8 9/5/8
f 7/6/9 8/5/9 9/5/9 10/6/9
f 6/8/10 5/7/10 11/7/10 12/8/10
f 3/4/2 15/6/2 16/5/2 4/3/2
f 13/7/11 19/7/11 18/6/11 15/6/11
f 13/7/4 1/10/4 2/9/4 14/8/4
f 3/11/5 1/12/5 13/7/5 15/6/5
f 16/5/6 14/8/6 2/14/6 4/13/6
f 18/6/1 19/7/1 20/8/1 17/5/1
f 16/5/12 17/5/12 20/8/12 14/8/12
f 15/6/13 18/6/13 17/5/13 16/5/13
f 14/8/14 20/8/14 19/7/14 13/7/14
o Cube.001
v -0.871702 -0.936560 0.998873
v -0.871702 0.002560 0.998873
v -0.871702 -0.936560 -12.253138
v -0.871702 0.002560 -12.253138
v 0.808560 -0.936560 0.998873
v 0.808560 0.002560 0.998873
v 0.808560 -0.936560 -12.253138
v 0.808560 0.002560 -12.253138
vn -1.0000 -0.0000 -0.0000
vn -0.0000 -0.0000 -1.0000
vn 1.0000 -0.0000 -0.0000
vn -0.0000 -0.0000 1.0000
vn -0.0000 -1.0000 -0.0000
vt 0.375000 0.000000
vt 0.625000 0.000000
vt 0.625000 0.250000
vt 0.375000 0.250000
vt 0.625000 0.500000
vt 0.375000 0.500000
vt 0.625000 0.750000
vt 0.375000 0.750000
vt 0.625000 1.000000
vt 0.375000 1.000000
vt 0.125000 0.500000
vt 0.125000 0.750000
s 0
usemtl Material.002
f 21/15/15 22/16/15 24/17/15 23/18/15
f 23/18/16 24/17/16 28/19/16 27/20/16
f 27/20/17 28/19/17 26/21/17 25/22/17
f 25/22/18 26/21/18 22/23/18 21/24/18
f 23/25/19 27/20/19 25/22/19 21/26/19
